<?xml version="1.0" encoding="utf-8"?>
<!-- Generator: Adobe Illustrator 21.0.2, SVG Export Plug-In . SVG Version: 6.00 Build 0)  -->
<svg version="1.1" xmlns="http://www.w3.org/2000/svg" xmlns:xlink="http://www.w3.org/1999/xlink" x="0px" y="0px"
	 viewBox="0 0 1700.8 850.4" style="enable-background:new 0 0 1700.8 850.4;" xml:space="preserve">
<style type="text/css">
	.st0{fill:none;stroke:#000000;stroke-width:0.1;stroke-miterlimit:10;}
	.st1{fill:none;stroke:#000000;stroke-width:0.1;stroke-linecap:round;stroke-linejoin:round;stroke-miterlimit:10;}
</style>
<g id="BORDER_x5F_FRAME">
</g>
<g id="BORDER_x5F_ZONES">
</g>
<g id="TITLE_x5F_BLOCK">
</g>
<g id="Visible">
	<g>
		<g id="ARC">
			<path class="st0" d="M1422.4,723.6c-3.4,6.6-0.9,14.7,5.6,18.1"/>
		</g>
		<g id="LINE_84_">
			<line class="st0" x1="1502.3" y1="571.3" x2="1422.4" y2="723.6"/>
		</g>
		<g id="ARC_1_">
			<path class="st0" d="M1502.3,571.3c4.1-7.8,1.5-17.5-5.9-22.3"/>
		</g>
		<g id="LINE_85_">
			<path class="st0" d="M839,131.3"/>
		</g>
		<g id="ARC_2_">
			<path class="st0" d="M1267.8,325.9c0.3-0.6,0.1-1.4-0.5-1.8"/>
		</g>
		<g id="LINE_86_">
			<line class="st0" x1="1255.9" y1="348.5" x2="1267.8" y2="325.9"/>
		</g>
		<g id="LINE_87_">
			<line class="st0" x1="1267.7" y1="354.7" x2="1255.9" y2="348.5"/>
		</g>
		<g id="LINE_88_">
			<line class="st0" x1="1278.9" y1="333.2" x2="1267.7" y2="354.7"/>
		</g>
		<g id="ARC_3_">
			<path class="st0" d="M1280.8,332.7c-0.6-0.4-1.5-0.2-1.8,0.4c0,0,0,0.1-0.1,0.1"/>
		</g>
		<g id="LINE_89_">
			<line class="st0" x1="1280.8" y1="332.7" x2="1532.3" y2="492.5"/>
		</g>
		<g id="ARC_4_">
			<path class="st0" d="M1561.6,602.4c20.3-38.7,7.5-86.5-29.3-109.9"/>
		</g>
		<g id="LINE_90_">
			<line class="st0" x1="1561.6" y1="602.4" x2="1481.7" y2="754.7"/>
		</g>
		<g id="ARC_5_">
			<path class="st0" d="M1463.6,760.3c6.6,3.4,14.7,0.9,18.1-5.6"/>
		</g>
		<g id="LINE_91_">
			<line class="st0" x1="1452.9" y1="754.7" x2="1463.6" y2="760.3"/>
		</g>
		<g id="ARC_6_">
			<path class="st0" d="M1452.3,752.9c-0.3,0.7-0.1,1.5,0.6,1.8"/>
		</g>
		<g id="LINE_92_">
			<line class="st0" x1="1452.3" y1="752.9" x2="1476.6" y2="706.6"/>
		</g>
		<g id="LINE_93_">
			<line class="st0" x1="1464.9" y1="700.4" x2="1476.6" y2="706.6"/>
		</g>
		<g id="LINE_94_">
			<line class="st0" x1="1440.6" y1="746.7" x2="1464.9" y2="700.4"/>
		</g>
		<g id="ARC_7_">
			<path class="st0" d="M1438.8,747.3c0.7,0.3,1.5,0.1,1.8-0.6"/>
		</g>
		<g id="LINE_95_">
			<line class="st0" x1="1428" y1="741.7" x2="1438.8" y2="747.3"/>
		</g>
		<g id="ARC_8_">
			<path class="st0" d="M834.3,113.8c-3.2,6.2-1.2,13.8,4.7,17.5c0,0,17.7,82.8,127.3,157.6S1172.8,369.4,1250,405
				S1496.3,549,1496.3,549"/>
		</g>
		<g id="LINE_96_">
			<line class="st0" x1="859.2" y1="66.4" x2="834.3" y2="113.8"/>
		</g>
		<g id="ARC_9_">
			<path class="st0" d="M861.1,65.9c-0.6-0.4-1.5-0.2-1.8,0.4c0,0,0,0.1-0.1,0.1"/>
		</g>
		<g id="LINE_97_">
			<line class="st0" x1="861.1" y1="65.9" x2="1267.3" y2="324.1"/>
		</g>
	</g>
	<g>
		<g id="ARC_88_">
			<path class="st0" d="M128.8,406.8c-2.3-7-9.8-10.9-16.9-8.7"/>
		</g>
		<g id="LINE_122_">
			<line class="st0" x1="181.3" y1="570.5" x2="128.8" y2="406.8"/>
		</g>
		<g id="ARC_87_">
			<path class="st0" d="M181.3,570.5c2.7,8.4,11.4,13.4,20,11.4c0,0,286.6-115.4,525.8-115.4c269.6,0.1,283.6,176.5,283.6,176.5
				l-77.7,30.9"/>
		</g>
		<g id="LINE_121_">
			<path class="st0" d="M960.1,406.2"/>
		</g>
		<g id="ARC_86_">
			<path class="st0" d="M520.7,575.4c0.2,0.7,0.9,1.1,1.6,0.9"/>
		</g>
		<g id="LINE_120_">
			<path class="st0" d="M512.9,551.1l7.8,24.3c0,0,230.2-53.8,260.9-35.3s151.5,133.8,151.5,133.8"/>
		</g>
		<g id="LINE_119_">
			<line class="st0" x1="500.3" y1="555.1" x2="512.9" y2="551.1"/>
		</g>
		<g id="LINE_118_">
			<line class="st0" x1="507.7" y1="578.2" x2="500.3" y2="555.1"/>
		</g>
		<g id="ARC_85_">
			<path class="st0" d="M506.7,579.9c0.7-0.2,1.2-0.9,1-1.6c0,0,0-0.1,0-0.1"/>
		</g>
		<g id="LINE_117_">
			<line class="st0" x1="506.7" y1="579.9" x2="216.5" y2="647.1"/>
		</g>
		<g id="ARC_84_">
			<path class="st0" d="M117.5,591c13.4,41.6,56.4,66,98.9,56.2"/>
		</g>
		<g id="LINE_116_">
			<line class="st0" x1="117.5" y1="591" x2="65" y2="427.2"/>
		</g>
		<g id="ARC_83_">
			<path class="st0" d="M73.6,410.4c-7,2.3-10.9,9.8-8.7,16.9"/>
		</g>
		<g id="LINE_115_">
			<line class="st0" x1="85.2" y1="406.7" x2="73.6" y2="410.4"/>
		</g>
		<g id="ARC_82_">
			<path class="st0" d="M86.9,407.5c-0.2-0.7-1-1.1-1.7-0.9"/>
		</g>
		<g id="LINE_114_">
			<line class="st0" x1="86.9" y1="407.5" x2="102.9" y2="457.3"/>
		</g>
		<g id="LINE_113_">
			<line class="st0" x1="115.5" y1="453.2" x2="102.9" y2="457.3"/>
		</g>
		<g id="LINE_112_">
			<line class="st0" x1="99.5" y1="403.5" x2="115.5" y2="453.2"/>
		</g>
		<g id="ARC_81_">
			<path class="st0" d="M100.4,401.8c-0.7,0.2-1.1,1-0.9,1.7"/>
		</g>
		<g id="LINE_111_">
			<line class="st0" x1="111.9" y1="398.1" x2="100.4" y2="401.8"/>
		</g>
		<g id="ARC_71_">
			<path class="st0" d="M991.3,467.8c0.7-0.2,1.2-0.9,1-1.6c0,0,0-0.1,0-0.1"/>
		</g>
	</g>
	<g>
		<g id="ARC_96_">
			<path class="st0" d="M65,520.4c-2.3-7-9.8-10.9-16.9-8.7"/>
		</g>
		<g id="LINE_132_">
			<line class="st0" x1="117.6" y1="684.1" x2="65" y2="520.4"/>
		</g>
		<g id="ARC_95_">
			<path class="st0" d="M117.6,684.1c2.7,8.4,11.4,13.4,20,11.4c0,0,286.6-115.4,525.8-115.4C933,580.1,947,756.6,947,756.6
				l-77.7,30.9"/>
		</g>
		<g id="LINE_131_">
			<path class="st0" d="M896.3,519.8"/>
		</g>
		<g id="ARC_94_">
			<path class="st0" d="M456.9,689.1c0.2,0.7,0.9,1.1,1.6,0.9"/>
		</g>
		<g id="LINE_130_">
			<path class="st0" d="M449.1,664.7l7.8,24.3c0,0,230.2-53.8,260.9-35.3s151.5,133.8,151.5,133.8"/>
		</g>
		<g id="LINE_129_">
			<line class="st0" x1="436.5" y1="668.8" x2="449.1" y2="664.7"/>
		</g>
		<g id="LINE_128_">
			<line class="st0" x1="443.9" y1="691.8" x2="436.5" y2="668.8"/>
		</g>
		<g id="ARC_93_">
			<path class="st0" d="M442.9,693.6c0.7-0.2,1.2-0.9,1-1.6c0,0,0-0.1,0-0.1"/>
		</g>
		<g id="LINE_127_">
			<line class="st0" x1="442.9" y1="693.6" x2="152.7" y2="760.7"/>
		</g>
		<g id="ARC_92_">
			<path class="st0" d="M53.8,704.6c13.4,41.6,56.4,66,98.9,56.2"/>
		</g>
		<g id="LINE_126_">
			<line class="st0" x1="53.8" y1="704.6" x2="1.2" y2="540.9"/>
		</g>
		<g id="ARC_91_">
			<path class="st0" d="M9.9,524c-7,2.3-10.9,9.8-8.7,16.9"/>
		</g>
		<g id="LINE_125_">
			<line class="st0" x1="21.4" y1="520.3" x2="9.9" y2="524"/>
		</g>
		<g id="ARC_90_">
			<path class="st0" d="M23.1,521.2c-0.2-0.7-1-1.1-1.7-0.9"/>
		</g>
		<g id="LINE_124_">
			<line class="st0" x1="23.1" y1="521.2" x2="39.1" y2="570.9"/>
		</g>
		<g id="LINE_123_">
			<line class="st0" x1="51.7" y1="566.9" x2="39.1" y2="570.9"/>
		</g>
		<g id="LINE_110_">
			<line class="st0" x1="35.7" y1="517.1" x2="51.7" y2="566.9"/>
		</g>
		<g id="ARC_89_">
			<path class="st0" d="M36.6,515.4c-0.7,0.2-1.1,1-0.9,1.7"/>
		</g>
		<g id="LINE_109_">
			<line class="st0" x1="48.1" y1="511.7" x2="36.6" y2="515.4"/>
		</g>
		<g id="ARC_80_">
			<path class="st0" d="M927.5,581.4c0.7-0.2,1.2-0.9,1-1.6c0,0,0-0.1,0-0.1"/>
		</g>
	</g>
	<g>
		<g id="ARC_79_">
			<path class="st0" d="M1517.1,710.7c-4.2,6.1-2.6,14.4,3.5,18.6"/>
		</g>
		<g id="LINE_108_">
			<line class="st0" x1="1614.2" y1="568.8" x2="1517.1" y2="710.7"/>
		</g>
		<g id="ARC_78_">
			<path class="st0" d="M1614.2,568.8c5-7.3,3.6-17.2-3.3-22.8"/>
		</g>
		<g id="LINE_107_">
			<path class="st0" d="M1006.8,54.4"/>
		</g>
		<g id="ARC_77_">
			<path class="st0" d="M1410,297.7c0.4-0.6,0.3-1.4-0.3-1.8"/>
		</g>
		<g id="LINE_106_">
			<line class="st0" x1="1395.5" y1="318.8" x2="1410" y2="297.7"/>
		</g>
		<g id="LINE_105_">
			<line class="st0" x1="1406.5" y1="326.3" x2="1395.5" y2="318.8"/>
		</g>
		<g id="LINE_104_">
			<line class="st0" x1="1420.2" y1="306.3" x2="1406.5" y2="326.3"/>
		</g>
		<g id="ARC_76_">
			<path class="st0" d="M1422.1,306c-0.6-0.5-1.4-0.4-1.9,0.2c0,0,0,0.1-0.1,0.1"/>
		</g>
		<g id="LINE_103_">
			<line class="st0" x1="1422.1" y1="306" x2="1653.2" y2="494"/>
		</g>
		<g id="ARC_75_">
			<path class="st0" d="M1669.5,606.6c24.7-36.1,17.6-85-16.3-112.6"/>
		</g>
		<g id="LINE_102_">
			<line class="st0" x1="1669.5" y1="606.6" x2="1572.4" y2="748.5"/>
		</g>
		<g id="ARC_74_">
			<path class="st0" d="M1553.8,752c6.1,4.2,14.4,2.6,18.6-3.5"/>
		</g>
		<g id="LINE_101_">
			<line class="st0" x1="1543.8" y1="745.2" x2="1553.8" y2="752"/>
		</g>
		<g id="ARC_73_">
			<path class="st0" d="M1543.4,743.3c-0.4,0.6-0.3,1.4,0.3,1.9"/>
		</g>
		<g id="LINE_100_">
			<line class="st0" x1="1543.4" y1="743.3" x2="1572.9" y2="700.2"/>
		</g>
		<g id="LINE_99_">
			<line class="st0" x1="1562" y1="692.7" x2="1572.9" y2="700.2"/>
		</g>
		<g id="LINE_98_">
			<line class="st0" x1="1532.5" y1="735.8" x2="1562" y2="692.7"/>
		</g>
		<g id="ARC_72_">
			<path class="st0" d="M1530.6,736.2c0.6,0.4,1.4,0.3,1.9-0.3"/>
		</g>
		<g id="LINE_83_">
			<line class="st0" x1="1520.6" y1="729.3" x2="1530.6" y2="736.2"/>
		</g>
		<g id="LINE_82_">
			<path class="st0" d="M1034.4-7.7l-30.2,44.1l61.2,87.7c0,0,45.9,109.6,108.4,118.9c62.5,9.3,192.7,112.4,228.1,132.5
				c35.4,20,209,170.5,209,170.5"/>
		</g>
		<g id="ARC_70_">
			<path class="st0" d="M1036.3-8c-0.6-0.5-1.4-0.4-1.9,0.2c0,0,0,0.1-0.1,0.1"/>
		</g>
		<g id="LINE_81_">
			<line class="st0" x1="1036.3" y1="-8" x2="1409.7" y2="295.9"/>
		</g>
	</g>
	<g>
		<g id="CIRCLE_1_">
			<path class="st1" d="M45.4,52.3c0-3.7,3-6.7,6.7-6.7s6.7,3,6.7,6.7c0,3.7-3,6.7-6.7,6.7S45.4,56,45.4,52.3L45.4,52.3z"/>
		</g>
		<g id="ARC_54_">
			<path class="st1" d="M97.5,67.6c5.9-17.5-3.5-36.5-21.1-42.4S39.9,28.7,34,46.2s3.5,36.5,21.1,42.4c0.5,0.2,1.1,0.3,1.6,0.5"/>
		</g>
		<g id="LINE_52_">
			<line class="st1" x1="61.9" y1="154.4" x2="89.2" y2="154.6"/>
		</g>
		<g id="LINE_51_">
			<line class="st1" x1="61.8" y1="167.6" x2="61.9" y2="154.4"/>
		</g>
		<g id="LINE_50_">
			<line class="st1" x1="89.1" y1="167.9" x2="61.8" y2="167.6"/>
		</g>
		<g id="ARC_53_">
			<path class="st1" d="M89.1,167.9c0.7,58,18.5,114.4,51.2,162.3"/>
		</g>
		<g id="LINE_49_">
			<line class="st1" x1="118" y1="346.1" x2="140.3" y2="330.2"/>
		</g>
		<g id="LINE_48_">
			<line class="st1" x1="125.8" y1="356.9" x2="118" y2="346.1"/>
		</g>
		<g id="LINE_47_">
			<line class="st1" x1="148" y1="341" x2="125.8" y2="356.9"/>
		</g>
		<g id="ARC_52_">
			<path class="st1" d="M148,341c17.3,23.1,37.9,43.5,61.1,60.6"/>
		</g>
		<g id="ARC_51_">
			<path class="st1" d="M204.7,407.6c-14.4-10.6-34.5-8.1-45.8,5.8"/>
		</g>
		<g id="CIRCLE_3_">
			<path class="st1" d="M152,393.8c0-3.7,3-6.7,6.7-6.7s6.7,3,6.7,6.7s-3,6.7-6.7,6.7S152,397.5,152,393.8L152,393.8z"/>
		</g>
		<g id="ARC_50_">
			<path class="st1" d="M104.5,70c-9.2,27.3-14.3,55.8-15.3,84.7"/>
		</g>
		<g id="LINE_46_">
			<line class="st1" x1="104.5" y1="70" x2="97.5" y2="67.6"/>
		</g>
		<g id="ARC_49_">
			<path class="st1" d="M56.7,89.2C29.5,207.7,68.6,331.8,158.9,413.3"/>
		</g>
		<g id="LINE_45_">
			<line class="st1" x1="209.1" y1="401.6" x2="204.7" y2="407.6"/>
		</g>
	</g>
	<g>
		<g id="CIRCLE_4_">
			<path class="st1" d="M133.8,63.6c0-3.7,3-6.7,6.7-6.7s6.7,3,6.7,6.7c0,3.7-3,6.7-6.7,6.7S133.8,67.3,133.8,63.6L133.8,63.6z"/>
		</g>
		<g id="ARC_15_">
			<path class="st1" d="M185.9,78.9c5.9-17.5-3.5-36.5-21.1-42.4s-36.5,3.5-42.4,21.1S126,94,143.5,99.9c0.5,0.2,1.1,0.3,1.6,0.5"/>
		</g>
		<g id="LINE_8_">
			<line class="st1" x1="150.3" y1="165.6" x2="177.6" y2="165.9"/>
		</g>
		<g id="LINE_7_">
			<line class="st1" x1="150.2" y1="178.9" x2="150.3" y2="165.6"/>
		</g>
		<g id="LINE_6_">
			<line class="st1" x1="177.5" y1="179.2" x2="150.2" y2="178.9"/>
		</g>
		<g id="ARC_14_">
			<path class="st1" d="M177.5,179.2c0.7,58,18.5,114.4,51.2,162.3"/>
		</g>
		<g id="LINE_5_">
			<line class="st1" x1="206.5" y1="357.4" x2="228.7" y2="341.5"/>
		</g>
		<g id="LINE_4_">
			<line class="st1" x1="214.2" y1="368.2" x2="206.5" y2="357.4"/>
		</g>
		<g id="LINE_3_">
			<line class="st1" x1="236.4" y1="352.3" x2="214.2" y2="368.2"/>
		</g>
		<g id="ARC_13_">
			<path class="st1" d="M236.4,352.3c17.3,23.1,37.9,43.5,61.1,60.6"/>
		</g>
		<g id="ARC_12_">
			<path class="st1" d="M293.1,418.8c-14.4-10.6-34.5-8.1-45.8,5.8"/>
		</g>
		<g id="CIRCLE_2_">
			<path class="st1" d="M240.4,405.1c0-3.7,3-6.7,6.7-6.7s6.7,3,6.7,6.7s-3,6.7-6.7,6.7S240.4,408.8,240.4,405.1L240.4,405.1z"/>
		</g>
		<g id="ARC_11_">
			<path class="st1" d="M192.9,81.2c-9.2,27.3-14.3,55.8-15.3,84.7"/>
		</g>
		<g id="LINE_2_">
			<line class="st1" x1="192.9" y1="81.2" x2="185.9" y2="78.9"/>
		</g>
		<g id="ARC_10_">
			<path class="st1" d="M145.1,100.4C117.9,219,157,343,247.3,424.6"/>
		</g>
		<g id="LINE_1_">
			<line class="st1" x1="297.5" y1="412.9" x2="293.1" y2="418.8"/>
		</g>
	</g>
	<g>
		<g id="CIRCLE_6_">
			<path class="st1" d="M217.9,63.6c0-3.7,3-6.7,6.7-6.7s6.7,3,6.7,6.7c0,3.7-3,6.7-6.7,6.7S217.9,67.3,217.9,63.6L217.9,63.6z"/>
		</g>
		<g id="ARC_21_">
			<path class="st1" d="M270,78.9c5.9-17.5-3.5-36.5-21.1-42.4s-36.5,3.5-42.4,21.1C200.6,75,210,94,227.5,99.9
				c0.5,0.2,1.1,0.3,1.6,0.5"/>
		</g>
		<g id="LINE_16_">
			<line class="st1" x1="234.3" y1="165.6" x2="261.7" y2="165.9"/>
		</g>
		<g id="LINE_15_">
			<line class="st1" x1="234.2" y1="178.9" x2="234.3" y2="165.6"/>
		</g>
		<g id="LINE_14_">
			<line class="st1" x1="261.5" y1="179.2" x2="234.2" y2="178.9"/>
		</g>
		<g id="ARC_20_">
			<path class="st1" d="M261.5,179.2c0.7,58,18.5,114.4,51.2,162.3"/>
		</g>
		<g id="LINE_13_">
			<line class="st1" x1="290.5" y1="357.4" x2="312.7" y2="341.5"/>
		</g>
		<g id="LINE_12_">
			<line class="st1" x1="298.2" y1="368.2" x2="290.5" y2="357.4"/>
		</g>
		<g id="LINE_11_">
			<line class="st1" x1="320.4" y1="352.3" x2="298.2" y2="368.2"/>
		</g>
		<g id="ARC_19_">
			<path class="st1" d="M320.4,352.3c17.3,23.1,37.9,43.5,61.1,60.6"/>
		</g>
		<g id="ARC_18_">
			<path class="st1" d="M377.2,418.8c-14.4-10.6-34.5-8.1-45.8,5.8"/>
		</g>
		<g id="CIRCLE_5_">
			<path class="st1" d="M324.5,405.1c0-3.7,3-6.7,6.7-6.7c3.7,0,6.7,3,6.7,6.7s-3,6.7-6.7,6.7C327.5,411.8,324.5,408.8,324.5,405.1
				L324.5,405.1z"/>
		</g>
		<g id="ARC_17_">
			<path class="st1" d="M276.9,81.2c-9.2,27.3-14.3,55.8-15.3,84.7"/>
		</g>
		<g id="LINE_10_">
			<line class="st1" x1="276.9" y1="81.2" x2="270" y2="78.9"/>
		</g>
		<g id="ARC_16_">
			<path class="st1" d="M229.1,100.4C202,219,241.1,343,331.3,424.6"/>
		</g>
		<g id="LINE_9_">
			<line class="st1" x1="381.5" y1="412.9" x2="377.2" y2="418.8"/>
		</g>
	</g>
	<g>
		<g id="CIRCLE_8_">
			<path class="st1" d="M290.1,63.6c0-3.7,3-6.7,6.7-6.7s6.7,3,6.7,6.7c0,3.7-3,6.7-6.7,6.7S290.1,67.3,290.1,63.6L290.1,63.6z"/>
		</g>
		<g id="ARC_27_">
			<path class="st1" d="M342.2,78.9c5.9-17.5-3.5-36.5-21.1-42.4c-17.5-5.9-36.5,3.5-42.4,21.1c-5.9,17.5,3.5,36.5,21.1,42.4
				c0.5,0.2,1.1,0.3,1.6,0.5"/>
		</g>
		<g id="LINE_24_">
			<line class="st1" x1="306.6" y1="165.6" x2="333.9" y2="165.9"/>
		</g>
		<g id="LINE_23_">
			<line class="st1" x1="306.4" y1="178.9" x2="306.6" y2="165.6"/>
		</g>
		<g id="LINE_22_">
			<line class="st1" x1="333.8" y1="179.2" x2="306.4" y2="178.9"/>
		</g>
		<g id="ARC_26_">
			<path class="st1" d="M333.8,179.2c0.7,58,18.5,114.4,51.2,162.3"/>
		</g>
		<g id="LINE_21_">
			<line class="st1" x1="362.7" y1="357.4" x2="385" y2="341.5"/>
		</g>
		<g id="LINE_20_">
			<line class="st1" x1="370.4" y1="368.2" x2="362.7" y2="357.4"/>
		</g>
		<g id="LINE_19_">
			<line class="st1" x1="392.7" y1="352.3" x2="370.4" y2="368.2"/>
		</g>
		<g id="ARC_25_">
			<path class="st1" d="M392.7,352.3c17.3,23.1,37.9,43.5,61.1,60.6"/>
		</g>
		<g id="ARC_24_">
			<path class="st1" d="M449.4,418.8c-14.4-10.6-34.5-8.1-45.8,5.8"/>
		</g>
		<g id="CIRCLE_7_">
			<path class="st1" d="M396.7,405.1c0-3.7,3-6.7,6.7-6.7s6.7,3,6.7,6.7s-3,6.7-6.7,6.7S396.7,408.8,396.7,405.1L396.7,405.1z"/>
		</g>
		<g id="ARC_23_">
			<path class="st1" d="M349.2,81.2c-9.2,27.3-14.3,55.8-15.3,84.7"/>
		</g>
		<g id="LINE_18_">
			<line class="st1" x1="349.2" y1="81.2" x2="342.2" y2="78.9"/>
		</g>
		<g id="ARC_22_">
			<path class="st1" d="M301.4,100.4C274.2,219,313.3,343,403.6,424.6"/>
		</g>
		<g id="LINE_17_">
			<line class="st1" x1="453.8" y1="412.9" x2="449.4" y2="418.8"/>
		</g>
	</g>
	<g>
		<g id="CIRCLE_10_">
			<path class="st1" d="M364.1,63.6c0-3.7,3-6.7,6.7-6.7s6.7,3,6.7,6.7c0,3.7-3,6.7-6.7,6.7S364.1,67.3,364.1,63.6L364.1,63.6z"/>
		</g>
		<g id="ARC_33_">
			<path class="st1" d="M416.2,78.9c5.9-17.5-3.5-36.5-21.1-42.4s-36.5,3.5-42.4,21.1s3.5,36.5,21.1,42.4c0.5,0.2,1.1,0.3,1.6,0.5"
				/>
		</g>
		<g id="LINE_32_">
			<line class="st1" x1="380.6" y1="165.6" x2="408" y2="165.9"/>
		</g>
		<g id="LINE_31_">
			<line class="st1" x1="380.5" y1="178.9" x2="380.6" y2="165.6"/>
		</g>
		<g id="LINE_30_">
			<line class="st1" x1="407.8" y1="179.2" x2="380.5" y2="178.9"/>
		</g>
		<g id="ARC_32_">
			<path class="st1" d="M407.8,179.2c0.7,58,18.5,114.4,51.2,162.3"/>
		</g>
		<g id="LINE_29_">
			<line class="st1" x1="436.8" y1="357.4" x2="459" y2="341.5"/>
		</g>
		<g id="LINE_28_">
			<line class="st1" x1="444.5" y1="368.2" x2="436.8" y2="357.4"/>
		</g>
		<g id="LINE_27_">
			<line class="st1" x1="466.7" y1="352.3" x2="444.5" y2="368.2"/>
		</g>
		<g id="ARC_31_">
			<path class="st1" d="M466.7,352.3c17.3,23.1,37.9,43.5,61.1,60.6"/>
		</g>
		<g id="ARC_30_">
			<path class="st1" d="M523.4,418.8c-14.4-10.6-34.5-8.1-45.8,5.8"/>
		</g>
		<g id="CIRCLE_9_">
			<path class="st1" d="M470.7,405.1c0-3.7,3-6.7,6.7-6.7s6.7,3,6.7,6.7s-3,6.7-6.7,6.7S470.7,408.8,470.7,405.1L470.7,405.1z"/>
		</g>
		<g id="ARC_29_">
			<path class="st1" d="M423.2,81.2c-9.2,27.3-14.3,55.8-15.3,84.7"/>
		</g>
		<g id="LINE_26_">
			<line class="st1" x1="423.2" y1="81.2" x2="416.2" y2="78.9"/>
		</g>
		<g id="ARC_28_">
			<path class="st1" d="M375.4,100.4C348.3,219,387.3,343,477.6,424.6"/>
		</g>
		<g id="LINE_25_">
			<line class="st1" x1="527.8" y1="412.9" x2="523.4" y2="418.8"/>
		</g>
	</g>
	<g>
		<g id="CIRCLE_20_">
			<path class="st1" d="M446.6,63.6c0-3.7,3-6.7,6.7-6.7s6.7,3,6.7,6.7c0,3.7-3,6.7-6.7,6.7S446.6,67.3,446.6,63.6L446.6,63.6z"/>
		</g>
		<g id="ARC_69_">
			<path class="st1" d="M498.7,78.9c5.9-17.5-3.5-36.5-21.1-42.4c-17.5-5.9-36.5,3.5-42.4,21.1c-5.9,17.5,3.5,36.5,21.1,42.4
				c0.5,0.2,1.1,0.3,1.6,0.5"/>
		</g>
		<g id="LINE_80_">
			<line class="st1" x1="463" y1="165.6" x2="490.4" y2="165.9"/>
		</g>
		<g id="LINE_79_">
			<line class="st1" x1="462.9" y1="178.9" x2="463" y2="165.6"/>
		</g>
		<g id="LINE_78_">
			<line class="st1" x1="490.3" y1="179.2" x2="462.9" y2="178.9"/>
		</g>
		<g id="ARC_68_">
			<path class="st1" d="M490.3,179.2c0.7,58,18.5,114.4,51.2,162.3"/>
		</g>
		<g id="LINE_77_">
			<line class="st1" x1="519.2" y1="357.4" x2="541.4" y2="341.5"/>
		</g>
		<g id="LINE_76_">
			<line class="st1" x1="526.9" y1="368.2" x2="519.2" y2="357.4"/>
		</g>
		<g id="LINE_75_">
			<line class="st1" x1="549.2" y1="352.3" x2="526.9" y2="368.2"/>
		</g>
		<g id="ARC_67_">
			<path class="st1" d="M549.2,352.3c17.3,23.1,37.9,43.5,61.1,60.6"/>
		</g>
		<g id="ARC_66_">
			<path class="st1" d="M605.9,418.8c-14.4-10.6-34.5-8.1-45.8,5.8"/>
		</g>
		<g id="CIRCLE_19_">
			<path class="st1" d="M553.2,405.1c0-3.7,3-6.7,6.7-6.7s6.7,3,6.7,6.7s-3,6.7-6.7,6.7S553.2,408.8,553.2,405.1L553.2,405.1z"/>
		</g>
		<g id="ARC_65_">
			<path class="st1" d="M505.7,81.2c-9.2,27.3-14.3,55.8-15.3,84.7"/>
		</g>
		<g id="LINE_74_">
			<line class="st1" x1="505.7" y1="81.2" x2="498.7" y2="78.9"/>
		</g>
		<g id="ARC_64_">
			<path class="st1" d="M457.8,100.4C430.7,219,469.8,343,560,424.6"/>
		</g>
		<g id="LINE_73_">
			<line class="st1" x1="610.2" y1="412.9" x2="605.9" y2="418.8"/>
		</g>
	</g>
	<g>
		<g id="CIRCLE_18_">
			<path class="st1" d="M535,74.8c0-3.7,3-6.7,6.7-6.7s6.7,3,6.7,6.7c0,3.7-3,6.7-6.7,6.7S535,78.5,535,74.8L535,74.8z"/>
		</g>
		<g id="ARC_63_">
			<path class="st1" d="M587.1,90.1c5.9-17.5-3.5-36.5-21.1-42.4s-36.5,3.5-42.4,21.1c-5.9,17.5,3.5,36.5,21.1,42.4
				c0.5,0.2,1.1,0.3,1.6,0.5"/>
		</g>
		<g id="LINE_72_">
			<line class="st1" x1="551.5" y1="176.9" x2="578.8" y2="177.1"/>
		</g>
		<g id="LINE_71_">
			<line class="st1" x1="551.3" y1="190.2" x2="551.5" y2="176.9"/>
		</g>
		<g id="LINE_70_">
			<line class="st1" x1="578.7" y1="190.4" x2="551.3" y2="190.2"/>
		</g>
		<g id="ARC_62_">
			<path class="st1" d="M578.7,190.4c0.7,58,18.5,114.4,51.2,162.3"/>
		</g>
		<g id="LINE_69_">
			<line class="st1" x1="607.6" y1="368.7" x2="629.9" y2="352.8"/>
		</g>
		<g id="LINE_68_">
			<line class="st1" x1="615.3" y1="379.5" x2="607.6" y2="368.7"/>
		</g>
		<g id="LINE_67_">
			<line class="st1" x1="637.6" y1="363.6" x2="615.3" y2="379.5"/>
		</g>
		<g id="ARC_61_">
			<path class="st1" d="M637.6,363.6c17.3,23.1,37.9,43.5,61.1,60.6"/>
		</g>
		<g id="ARC_60_">
			<path class="st1" d="M694.3,430.1c-14.4-10.6-34.5-8.1-45.8,5.8"/>
		</g>
		<g id="CIRCLE_17_">
			<path class="st1" d="M641.6,416.4c0-3.7,3-6.7,6.7-6.7s6.7,3,6.7,6.7s-3,6.7-6.7,6.7S641.6,420.1,641.6,416.4L641.6,416.4z"/>
		</g>
		<g id="ARC_59_">
			<path class="st1" d="M594.1,92.5c-9.2,27.3-14.3,55.8-15.3,84.7"/>
		</g>
		<g id="LINE_66_">
			<line class="st1" x1="594.1" y1="92.5" x2="587.1" y2="90.1"/>
		</g>
		<g id="ARC_58_">
			<path class="st1" d="M546.2,111.7c-27.2,118.6,11.9,242.6,102.2,324.2"/>
		</g>
		<g id="LINE_65_">
			<line class="st1" x1="698.6" y1="424.2" x2="694.3" y2="430.1"/>
		</g>
	</g>
	<g>
		<g id="CIRCLE_16_">
			<path class="st1" d="M619,74.8c0-3.7,3-6.7,6.7-6.7s6.7,3,6.7,6.7c0,3.7-3,6.7-6.7,6.7S619,78.5,619,74.8L619,74.8z"/>
		</g>
		<g id="ARC_57_">
			<path class="st1" d="M671.1,90.1c5.9-17.5-3.5-36.5-21.1-42.4c-17.5-5.9-36.5,3.5-42.4,21.1c-5.9,17.5,3.5,36.5,21.1,42.4
				c0.5,0.2,1.1,0.3,1.6,0.5"/>
		</g>
		<g id="LINE_64_">
			<line class="st1" x1="635.5" y1="176.9" x2="662.8" y2="177.1"/>
		</g>
		<g id="LINE_63_">
			<line class="st1" x1="635.4" y1="190.2" x2="635.5" y2="176.9"/>
		</g>
		<g id="LINE_62_">
			<line class="st1" x1="662.7" y1="190.4" x2="635.4" y2="190.2"/>
		</g>
		<g id="ARC_56_">
			<path class="st1" d="M662.7,190.4c0.7,58,18.5,114.4,51.2,162.3"/>
		</g>
		<g id="LINE_61_">
			<line class="st1" x1="691.6" y1="368.7" x2="713.9" y2="352.8"/>
		</g>
		<g id="LINE_60_">
			<line class="st1" x1="699.4" y1="379.5" x2="691.6" y2="368.7"/>
		</g>
		<g id="LINE_59_">
			<line class="st1" x1="721.6" y1="363.6" x2="699.4" y2="379.5"/>
		</g>
		<g id="ARC_55_">
			<path class="st1" d="M721.6,363.6c17.3,23.1,37.9,43.5,61.1,60.6"/>
		</g>
		<g id="ARC_48_">
			<path class="st1" d="M778.3,430.1c-14.4-10.6-34.5-8.1-45.8,5.8"/>
		</g>
		<g id="CIRCLE_15_">
			<path class="st1" d="M725.6,416.4c0-3.7,3-6.7,6.7-6.7s6.7,3,6.7,6.7s-3,6.7-6.7,6.7S725.6,420.1,725.6,416.4L725.6,416.4z"/>
		</g>
		<g id="ARC_47_">
			<path class="st1" d="M678.1,92.5c-9.2,27.3-14.3,55.8-15.3,84.7"/>
		</g>
		<g id="LINE_58_">
			<line class="st1" x1="678.1" y1="92.5" x2="671.1" y2="90.1"/>
		</g>
		<g id="ARC_46_">
			<path class="st1" d="M630.3,111.7c-27.1,118.6,11.9,242.6,102.2,324.2"/>
		</g>
		<g id="LINE_57_">
			<line class="st1" x1="782.7" y1="424.2" x2="778.3" y2="430.1"/>
		</g>
	</g>
	<g>
		<g id="CIRCLE_14_">
			<path class="st1" d="M691.3,74.8c0-3.7,3-6.7,6.7-6.7s6.7,3,6.7,6.7c0,3.7-3,6.7-6.7,6.7S691.3,78.5,691.3,74.8L691.3,74.8z"/>
		</g>
		<g id="ARC_45_">
			<path class="st1" d="M743.4,90.1c5.9-17.5-3.5-36.5-21.1-42.4s-36.5,3.5-42.4,21.1c-5.9,17.5,3.5,36.5,21.1,42.4
				c0.5,0.2,1.1,0.3,1.6,0.5"/>
		</g>
		<g id="LINE_56_">
			<line class="st1" x1="707.7" y1="176.9" x2="735.1" y2="177.1"/>
		</g>
		<g id="LINE_55_">
			<line class="st1" x1="707.6" y1="190.2" x2="707.7" y2="176.9"/>
		</g>
		<g id="LINE_54_">
			<line class="st1" x1="734.9" y1="190.4" x2="707.6" y2="190.2"/>
		</g>
		<g id="ARC_44_">
			<path class="st1" d="M734.9,190.4c0.7,58,18.5,114.4,51.2,162.3"/>
		</g>
		<g id="LINE_53_">
			<line class="st1" x1="763.9" y1="368.7" x2="786.1" y2="352.8"/>
		</g>
		<g id="LINE_44_">
			<line class="st1" x1="771.6" y1="379.5" x2="763.9" y2="368.7"/>
		</g>
		<g id="LINE_43_">
			<line class="st1" x1="793.8" y1="363.6" x2="771.6" y2="379.5"/>
		</g>
		<g id="ARC_43_">
			<path class="st1" d="M793.8,363.6c17.3,23.1,37.9,43.5,61.1,60.6"/>
		</g>
		<g id="ARC_42_">
			<path class="st1" d="M850.6,430.1c-14.4-10.6-34.5-8.1-45.8,5.8"/>
		</g>
		<g id="CIRCLE_13_">
			<path class="st1" d="M797.9,416.4c0-3.7,3-6.7,6.7-6.7s6.7,3,6.7,6.7s-3,6.7-6.7,6.7S797.9,420.1,797.9,416.4L797.9,416.4z"/>
		</g>
		<g id="ARC_41_">
			<path class="st1" d="M750.4,92.5c-9.2,27.3-14.3,55.8-15.3,84.7"/>
		</g>
		<g id="LINE_42_">
			<line class="st1" x1="750.4" y1="92.5" x2="743.4" y2="90.1"/>
		</g>
		<g id="ARC_40_">
			<path class="st1" d="M702.5,111.7c-27.1,118.6,11.9,242.6,102.2,324.2"/>
		</g>
		<g id="LINE_41_">
			<line class="st1" x1="854.9" y1="424.2" x2="850.6" y2="430.1"/>
		</g>
	</g>
	<g>
		<g id="CIRCLE_12_">
			<path class="st1" d="M765.3,74.8c0-3.7,3-6.7,6.7-6.7s6.7,3,6.7,6.7c0,3.7-3,6.7-6.7,6.7S765.3,78.5,765.3,74.8L765.3,74.8z"/>
		</g>
		<g id="ARC_39_">
			<path class="st1" d="M817.4,90.1c5.9-17.5-3.5-36.5-21.1-42.4c-17.5-5.9-36.5,3.5-42.4,21.1c-5.9,17.5,3.5,36.5,21.1,42.4
				c0.5,0.2,1.1,0.3,1.6,0.5"/>
		</g>
		<g id="LINE_40_">
			<line class="st1" x1="781.8" y1="176.9" x2="809.1" y2="177.1"/>
		</g>
		<g id="LINE_39_">
			<line class="st1" x1="781.6" y1="190.2" x2="781.8" y2="176.9"/>
		</g>
		<g id="LINE_38_">
			<line class="st1" x1="809" y1="190.4" x2="781.6" y2="190.2"/>
		</g>
		<g id="ARC_38_">
			<path class="st1" d="M809,190.4c0.7,58,18.5,114.4,51.2,162.3"/>
		</g>
		<g id="LINE_37_">
			<line class="st1" x1="837.9" y1="368.7" x2="860.2" y2="352.8"/>
		</g>
		<g id="LINE_36_">
			<line class="st1" x1="845.6" y1="379.5" x2="837.9" y2="368.7"/>
		</g>
		<g id="LINE_35_">
			<line class="st1" x1="867.9" y1="363.6" x2="845.6" y2="379.5"/>
		</g>
		<g id="ARC_37_">
			<path class="st1" d="M867.9,363.6c17.3,23.1,37.9,43.5,61.1,60.6"/>
		</g>
		<g id="ARC_36_">
			<path class="st1" d="M924.6,430.1c-14.4-10.6-34.5-8.1-45.8,5.8"/>
		</g>
		<g id="CIRCLE_11_">
			<path class="st1" d="M871.9,416.4c0-3.7,3-6.7,6.7-6.7c3.7,0,6.7,3,6.7,6.7s-3,6.7-6.7,6.7C874.9,423.1,871.9,420.1,871.9,416.4
				L871.9,416.4z"/>
		</g>
		<g id="ARC_35_">
			<path class="st1" d="M824.4,92.5c-9.2,27.3-14.3,55.8-15.3,84.7"/>
		</g>
		<g id="LINE_34_">
			<line class="st1" x1="824.4" y1="92.5" x2="817.4" y2="90.1"/>
		</g>
		<g id="ARC_34_">
			<path class="st1" d="M776.6,111.7c-27.1,118.6,11.9,242.6,102.2,324.2"/>
		</g>
		<g id="LINE_33_">
			<line class="st1" x1="929" y1="424.2" x2="924.6" y2="430.1"/>
		</g>
	</g>
	<g>
		<g id="CIRCLE_26_">
			<path class="st1" d="M960.3,487c-1.7-3.3-0.3-7.3,3-9c3.3-1.7,7.3-0.3,9,3c1.7,3.3,0.3,7.3-3,9C966,491.6,962,490.3,960.3,487
				L960.3,487z"/>
		</g>
		<g id="ARC_114_">
			<path class="st1" d="M1013.8,477.4c-2.6-18.3-19.5-31.1-37.8-28.6s-31.1,19.5-28.6,37.8c2.6,18.3,19.5,31.1,37.8,28.6
				c0.6-0.1,1.1-0.2,1.6-0.3"/>
		</g>
		<g id="LINE_156_">
			<line class="st1" x1="1020.6" y1="570.9" x2="1045.2" y2="558.9"/>
		</g>
		<g id="LINE_155_">
			<line class="st1" x1="1026.5" y1="582.8" x2="1020.6" y2="570.9"/>
		</g>
		<g id="LINE_154_">
			<line class="st1" x1="1051" y1="570.9" x2="1026.5" y2="582.8"/>
		</g>
		<g id="ARC_113_">
			<path class="st1" d="M1051,570.9c26.6,51.5,67.7,94.1,118.3,122.4"/>
		</g>
		<g id="LINE_153_">
			<line class="st1" x1="1156.6" y1="717.4" x2="1169.4" y2="693.3"/>
		</g>
		<g id="LINE_152_">
			<line class="st1" x1="1168.3" y1="723.6" x2="1156.6" y2="717.4"/>
		</g>
		<g id="LINE_151_">
			<line class="st1" x1="1181.1" y1="699.5" x2="1168.3" y2="723.6"/>
		</g>
		<g id="ARC_112_">
			<path class="st1" d="M1181.1,699.5c25.8,12.9,53.3,22,81.7,26.9"/>
		</g>
		<g id="ARC_111_">
			<path class="st1" d="M1261.5,733.6c-17.6-3.1-34.5,8.2-38.4,25.6"/>
		</g>
		<g id="CIRCLE_25_">
			<path class="st1" d="M1208.3,744.9c-1.7-3.3-0.3-7.3,3-9s7.3-0.3,9,3c1.7,3.3,0.3,7.3-3,9
				C1213.9,749.6,1209.9,748.2,1208.3,744.9L1208.3,744.9z"/>
		</g>
		<g id="ARC_110_">
			<path class="st1" d="M1021.1,476.4c4,28.6,12.1,56.4,24.2,82.6"/>
		</g>
		<g id="LINE_150_">
			<line class="st1" x1="1021.1" y1="476.4" x2="1013.8" y2="477.4"/>
		</g>
		<g id="ARC_109_">
			<path class="st1" d="M986.9,514.9c28.7,118.2,119.1,211.7,236.3,244.4"/>
		</g>
		<g id="LINE_149_">
			<line class="st1" x1="1262.8" y1="726.4" x2="1261.5" y2="733.6"/>
		</g>
	</g>
	<g>
		<g id="CIRCLE_24_">
			<path class="st1" d="M1044.5,457.6c-1.7-3.3-0.3-7.3,3-9c3.3-1.7,7.3-0.3,9,3c1.7,3.3,0.3,7.3-3,9
				C1050.1,462.2,1046.1,460.9,1044.5,457.6L1044.5,457.6z"/>
		</g>
		<g id="ARC_108_">
			<path class="st1" d="M1097.9,448c-2.6-18.3-19.5-31.1-37.8-28.6c-18.3,2.6-31.1,19.5-28.6,37.8c2.6,18.3,19.5,31.1,37.8,28.6
				c0.6-0.1,1.1-0.2,1.6-0.3"/>
		</g>
		<g id="LINE_148_">
			<line class="st1" x1="1104.8" y1="541.5" x2="1129.4" y2="529.5"/>
		</g>
		<g id="LINE_147_">
			<line class="st1" x1="1110.6" y1="553.4" x2="1104.8" y2="541.5"/>
		</g>
		<g id="LINE_146_">
			<line class="st1" x1="1135.2" y1="541.5" x2="1110.6" y2="553.4"/>
		</g>
		<g id="ARC_107_">
			<path class="st1" d="M1135.2,541.5c26.6,51.5,67.7,94.1,118.3,122.4"/>
		</g>
		<g id="LINE_145_">
			<line class="st1" x1="1240.7" y1="688" x2="1253.5" y2="663.8"/>
		</g>
		<g id="LINE_144_">
			<line class="st1" x1="1252.4" y1="694.2" x2="1240.7" y2="688"/>
		</g>
		<g id="LINE_143_">
			<line class="st1" x1="1265.2" y1="670" x2="1252.4" y2="694.2"/>
		</g>
		<g id="ARC_106_">
			<path class="st1" d="M1265.2,670c25.8,12.9,53.3,22,81.7,26.9"/>
		</g>
		<g id="ARC_105_">
			<path class="st1" d="M1345.7,704.2c-17.6-3.1-34.5,8.2-38.4,25.6"/>
		</g>
		<g id="CIRCLE_23_">
			<path class="st1" d="M1292.4,715.5c-1.7-3.3-0.3-7.3,3-9c3.3-1.7,7.3-0.3,9,3s0.3,7.3-3,9C1298.1,720.2,1294,718.8,1292.4,715.5
				L1292.4,715.5z"/>
		</g>
		<g id="ARC_104_">
			<path class="st1" d="M1105.2,447c4,28.6,12.1,56.4,24.2,82.6"/>
		</g>
		<g id="LINE_142_">
			<line class="st1" x1="1105.2" y1="447" x2="1097.9" y2="448"/>
		</g>
		<g id="ARC_103_">
			<path class="st1" d="M1071,485.5c28.7,118.2,119.1,211.7,236.3,244.4"/>
		</g>
		<g id="LINE_141_">
			<line class="st1" x1="1346.9" y1="697" x2="1345.7" y2="704.2"/>
		</g>
	</g>
	<g>
		<g id="CIRCLE_22_">
			<path class="st1" d="M1119.6,420c-1.7-3.3-0.3-7.3,3-9c3.3-1.7,7.3-0.3,9,3s0.3,7.3-3,9C1125.3,424.7,1121.3,423.3,1119.6,420
				L1119.6,420z"/>
		</g>
		<g id="ARC_102_">
			<path class="st1" d="M1173.1,410.4c-2.6-18.3-19.5-31.1-37.8-28.6c-18.3,2.6-31.1,19.5-28.6,37.8c2.6,18.3,19.5,31.1,37.8,28.6
				c0.6-0.1,1.1-0.2,1.6-0.3"/>
		</g>
		<g id="LINE_140_">
			<line class="st1" x1="1180" y1="504" x2="1204.5" y2="492"/>
		</g>
		<g id="LINE_139_">
			<line class="st1" x1="1185.8" y1="515.9" x2="1180" y2="504"/>
		</g>
		<g id="LINE_138_">
			<line class="st1" x1="1210.3" y1="503.9" x2="1185.8" y2="515.9"/>
		</g>
		<g id="ARC_101_">
			<path class="st1" d="M1210.3,503.9c26.6,51.5,67.7,94.1,118.3,122.4"/>
		</g>
		<g id="LINE_137_">
			<line class="st1" x1="1315.9" y1="650.5" x2="1328.7" y2="626.3"/>
		</g>
		<g id="LINE_136_">
			<line class="st1" x1="1327.6" y1="656.7" x2="1315.9" y2="650.5"/>
		</g>
		<g id="LINE_135_">
			<line class="st1" x1="1340.4" y1="632.5" x2="1327.6" y2="656.7"/>
		</g>
		<g id="ARC_100_">
			<path class="st1" d="M1340.4,632.5c25.8,12.9,53.3,22,81.7,26.9"/>
		</g>
		<g id="ARC_99_">
			<path class="st1" d="M1420.8,666.7c-17.6-3.1-34.5,8.2-38.4,25.6"/>
		</g>
		<g id="CIRCLE_21_">
			<path class="st1" d="M1367.6,678c-1.7-3.3-0.3-7.3,3-9c3.3-1.7,7.3-0.3,9,3c1.7,3.3,0.3,7.3-3,9
				C1373.3,682.6,1369.2,681.3,1367.6,678L1367.6,678z"/>
		</g>
		<g id="ARC_98_">
			<path class="st1" d="M1180.4,409.4c4,28.6,12.1,56.4,24.2,82.6"/>
		</g>
		<g id="LINE_134_">
			<line class="st1" x1="1180.4" y1="409.4" x2="1173.1" y2="410.4"/>
		</g>
		<g id="ARC_97_">
			<path class="st1" d="M1146.2,448c28.7,118.2,119.1,211.7,236.3,244.4"/>
		</g>
		<g id="LINE_133_">
			<line class="st1" x1="1422.1" y1="659.4" x2="1420.8" y2="666.7"/>
		</g>
	</g>
</g>
<g id="_x30_">
</g>
</svg>
