<?xml version="1.0" encoding="utf-8"?>
<!-- Generator: Adobe Illustrator 21.0.2, SVG Export Plug-In . SVG Version: 6.00 Build 0)  -->
<svg version="1.1" id="Layer_1" xmlns="http://www.w3.org/2000/svg" xmlns:xlink="http://www.w3.org/1999/xlink" x="0px" y="0px"
	 viewBox="0 0 612 278" style="enable-background:new 0 0 612 278;" xml:space="preserve">
<style type="text/css">
	.st0{fill:none;}
	.st1{fill:#282525;}
	.st2{fill:#FFFFFF;}
</style>
<line class="st0" x1="-29" y1="804" x2="-29" y2="12"/>
<g>
	<g>
		<rect x="269" y="207.8" width="160" height="22"/>
	</g>
	<g>
		<path class="st1" d="M274.1,83.6v-0.7c0.6-0.1,1.1-0.2,1.3-0.3c0.3-0.1,0.4-0.5,0.6-1h0.7v7h-0.9v-5H274.1z"/>
	</g>
	<g>
		<path class="st1" d="M273.8,101.3c0.2-0.4,0.6-0.9,1.3-1.2l0.9-0.5c0.4-0.2,0.7-0.5,0.9-0.6c0.3-0.3,0.4-0.6,0.4-0.9
			c0-0.4-0.1-0.7-0.4-1s-0.6-0.4-1-0.4c-0.6,0-1,0.2-1.2,0.7c-0.1,0.2-0.2,0.6-0.2,1h-0.9c0-0.6,0.1-1.1,0.3-1.5c0.4-0.7,1.1-1,2-1
			c0.8,0,1.4,0.2,1.8,0.6c0.4,0.4,0.6,0.9,0.6,1.4c0,0.6-0.2,1-0.6,1.4c-0.2,0.2-0.6,0.5-1.2,0.8l-0.7,0.4c-0.3,0.2-0.6,0.3-0.8,0.5
			c-0.3,0.3-0.5,0.6-0.6,0.9h3.8v0.8h-4.8C273.4,102.3,273.6,101.8,273.8,101.3z"/>
	</g>
	<g>
		<path class="st1" d="M273.9,116.8c-0.4-0.5-0.6-1-0.6-1.7h0.9c0,0.5,0.1,0.8,0.3,1c0.2,0.4,0.6,0.6,1.2,0.6c0.5,0,0.8-0.1,1.1-0.4
			c0.3-0.2,0.4-0.6,0.4-1c0-0.5-0.1-0.8-0.4-1c-0.3-0.2-0.7-0.3-1.2-0.3c-0.1,0-0.1,0-0.2,0c-0.1,0-0.1,0-0.2,0v-0.8
			c0.1,0,0.2,0,0.2,0c0.1,0,0.1,0,0.2,0c0.3,0,0.6-0.1,0.8-0.2c0.4-0.2,0.6-0.5,0.6-1c0-0.3-0.1-0.6-0.4-0.8
			c-0.2-0.2-0.5-0.3-0.9-0.3c-0.6,0-1,0.2-1.2,0.6c-0.1,0.2-0.2,0.5-0.2,0.9h-0.9c0-0.5,0.1-1,0.3-1.3c0.4-0.7,1-1,1.9-1
			c0.7,0,1.3,0.2,1.7,0.5s0.6,0.8,0.6,1.4c0,0.4-0.1,0.8-0.3,1c-0.1,0.2-0.3,0.3-0.6,0.4c0.4,0.1,0.7,0.3,0.9,0.6
			c0.2,0.3,0.3,0.6,0.3,1.1c0,0.7-0.2,1.2-0.7,1.6s-1.1,0.6-1.9,0.6C274.9,117.5,274.3,117.3,273.9,116.8z"/>
	</g>
	<g>
		<path class="st1" d="M276.4,131.7V130h-3.1v-0.9l3.2-4.4h0.7v4.5h1v0.8h-1v1.7H276.4z M276.4,129.2v-3.2l-2.2,3.2H276.4z"/>
	</g>
	<g>
		<path class="st1" d="M274.3,144.3c0.1,0.5,0.3,0.8,0.7,1c0.2,0.1,0.4,0.1,0.7,0.1c0.5,0,0.9-0.2,1.2-0.5c0.3-0.3,0.4-0.7,0.4-1.1
			c0-0.5-0.1-0.9-0.4-1.1c-0.3-0.3-0.7-0.4-1.1-0.4c-0.3,0-0.6,0.1-0.8,0.2s-0.4,0.3-0.6,0.5l-0.8,0l0.5-3.8h3.6v0.9h-3l-0.3,1.9
			c0.2-0.1,0.3-0.2,0.5-0.3c0.3-0.1,0.6-0.2,0.9-0.2c0.6,0,1.2,0.2,1.6,0.6c0.4,0.4,0.7,0.9,0.7,1.6c0,0.7-0.2,1.2-0.6,1.7
			c-0.4,0.5-1.1,0.8-2,0.8c-0.6,0-1.1-0.2-1.5-0.5s-0.7-0.8-0.7-1.5H274.3z"/>
	</g>
	<g>
		<path class="st1" d="M277.7,154.1c0.3,0.4,0.5,0.8,0.5,1.3h-0.9c-0.1-0.3-0.1-0.5-0.2-0.6c-0.2-0.3-0.5-0.4-1-0.4
			c-0.5,0-0.9,0.2-1.2,0.7s-0.5,1.1-0.5,2c0.2-0.3,0.5-0.5,0.8-0.7c0.3-0.1,0.6-0.2,0.9-0.2c0.6,0,1.1,0.2,1.5,0.6
			c0.4,0.4,0.7,0.9,0.7,1.7c0,0.6-0.2,1.2-0.6,1.7c-0.4,0.5-1,0.7-1.8,0.7c-0.7,0-1.2-0.2-1.7-0.7s-0.7-1.3-0.7-2.5
			c0-0.9,0.1-1.6,0.3-2.2c0.4-1.2,1.2-1.7,2.2-1.7C276.8,153.5,277.3,153.7,277.7,154.1z M277,159.4c0.2-0.3,0.3-0.7,0.3-1.1
			c0-0.4-0.1-0.7-0.3-1c-0.2-0.3-0.6-0.5-1.1-0.5c-0.4,0-0.7,0.1-1,0.4c-0.3,0.3-0.4,0.6-0.4,1.1c0,0.4,0.1,0.8,0.4,1.1
			s0.6,0.5,1.1,0.5C276.4,159.9,276.8,159.8,277,159.4z"/>
	</g>
	<g>
		<path class="st1" d="M278.3,168v0.8c-0.2,0.2-0.5,0.6-0.9,1.1c-0.4,0.5-0.7,1.1-1,1.7c-0.3,0.6-0.5,1.2-0.6,1.7
			c-0.1,0.3-0.2,0.8-0.4,1.6h-1c0.2-1.3,0.7-2.7,1.5-4c0.4-0.8,0.9-1.4,1.4-2h-3.9V168H278.3z"/>
	</g>
	<g>
		<path class="st1" d="M313.3,83.6v-0.7c0.6-0.1,1.1-0.2,1.3-0.3c0.3-0.1,0.4-0.5,0.6-1h0.7v7H315v-5H313.3z"/>
		<path class="st1" d="M321.2,88.5v-1.7h-3.1v-0.9l3.2-4.4h0.7V86h1v0.8h-1v1.7H321.2z M321.2,86v-3.2L319,86H321.2z"/>
	</g>
	<g>
		<path class="st1" d="M313.3,98v-0.7c0.6-0.1,1.1-0.2,1.3-0.3c0.3-0.1,0.4-0.5,0.6-1h0.7v7H315v-5H313.3z"/>
		<path class="st1" d="M318.7,102.4c-0.4-0.5-0.6-1-0.6-1.7h0.9c0,0.5,0.1,0.8,0.3,1c0.2,0.4,0.6,0.6,1.2,0.6c0.5,0,0.8-0.1,1.1-0.4
			c0.3-0.2,0.4-0.6,0.4-1c0-0.5-0.1-0.8-0.4-1c-0.3-0.2-0.7-0.3-1.2-0.3c-0.1,0-0.1,0-0.2,0c-0.1,0-0.1,0-0.2,0v-0.8
			c0.1,0,0.2,0,0.2,0c0.1,0,0.1,0,0.2,0c0.3,0,0.6-0.1,0.8-0.2c0.4-0.2,0.6-0.5,0.6-1c0-0.3-0.1-0.6-0.4-0.8
			c-0.2-0.2-0.5-0.3-0.9-0.3c-0.6,0-1,0.2-1.2,0.6c-0.1,0.2-0.2,0.5-0.2,0.9h-0.9c0-0.5,0.1-1,0.3-1.3c0.4-0.7,1-1,1.9-1
			c0.7,0,1.3,0.2,1.7,0.5s0.6,0.8,0.6,1.4c0,0.4-0.1,0.8-0.3,1c-0.1,0.2-0.3,0.3-0.6,0.4c0.4,0.1,0.7,0.3,0.9,0.6s0.3,0.6,0.3,1.1
			c0,0.7-0.2,1.2-0.7,1.6s-1.1,0.6-1.9,0.6C319.7,103.1,319.1,102.9,318.7,102.4z"/>
	</g>
	<g>
		<path class="st1" d="M313.3,112.4v-0.7c0.6-0.1,1.1-0.2,1.3-0.3c0.3-0.1,0.4-0.5,0.6-1h0.7v7H315v-5H313.3z"/>
		<path class="st1" d="M318.6,115.7c0.2-0.4,0.6-0.9,1.3-1.2l0.9-0.5c0.4-0.2,0.7-0.5,0.9-0.6c0.3-0.3,0.4-0.6,0.4-0.9
			c0-0.4-0.1-0.7-0.4-1s-0.6-0.4-1-0.4c-0.6,0-1,0.2-1.2,0.7c-0.1,0.2-0.2,0.6-0.2,1h-0.9c0-0.6,0.1-1.1,0.3-1.5c0.4-0.7,1.1-1,2-1
			c0.8,0,1.4,0.2,1.8,0.6c0.4,0.4,0.6,0.9,0.6,1.4c0,0.6-0.2,1-0.6,1.4c-0.2,0.2-0.6,0.5-1.2,0.8l-0.7,0.4c-0.3,0.2-0.6,0.3-0.8,0.5
			c-0.3,0.3-0.5,0.6-0.6,0.9h3.8v0.8h-4.8C318.3,116.7,318.4,116.2,318.6,115.7z"/>
	</g>
	<g>
		<path class="st1" d="M313.3,126.8v-0.7c0.6-0.1,1.1-0.2,1.3-0.3c0.3-0.1,0.4-0.5,0.6-1h0.7v7H315v-5H313.3z"/>
		<path class="st1" d="M318.9,126.8v-0.7c0.6-0.1,1.1-0.2,1.3-0.3c0.2-0.1,0.4-0.5,0.6-1h0.7v7h-0.9v-5H318.9z"/>
	</g>
	<g>
		<path class="st1" d="M313.3,141.2v-0.7c0.6-0.1,1.1-0.2,1.3-0.3c0.3-0.1,0.4-0.5,0.6-1h0.7v7H315v-5H313.3z"/>
		<path class="st1" d="M322.6,140.2c0.3,0.6,0.5,1.4,0.5,2.4c0,1-0.1,1.7-0.4,2.4c-0.4,0.9-1.1,1.3-2,1.3c-0.8,0-1.5-0.4-1.9-1.1
			c-0.3-0.6-0.5-1.4-0.5-2.5c0-0.8,0.1-1.5,0.3-2c0.4-1.1,1.1-1.6,2.1-1.6C321.5,139.1,322.2,139.5,322.6,140.2z M321.7,144.9
			c0.3-0.4,0.4-1.2,0.4-2.3c0-0.8-0.1-1.4-0.3-2c-0.2-0.5-0.6-0.8-1.1-0.8c-0.5,0-0.9,0.2-1.1,0.7c-0.2,0.5-0.4,1.2-0.4,2.2
			c0,0.7,0.1,1.3,0.2,1.7c0.2,0.7,0.6,1,1.2,1C321.1,145.5,321.4,145.3,321.7,144.9z"/>
	</g>
	<g>
		<path class="st1" d="M319.2,158.8c0,0.5,0.2,0.8,0.6,1c0.2,0.1,0.4,0.1,0.6,0.1c0.4,0,0.8-0.2,1.1-0.5c0.3-0.4,0.5-1.1,0.6-2.1
			c-0.2,0.3-0.4,0.5-0.7,0.7c-0.3,0.1-0.6,0.2-0.9,0.2c-0.7,0-1.2-0.2-1.6-0.6s-0.6-1-0.6-1.6c0-0.6,0.2-1.2,0.6-1.7
			c0.4-0.5,1-0.7,1.7-0.7c1,0,1.7,0.5,2.1,1.4c0.2,0.5,0.3,1.1,0.3,1.9c0,0.9-0.1,1.6-0.4,2.3c-0.4,1.1-1.1,1.6-2.2,1.6
			c-0.7,0-1.2-0.2-1.6-0.5c-0.4-0.4-0.5-0.8-0.5-1.3H319.2z M321.5,157c0.3-0.2,0.4-0.6,0.4-1.2c0-0.5-0.1-0.9-0.4-1.1
			c-0.3-0.3-0.6-0.4-1-0.4c-0.4,0-0.8,0.1-1,0.4s-0.4,0.7-0.4,1.2c0,0.5,0.1,0.8,0.3,1.1c0.2,0.3,0.6,0.4,1.1,0.4
			C320.9,157.4,321.2,157.3,321.5,157z"/>
	</g>
	<g>
		<path class="st1" d="M318.9,170.8c-0.3-0.3-0.4-0.6-0.4-1c0-0.5,0.2-1,0.6-1.3c0.4-0.4,0.9-0.6,1.6-0.6c0.7,0,1.2,0.2,1.6,0.5
			c0.4,0.4,0.6,0.8,0.6,1.2c0,0.4-0.1,0.8-0.3,1.1c-0.1,0.2-0.3,0.3-0.6,0.4c0.3,0.1,0.5,0.3,0.7,0.5c0.3,0.3,0.5,0.7,0.5,1.3
			c0,0.6-0.2,1.1-0.6,1.6c-0.4,0.4-1,0.6-1.8,0.6c-0.7,0-1.3-0.2-1.7-0.6c-0.5-0.4-0.7-0.9-0.7-1.6c0-0.4,0.1-0.8,0.3-1.1
			c0.2-0.3,0.5-0.5,0.9-0.7C319.2,171.1,319,171,318.9,170.8z M321.7,174c0.3-0.2,0.4-0.5,0.4-1c0-0.5-0.1-0.8-0.4-1
			c-0.3-0.2-0.6-0.4-1.1-0.4c-0.4,0-0.8,0.1-1,0.4c-0.3,0.2-0.4,0.6-0.4,1c0,0.4,0.1,0.7,0.4,0.9s0.6,0.4,1.1,0.4
			C321.1,174.3,321.4,174.2,321.7,174z M321.5,170.5c0.2-0.2,0.3-0.5,0.3-0.8c0-0.3-0.1-0.5-0.3-0.7c-0.2-0.2-0.5-0.3-0.9-0.3
			s-0.7,0.1-0.9,0.3c-0.2,0.2-0.3,0.5-0.3,0.8c0,0.3,0.1,0.6,0.4,0.8s0.5,0.3,0.9,0.3C321,170.8,321.3,170.7,321.5,170.5z"/>
	</g>
	<g>
		<polyline class="st1" points="334.3,102.9 334.5,102.9 334.5,95.5 326.8,95.5 326.8,103.2 334.5,103.2 334.5,102.9 334.3,102.9 
			334.3,102.7 327.3,102.7 327.3,96 334,96 334,102.9 334.3,102.9 334.3,102.7 334.3,102.9 		"/>
	</g>
	<g>
		<polyline class="st1" points="334.3,88.5 334.5,88.5 334.5,81.1 326.8,81.1 326.8,88.8 334.5,88.8 334.5,88.5 334.3,88.5 
			334.3,88.3 327.3,88.3 327.3,81.6 334,81.6 334,88.5 334.3,88.5 334.3,88.3 334.3,88.5 		"/>
	</g>
	<g>
		<polyline class="st1" points="334.3,117.3 334.5,117.3 334.5,109.9 326.8,109.9 326.8,117.6 334.5,117.6 334.5,117.3 334.3,117.3 
			334.3,117.1 327.3,117.1 327.3,110.4 334,110.4 334,117.3 334.3,117.3 334.3,117.1 334.3,117.3 		"/>
	</g>
	<g>
		<polyline class="st1" points="334.3,131.7 334.5,131.7 334.5,124.3 326.8,124.3 326.8,132 334.5,132 334.5,131.7 334.3,131.7 
			334.3,131.5 327.3,131.5 327.3,124.8 334,124.8 334,131.7 334.3,131.7 334.3,131.5 334.3,131.7 		"/>
	</g>
	<g>
		<polyline class="st1" points="269.5,102.8 269.7,102.8 269.7,95.4 262,95.4 262,103.1 269.7,103.1 269.7,102.8 269.5,102.8 
			269.5,102.6 262.5,102.6 262.5,95.9 269.2,95.9 269.2,102.8 269.5,102.8 269.5,102.6 269.5,102.8 		"/>
	</g>
	<g>
		<polyline class="st1" points="269.5,88.5 269.7,88.5 269.7,81.1 262,81.1 262,88.8 269.7,88.8 269.7,88.5 269.5,88.5 269.5,88.3 
			262.5,88.3 262.5,81.6 269.2,81.6 269.2,88.5 269.5,88.5 269.5,88.3 269.5,88.5 		"/>
	</g>
	<g>
		<polyline class="st1" points="269.5,117.2 269.7,117.2 269.7,109.7 262,109.7 262,117.4 269.7,117.4 269.7,117.2 269.5,117.2 
			269.5,116.9 262.5,116.9 262.5,110.2 269.2,110.2 269.2,117.2 269.5,117.2 269.5,116.9 269.5,117.2 		"/>
	</g>
	<g>
		<polyline class="st1" points="269.5,131.5 269.7,131.5 269.7,124.1 262,124.1 262,131.8 269.7,131.8 269.7,131.5 269.5,131.5 
			269.5,131.3 262.5,131.3 262.5,124.6 269.2,124.6 269.2,131.5 269.5,131.5 269.5,131.3 269.5,131.5 		"/>
	</g>
	<g>
		<path class="st1" d="M237.9,81.3l2.1,6.1l2-6.1h1.1l-2.6,7.2h-1l-2.6-7.2H237.9z"/>
		<path class="st1" d="M249.1,81.9c0.5,0.5,0.8,1,0.8,1.6H249c-0.1-0.5-0.3-0.8-0.6-1.1c-0.3-0.3-0.8-0.4-1.3-0.4
			c-0.7,0-1.3,0.2-1.7,0.7c-0.4,0.5-0.6,1.3-0.6,2.3c0,0.8,0.2,1.5,0.6,2s1,0.8,1.7,0.8c0.7,0,1.2-0.3,1.6-0.8
			c0.2-0.3,0.3-0.7,0.4-1.1h0.9c-0.1,0.8-0.4,1.4-0.8,1.9c-0.6,0.6-1.3,0.9-2.3,0.9c-0.8,0-1.5-0.3-2.1-0.8
			c-0.7-0.7-1.1-1.7-1.1-3.1c0-1.1,0.3-1.9,0.8-2.6c0.6-0.7,1.4-1.1,2.5-1.1C247.9,81.1,248.6,81.4,249.1,81.9z"/>
		<path class="st1" d="M256.3,81.9c0.5,0.5,0.8,1,0.8,1.6h-0.9c-0.1-0.5-0.3-0.8-0.6-1.1c-0.3-0.3-0.8-0.4-1.3-0.4
			c-0.7,0-1.3,0.2-1.7,0.7c-0.4,0.5-0.6,1.3-0.6,2.3c0,0.8,0.2,1.5,0.6,2s1,0.8,1.7,0.8c0.7,0,1.2-0.3,1.6-0.8
			c0.2-0.3,0.3-0.7,0.4-1.1h0.9c-0.1,0.8-0.4,1.4-0.8,1.9c-0.6,0.6-1.3,0.9-2.3,0.9c-0.8,0-1.5-0.3-2.1-0.8
			c-0.7-0.7-1.1-1.7-1.1-3.1c0-1.1,0.3-1.9,0.8-2.6c0.6-0.7,1.4-1.1,2.5-1.1C255.1,81.1,255.8,81.4,256.3,81.9z"/>
	</g>
	<g>
		<path class="st1" d="M139.6,95.6c-0.5,1-0.8,1.7-1,2.2c-0.2,0.7-0.3,1.5-0.3,2.5c0,0.9,0.1,1.8,0.4,2.6c0.2,0.5,0.5,1.2,1,2.1H139
			c-0.5-0.7-0.8-1.2-0.9-1.4s-0.2-0.5-0.4-0.8c-0.2-0.5-0.3-1-0.4-1.5c0-0.3-0.1-0.6-0.1-0.8c0-1,0.2-1.8,0.5-2.6
			c0.2-0.5,0.6-1.2,1.2-2.1H139.6z"/>
		<path class="st1" d="M140.8,95.7h3.2c0.6,0,1.1,0.2,1.5,0.5c0.4,0.4,0.6,0.9,0.6,1.5c0,0.6-0.2,1-0.5,1.5s-0.9,0.6-1.6,0.6h-2.2v3
			h-1V95.7z M144.6,96.7c-0.2-0.1-0.5-0.2-0.9-0.2h-1.9v2.5h1.9c0.4,0,0.8-0.1,1.1-0.3c0.3-0.2,0.4-0.5,0.4-1
			C145.2,97.3,145,96.9,144.6,96.7z"/>
		<path class="st1" d="M152.5,96.3c0.5,0.5,0.8,1,0.8,1.6h-0.9c-0.1-0.5-0.3-0.8-0.6-1.1c-0.3-0.3-0.8-0.4-1.3-0.4
			c-0.7,0-1.3,0.2-1.7,0.7c-0.4,0.5-0.6,1.3-0.6,2.3c0,0.8,0.2,1.5,0.6,2s1,0.8,1.7,0.8c0.7,0,1.2-0.3,1.6-0.8
			c0.2-0.3,0.3-0.7,0.4-1.1h0.9c-0.1,0.8-0.4,1.4-0.8,1.9c-0.6,0.6-1.3,0.9-2.3,0.9c-0.8,0-1.5-0.3-2.1-0.8
			c-0.7-0.7-1.1-1.7-1.1-3.1c0-1.1,0.3-1.9,0.8-2.6c0.6-0.7,1.4-1.1,2.5-1.1C151.3,95.5,152,95.8,152.5,96.3z"/>
		<path class="st1" d="M154.8,95.7h1v7.2h-1V95.7z"/>
		<path class="st1" d="M157.4,95.7h1.1l3.6,5.8v-5.8h0.9v7.2H162l-3.6-5.8v5.8h-0.9V95.7z"/>
		<path class="st1" d="M169.8,95.7v0.9h-2.4v6.3h-1v-6.3H164v-0.9H169.8z"/>
		<path class="st1" d="M170.9,98.8c-0.3-0.3-0.4-0.6-0.4-1c0-0.5,0.2-1,0.6-1.3c0.4-0.4,0.9-0.6,1.6-0.6c0.7,0,1.2,0.2,1.6,0.5
			c0.4,0.4,0.6,0.8,0.6,1.2c0,0.4-0.1,0.8-0.3,1.1c-0.1,0.2-0.3,0.3-0.6,0.4c0.3,0.1,0.5,0.3,0.7,0.5c0.3,0.3,0.5,0.7,0.5,1.3
			c0,0.6-0.2,1.1-0.6,1.6c-0.4,0.4-1,0.6-1.8,0.6c-0.7,0-1.3-0.2-1.7-0.6s-0.7-0.9-0.7-1.6c0-0.4,0.1-0.8,0.3-1.1
			c0.2-0.3,0.5-0.5,0.9-0.7C171.2,99.1,171.1,99,170.9,98.8z M173.7,102c0.3-0.2,0.4-0.5,0.4-1c0-0.5-0.1-0.8-0.4-1
			c-0.3-0.2-0.6-0.4-1.1-0.4c-0.4,0-0.8,0.1-1,0.4s-0.4,0.6-0.4,1c0,0.4,0.1,0.7,0.4,0.9s0.6,0.4,1.1,0.4
			C173.1,102.3,173.5,102.2,173.7,102z M173.6,98.5c0.2-0.2,0.3-0.5,0.3-0.8c0-0.3-0.1-0.5-0.3-0.7c-0.2-0.2-0.5-0.3-1-0.3
			c-0.4,0-0.7,0.1-0.9,0.3s-0.3,0.5-0.3,0.8c0,0.3,0.1,0.6,0.4,0.8s0.5,0.3,0.9,0.3C173.1,98.8,173.4,98.7,173.6,98.5z"/>
		<path class="st1" d="M177.8,95.7h0.7l-2.3,7.2h-0.7L177.8,95.7z"/>
		<path class="st1" d="M179.7,102.9h-1.2l2.5-3.7l-2.4-3.5h1.2l1.8,2.7l1.8-2.7h1.2l-2.4,3.5l2.5,3.7h-1.2l-1.9-2.9L179.7,102.9z"/>
		<path class="st1" d="M190.9,95.7v0.9h-2.4v6.3h-1v-6.3h-2.4v-0.9H190.9z"/>
		<path class="st1" d="M192.7,95.7h1.1l2.6,7.2h-1.1l-0.7-2.1h-2.8l-0.8,2.1h-1L192.7,95.7z M194.4,100l-1.1-3.2l-1.1,3.2H194.4z"/>
		<path class="st1" d="M197.3,95.7h1v6.3h3.6v0.9h-4.6V95.7z"/>
		<path class="st1" d="M203.1,98v-0.7c0.6-0.1,1.1-0.2,1.3-0.3c0.3-0.1,0.4-0.5,0.6-1h0.7v7h-0.9v-5H203.1z"/>
		<path class="st1" d="M210,95.7h0.7l-2.3,7.2h-0.7L210,95.7z"/>
		<path class="st1" d="M216.3,96.3c0.5,0.5,0.8,1,0.8,1.6h-0.9c-0.1-0.5-0.3-0.8-0.6-1.1c-0.3-0.3-0.8-0.4-1.3-0.4
			c-0.7,0-1.3,0.2-1.7,0.7c-0.4,0.5-0.6,1.3-0.6,2.3c0,0.8,0.2,1.5,0.6,2s1,0.8,1.7,0.8c0.7,0,1.2-0.3,1.6-0.8
			c0.2-0.3,0.3-0.7,0.4-1.1h0.9c-0.1,0.8-0.4,1.4-0.8,1.9c-0.6,0.6-1.3,0.9-2.3,0.9c-0.8,0-1.5-0.3-2.1-0.8
			c-0.7-0.7-1.1-1.7-1.1-3.1c0-1.1,0.3-1.9,0.8-2.6c0.6-0.7,1.4-1.1,2.5-1.1C215.1,95.5,215.8,95.8,216.3,96.3z"/>
		<path class="st1" d="M218.4,95.7h1v6.3h3.6v0.9h-4.6V95.7z"/>
		<path class="st1" d="M224,95.7h0.9v3.5l3.6-3.5h1.4l-3.1,2.9l3.1,4.3h-1.3l-2.6-3.6l-1.2,1.1v2.5H224V95.7z"/>
		<path class="st1" d="M230.9,95.7h1v7.2h-1V95.7z"/>
		<path class="st1" d="M233,104.9c0.5-1,0.9-1.7,1-2.2c0.2-0.7,0.3-1.5,0.3-2.5s-0.1-1.8-0.4-2.6c-0.2-0.5-0.5-1.2-1-2.1h0.6
			c0.5,0.8,0.8,1.3,0.9,1.5c0.1,0.2,0.2,0.4,0.3,0.8c0.2,0.4,0.3,0.8,0.3,1.2c0.1,0.4,0.1,0.8,0.1,1.1c0,1-0.2,1.8-0.5,2.6
			c-0.2,0.5-0.6,1.2-1.2,2.1H233z"/>
		<path class="st1" d="M239.7,95.7h3.2c0.6,0,1.1,0.2,1.5,0.5c0.4,0.4,0.6,0.9,0.6,1.5c0,0.6-0.2,1-0.5,1.5s-0.9,0.6-1.6,0.6h-2.2v3
			h-1V95.7z M243.4,96.7c-0.2-0.1-0.5-0.2-0.9-0.2h-1.9v2.5h1.9c0.4,0,0.8-0.1,1.1-0.3c0.3-0.2,0.4-0.5,0.4-1
			C244,97.3,243.8,96.9,243.4,96.7z"/>
		<path class="st1" d="M246.2,95.7h3.1c0.8,0,1.4,0.3,1.8,0.8c0.2,0.3,0.3,0.6,0.3,1c0,0.5-0.1,0.8-0.4,1.1
			c-0.1,0.2-0.3,0.3-0.6,0.4c0.4,0.1,0.6,0.3,0.8,0.5c0.3,0.3,0.5,0.7,0.5,1.3c0,0.5-0.1,0.9-0.4,1.3c-0.4,0.6-1.1,0.8-2.1,0.8h-3.1
			V95.7z M249,98.8c0.4,0,0.7-0.1,1-0.2c0.4-0.2,0.5-0.5,0.5-1c0-0.5-0.2-0.8-0.6-0.9c-0.2-0.1-0.5-0.1-1-0.1h-1.8v2.2H249z
			 M249.3,102.1c0.6,0,1-0.2,1.3-0.5c0.2-0.2,0.2-0.5,0.2-0.8c0-0.5-0.2-0.9-0.7-1.1c-0.2-0.1-0.6-0.2-1-0.2h-1.9v2.5H249.3z"/>
		<path class="st1" d="M256.8,97c0.3,0.6,0.5,1.4,0.5,2.4c0,1-0.1,1.7-0.4,2.4c-0.4,0.9-1.1,1.3-2,1.3c-0.8,0-1.5-0.4-1.9-1.1
			c-0.3-0.6-0.5-1.4-0.5-2.5c0-0.8,0.1-1.5,0.3-2c0.4-1.1,1.1-1.6,2.1-1.6C255.8,95.9,256.4,96.3,256.8,97z M255.9,101.7
			c0.3-0.4,0.4-1.2,0.4-2.3c0-0.8-0.1-1.4-0.3-2c-0.2-0.5-0.6-0.8-1.1-0.8c-0.5,0-0.9,0.2-1.1,0.7c-0.2,0.5-0.4,1.2-0.4,2.2
			c0,0.7,0.1,1.3,0.2,1.7c0.2,0.7,0.6,1,1.2,1C255.3,102.3,255.7,102.1,255.9,101.7z"/>
	</g>
	<g>
		<path class="st1" d="M164.6,110c-0.5,1-0.8,1.7-1,2.2c-0.2,0.7-0.3,1.5-0.3,2.5c0,0.9,0.1,1.8,0.4,2.6c0.2,0.5,0.5,1.2,1,2.1H164
			c-0.5-0.7-0.8-1.2-0.9-1.4s-0.2-0.5-0.4-0.8c-0.2-0.5-0.3-1-0.4-1.5c0-0.3-0.1-0.6-0.1-0.8c0-1,0.2-1.8,0.5-2.6
			c0.2-0.5,0.6-1.2,1.2-2.1H164.6z"/>
		<path class="st1" d="M165.8,110.1h3.2c0.6,0,1.1,0.2,1.5,0.5c0.4,0.4,0.6,0.9,0.6,1.5c0,0.6-0.2,1-0.5,1.5s-0.9,0.6-1.6,0.6h-2.2
			v3h-1V110.1z M169.6,111.1c-0.2-0.1-0.5-0.2-0.9-0.2h-1.9v2.5h1.9c0.4,0,0.8-0.1,1.1-0.3c0.3-0.2,0.4-0.5,0.4-1
			C170.2,111.7,170,111.3,169.6,111.1z"/>
		<path class="st1" d="M177.5,110.7c0.5,0.5,0.8,1,0.8,1.6h-0.9c-0.1-0.5-0.3-0.8-0.6-1.1c-0.3-0.3-0.8-0.4-1.3-0.4
			c-0.7,0-1.3,0.2-1.7,0.7c-0.4,0.5-0.6,1.3-0.6,2.3c0,0.8,0.2,1.5,0.6,2s1,0.8,1.7,0.8c0.7,0,1.2-0.3,1.6-0.8
			c0.2-0.3,0.3-0.7,0.4-1.1h0.9c-0.1,0.8-0.4,1.4-0.8,1.9c-0.6,0.6-1.3,0.9-2.3,0.9c-0.8,0-1.5-0.3-2.1-0.8
			c-0.7-0.7-1.1-1.7-1.1-3.1c0-1.1,0.3-1.9,0.8-2.6c0.6-0.7,1.4-1.1,2.5-1.1C176.3,109.9,177,110.2,177.5,110.7z"/>
		<path class="st1" d="M179.8,110.1h1v7.2h-1V110.1z"/>
		<path class="st1" d="M182.4,110.1h1.1l3.6,5.8v-5.8h0.9v7.2H187l-3.6-5.8v5.8h-0.9V110.1z"/>
		<path class="st1" d="M194.8,110.1v0.9h-2.4v6.3h-1V111H189v-0.9H194.8z"/>
		<path class="st1" d="M196.3,115.6c0,0.5,0.2,0.8,0.6,1c0.2,0.1,0.4,0.1,0.6,0.1c0.4,0,0.8-0.2,1.1-0.5c0.3-0.4,0.5-1.1,0.6-2.1
			c-0.2,0.3-0.4,0.5-0.7,0.7s-0.6,0.2-0.9,0.2c-0.7,0-1.2-0.2-1.6-0.6s-0.6-1-0.6-1.6c0-0.6,0.2-1.2,0.6-1.7s1-0.7,1.7-0.7
			c1,0,1.7,0.5,2.1,1.4c0.2,0.5,0.3,1.1,0.3,1.9c0,0.9-0.1,1.6-0.4,2.3c-0.4,1.1-1.1,1.6-2.2,1.6c-0.7,0-1.2-0.2-1.6-0.5
			s-0.5-0.8-0.5-1.3H196.3z M198.6,113.8c0.3-0.2,0.4-0.6,0.4-1.2c0-0.5-0.1-0.9-0.4-1.1s-0.6-0.4-1-0.4c-0.4,0-0.8,0.1-1,0.4
			s-0.4,0.7-0.4,1.2c0,0.5,0.1,0.8,0.3,1.1s0.6,0.4,1.1,0.4C198,114.2,198.3,114.1,198.6,113.8z"/>
		<path class="st1" d="M202.8,110.1h0.7l-2.3,7.2h-0.7L202.8,110.1z"/>
		<path class="st1" d="M204.7,117.3h-1.2l2.5-3.7l-2.4-3.5h1.2l1.8,2.7l1.8-2.7h1.2l-2.4,3.5l2.5,3.7h-1.2l-1.9-2.9L204.7,117.3z"/>
		<path class="st1" d="M216,110.1v0.9h-2.4v6.3h-1V111h-2.4v-0.9H216z"/>
		<path class="st1" d="M217.7,110.1h1.1l2.6,7.2h-1.1l-0.7-2.1h-2.8l-0.8,2.1h-1L217.7,110.1z M219.4,114.4l-1.1-3.2l-1.1,3.2H219.4
			z"/>
		<path class="st1" d="M222.3,110.1h1v6.3h3.6v0.9h-4.6V110.1z"/>
		<path class="st1" d="M227.8,115.7c0.2-0.4,0.6-0.9,1.3-1.2l0.9-0.5c0.4-0.2,0.7-0.5,0.9-0.6c0.3-0.3,0.4-0.6,0.4-0.9
			c0-0.4-0.1-0.7-0.4-1s-0.6-0.4-1-0.4c-0.6,0-1,0.2-1.2,0.7c-0.1,0.2-0.2,0.6-0.2,1h-0.9c0-0.6,0.1-1.1,0.3-1.5c0.4-0.7,1.1-1,2-1
			c0.8,0,1.4,0.2,1.8,0.6c0.4,0.4,0.6,0.9,0.6,1.4c0,0.6-0.2,1-0.6,1.4c-0.2,0.2-0.6,0.5-1.2,0.8l-0.7,0.4c-0.3,0.2-0.6,0.3-0.8,0.5
			c-0.3,0.3-0.5,0.6-0.6,0.9h3.8v0.8h-4.8C227.5,116.7,227.6,116.2,227.8,115.7z"/>
		<path class="st1" d="M233,119.3c0.5-1,0.9-1.7,1-2.2c0.2-0.7,0.3-1.5,0.3-2.5s-0.1-1.8-0.4-2.6c-0.2-0.5-0.5-1.2-1-2.1h0.6
			c0.5,0.8,0.8,1.3,0.9,1.5c0.1,0.2,0.2,0.4,0.3,0.8c0.2,0.4,0.3,0.8,0.3,1.2c0.1,0.4,0.1,0.8,0.1,1.1c0,1-0.2,1.8-0.5,2.6
			c-0.2,0.5-0.6,1.2-1.2,2.1H233z"/>
		<path class="st1" d="M239.6,110.1h3.2c0.6,0,1.1,0.2,1.5,0.5c0.4,0.4,0.6,0.9,0.6,1.5c0,0.6-0.2,1-0.5,1.5s-0.9,0.6-1.6,0.6h-2.2
			v3h-1V110.1z M243.4,111.1c-0.2-0.1-0.5-0.2-0.9-0.2h-1.9v2.5h1.9c0.4,0,0.8-0.1,1.1-0.3c0.3-0.2,0.4-0.5,0.4-1
			C244,111.7,243.8,111.3,243.4,111.1z"/>
		<path class="st1" d="M246.2,110.1h3.1c0.8,0,1.4,0.3,1.8,0.8c0.2,0.3,0.3,0.6,0.3,1c0,0.5-0.1,0.8-0.4,1.1
			c-0.1,0.2-0.3,0.3-0.6,0.4c0.4,0.1,0.6,0.3,0.8,0.5c0.3,0.3,0.5,0.7,0.5,1.3c0,0.5-0.1,0.9-0.4,1.3c-0.4,0.6-1.1,0.8-2.1,0.8h-3.1
			V110.1z M248.9,113.2c0.4,0,0.7-0.1,1-0.2c0.4-0.2,0.5-0.5,0.5-1c0-0.5-0.2-0.8-0.6-0.9c-0.2-0.1-0.5-0.1-1-0.1h-1.8v2.2H248.9z
			 M249.3,116.5c0.6,0,1-0.2,1.3-0.5c0.2-0.2,0.2-0.5,0.2-0.8c0-0.5-0.2-0.9-0.7-1.1c-0.2-0.1-0.6-0.2-1-0.2h-1.9v2.5H249.3z"/>
		<path class="st1" d="M253.1,112.4v-0.7c0.6-0.1,1.1-0.2,1.3-0.3c0.3-0.1,0.4-0.5,0.6-1h0.7v7h-0.9v-5H253.1z"/>
	</g>
	<g>
		<path class="st1" d="M137.3,124.4c-0.5,1-0.8,1.7-1,2.2c-0.2,0.7-0.3,1.5-0.3,2.5c0,0.9,0.1,1.8,0.4,2.6c0.2,0.5,0.5,1.2,1,2.1
			h-0.6c-0.5-0.7-0.8-1.2-0.9-1.4s-0.2-0.5-0.4-0.8c-0.2-0.5-0.3-1-0.4-1.5c0-0.3-0.1-0.6-0.1-0.8c0-1,0.2-1.8,0.5-2.6
			c0.2-0.5,0.6-1.2,1.2-2.1H137.3z"/>
		<path class="st1" d="M138.5,124.5h3.2c0.6,0,1.1,0.2,1.5,0.5c0.4,0.4,0.6,0.9,0.6,1.5c0,0.6-0.2,1-0.5,1.5s-0.9,0.6-1.6,0.6h-2.2
			v3h-1V124.5z M142.3,125.5c-0.2-0.1-0.5-0.2-0.9-0.2h-1.9v2.5h1.9c0.4,0,0.8-0.1,1.1-0.3c0.3-0.2,0.4-0.5,0.4-1
			C142.9,126.1,142.7,125.7,142.3,125.5z"/>
		<path class="st1" d="M150.2,125.1c0.5,0.5,0.8,1,0.8,1.6H150c-0.1-0.5-0.3-0.8-0.6-1.1c-0.3-0.3-0.8-0.4-1.3-0.4
			c-0.7,0-1.3,0.2-1.7,0.7c-0.4,0.5-0.6,1.3-0.6,2.3c0,0.8,0.2,1.5,0.6,2s1,0.8,1.7,0.8c0.7,0,1.2-0.3,1.6-0.8
			c0.2-0.3,0.3-0.7,0.4-1.1h0.9c-0.1,0.8-0.4,1.4-0.8,1.9c-0.6,0.6-1.3,0.9-2.3,0.9c-0.8,0-1.5-0.3-2.1-0.8
			c-0.7-0.7-1.1-1.7-1.1-3.1c0-1.1,0.3-1.9,0.8-2.6c0.6-0.7,1.4-1.1,2.5-1.1C149,124.3,149.7,124.6,150.2,125.1z"/>
		<path class="st1" d="M152.5,124.5h1v7.2h-1V124.5z"/>
		<path class="st1" d="M155.1,124.5h1.1l3.6,5.8v-5.8h0.9v7.2h-1.1l-3.6-5.8v5.8h-0.9V124.5z"/>
		<path class="st1" d="M167.5,124.5v0.9h-2.4v6.3h-1v-6.3h-2.4v-0.9H167.5z"/>
		<path class="st1" d="M168.6,126.8v-0.7c0.6-0.1,1.1-0.2,1.3-0.3c0.3-0.1,0.4-0.5,0.6-1h0.7v7h-0.9v-5H168.6z"/>
		<path class="st1" d="M174.2,126.8v-0.7c0.6-0.1,1.1-0.2,1.3-0.3c0.3-0.1,0.4-0.5,0.6-1h0.7v7h-0.9v-5H174.2z"/>
		<path class="st1" d="M181.1,124.5h0.7l-2.3,7.2h-0.7L181.1,124.5z"/>
		<path class="st1" d="M182.4,124.5h3.3c0.5,0,1,0.1,1.3,0.2c0.7,0.3,1,0.9,1,1.7c0,0.4-0.1,0.8-0.3,1.1c-0.2,0.3-0.4,0.5-0.7,0.7
			c0.3,0.1,0.5,0.3,0.6,0.4c0.1,0.2,0.2,0.5,0.2,0.9l0,1c0,0.3,0,0.5,0.1,0.6c0.1,0.2,0.2,0.4,0.3,0.4v0.2h-1.2
			c0-0.1-0.1-0.1-0.1-0.2s0-0.3,0-0.6l-0.1-1.2c0-0.5-0.2-0.8-0.5-0.9c-0.2-0.1-0.5-0.1-0.8-0.1h-2.1v3.1h-1V124.5z M185.6,127.8
			c0.4,0,0.8-0.1,1.1-0.3c0.3-0.2,0.4-0.5,0.4-1c0-0.5-0.2-0.9-0.5-1c-0.2-0.1-0.5-0.1-0.8-0.1h-2.3v2.5H185.6z"/>
		<path class="st1" d="M189.6,124.5h5.2v0.9h-4.3v2.2h3.9v0.8h-3.9v2.4h4.3v0.9h-5.3V124.5z"/>
		<path class="st1" d="M196.9,129.4c0,0.4,0.1,0.7,0.3,1c0.3,0.5,0.9,0.7,1.6,0.7c0.4,0,0.7-0.1,1-0.2c0.6-0.2,0.8-0.6,0.8-1.1
			c0-0.4-0.1-0.7-0.4-0.8c-0.2-0.2-0.6-0.3-1.1-0.4l-0.9-0.2c-0.6-0.1-1-0.3-1.3-0.5c-0.4-0.3-0.7-0.7-0.7-1.3
			c0-0.6,0.2-1.2,0.7-1.6c0.4-0.4,1-0.6,1.8-0.6c0.7,0,1.4,0.2,1.9,0.5c0.5,0.4,0.8,0.9,0.8,1.7h-0.9c0-0.4-0.1-0.7-0.3-0.9
			c-0.3-0.4-0.8-0.6-1.4-0.6c-0.5,0-0.9,0.1-1.2,0.4c-0.2,0.2-0.4,0.5-0.4,0.8c0,0.4,0.1,0.6,0.4,0.8c0.2,0.1,0.6,0.2,1.3,0.4l1,0.2
			c0.5,0.1,0.8,0.3,1.1,0.5c0.4,0.3,0.7,0.8,0.7,1.5c0,0.8-0.3,1.4-0.8,1.7s-1.2,0.5-2,0.5c-0.9,0-1.6-0.2-2-0.7
			c-0.5-0.5-0.7-1.1-0.7-1.8H196.9z"/>
		<path class="st1" d="M203,124.5h5.2v0.9h-4.3v2.2h3.9v0.8h-3.9v2.4h4.3v0.9H203V124.5z"/>
		<path class="st1" d="M214.8,124.5v0.9h-2.4v6.3h-1v-6.3H209v-0.9H214.8z"/>
		<path class="st1" d="M217.2,124.5h0.7l-2.3,7.2h-0.7L217.2,124.5z"/>
		<path class="st1" d="M221.2,126.6c0.2,0.1,0.3,0.3,0.5,0.5v-2.6h0.8v7.2h-0.8V131c-0.2,0.3-0.4,0.6-0.7,0.7s-0.6,0.2-1,0.2
			c-0.6,0-1.1-0.2-1.5-0.7s-0.6-1.1-0.6-2c0-0.8,0.2-1.4,0.6-2c0.4-0.6,0.9-0.8,1.7-0.8C220.6,126.4,220.9,126.5,221.2,126.6z
			 M219.2,130.6c0.2,0.4,0.6,0.6,1.1,0.6c0.4,0,0.7-0.2,1-0.5s0.4-0.9,0.4-1.5c0-0.7-0.1-1.1-0.4-1.5c-0.3-0.3-0.6-0.5-1-0.5
			c-0.4,0-0.8,0.2-1.1,0.5c-0.3,0.3-0.4,0.8-0.4,1.5C218.9,129.7,219,130.2,219.2,130.6z"/>
		<path class="st1" d="M224.5,124.5l1.4,5.8l1.6-5.8h1.1l1.6,5.8l1.4-5.8h1.1l-1.9,7.2h-1l-1.7-5.9l-1.7,5.9h-1l-1.9-7.2H224.5z"/>
		<path class="st1" d="M233,133.7c0.5-1,0.9-1.7,1-2.2c0.2-0.7,0.3-1.5,0.3-2.5s-0.1-1.8-0.4-2.6c-0.2-0.5-0.5-1.2-1-2.1h0.6
			c0.5,0.8,0.8,1.3,0.9,1.5c0.1,0.2,0.2,0.4,0.3,0.8c0.2,0.4,0.3,0.8,0.3,1.2c0.1,0.4,0.1,0.8,0.1,1.1c0,1-0.2,1.8-0.5,2.6
			c-0.2,0.5-0.6,1.2-1.2,2.1H233z"/>
		<path class="st1" d="M239.6,124.5h3.2c0.6,0,1.1,0.2,1.5,0.5c0.4,0.4,0.6,0.9,0.6,1.5c0,0.6-0.2,1-0.5,1.5s-0.9,0.6-1.6,0.6h-2.2
			v3h-1V124.5z M243.4,125.5c-0.2-0.1-0.5-0.2-0.9-0.2h-1.9v2.5h1.9c0.4,0,0.8-0.1,1.1-0.3c0.3-0.2,0.4-0.5,0.4-1
			C244,126.1,243.8,125.7,243.4,125.5z"/>
		<path class="st1" d="M246.2,124.5h3.1c0.8,0,1.4,0.3,1.8,0.8c0.2,0.3,0.3,0.6,0.3,1c0,0.5-0.1,0.8-0.4,1.1
			c-0.1,0.2-0.3,0.3-0.6,0.4c0.4,0.1,0.6,0.3,0.8,0.5c0.3,0.3,0.5,0.7,0.5,1.3c0,0.5-0.1,0.9-0.4,1.3c-0.4,0.6-1.1,0.8-2.1,0.8h-3.1
			V124.5z M248.9,127.6c0.4,0,0.7-0.1,1-0.2c0.4-0.2,0.5-0.5,0.5-1c0-0.5-0.2-0.8-0.6-0.9c-0.2-0.1-0.5-0.1-1-0.1h-1.8v2.2H248.9z
			 M249.3,130.9c0.6,0,1-0.2,1.3-0.5c0.2-0.2,0.2-0.5,0.2-0.8c0-0.5-0.2-0.9-0.7-1.1c-0.2-0.1-0.6-0.2-1-0.2h-1.9v2.5H249.3z"/>
		<path class="st1" d="M252.9,131.2c-0.4-0.5-0.6-1-0.6-1.7h0.9c0,0.5,0.1,0.8,0.3,1c0.2,0.4,0.6,0.6,1.2,0.6c0.5,0,0.8-0.1,1.1-0.4
			c0.3-0.2,0.4-0.6,0.4-1c0-0.5-0.1-0.8-0.4-1c-0.3-0.2-0.7-0.3-1.2-0.3c-0.1,0-0.1,0-0.2,0c-0.1,0-0.1,0-0.2,0v-0.8
			c0.1,0,0.2,0,0.2,0c0.1,0,0.1,0,0.2,0c0.3,0,0.6-0.1,0.8-0.2c0.4-0.2,0.6-0.5,0.6-1c0-0.3-0.1-0.6-0.4-0.8
			c-0.2-0.2-0.5-0.3-0.9-0.3c-0.6,0-1,0.2-1.2,0.6c-0.1,0.2-0.2,0.5-0.2,0.9h-0.9c0-0.5,0.1-1,0.3-1.3c0.4-0.7,1-1,1.9-1
			c0.7,0,1.3,0.2,1.7,0.5s0.6,0.8,0.6,1.4c0,0.4-0.1,0.8-0.3,1c-0.1,0.2-0.3,0.3-0.6,0.4c0.4,0.1,0.7,0.3,0.9,0.6
			c0.2,0.3,0.3,0.6,0.3,1.1c0,0.7-0.2,1.2-0.7,1.6s-1.1,0.6-1.9,0.6C253.9,131.9,253.3,131.7,252.9,131.2z"/>
	</g>
	<g>
		<path class="st1" d="M99.4,138.8c-0.5,1-0.8,1.7-1,2.2c-0.2,0.7-0.3,1.5-0.3,2.5c0,0.9,0.1,1.8,0.4,2.6c0.2,0.5,0.5,1.2,1,2.1
			h-0.6c-0.5-0.7-0.8-1.2-0.9-1.4s-0.2-0.5-0.4-0.8c-0.2-0.5-0.3-1-0.4-1.5c0-0.3-0.1-0.6-0.1-0.8c0-1,0.2-1.8,0.5-2.6
			c0.2-0.5,0.6-1.2,1.2-2.1H99.4z"/>
		<path class="st1" d="M100.7,138.9h3.2c0.6,0,1.1,0.2,1.5,0.5c0.4,0.4,0.6,0.9,0.6,1.5c0,0.6-0.2,1-0.5,1.5s-0.9,0.6-1.6,0.6h-2.2
			v3h-1V138.9z M104.4,139.9c-0.2-0.1-0.5-0.2-0.9-0.2h-1.9v2.5h1.9c0.4,0,0.8-0.1,1.1-0.3c0.3-0.2,0.4-0.5,0.4-1
			C105,140.5,104.8,140.1,104.4,139.9z"/>
		<path class="st1" d="M112.3,139.5c0.5,0.5,0.8,1,0.8,1.6h-0.9c-0.1-0.5-0.3-0.8-0.6-1.1c-0.3-0.3-0.8-0.4-1.3-0.4
			c-0.7,0-1.3,0.2-1.7,0.7c-0.4,0.5-0.6,1.3-0.6,2.3c0,0.8,0.2,1.5,0.6,2s1,0.8,1.7,0.8c0.7,0,1.2-0.3,1.6-0.8
			c0.2-0.3,0.3-0.7,0.4-1.1h0.9c-0.1,0.8-0.4,1.4-0.8,1.9c-0.6,0.6-1.3,0.9-2.3,0.9c-0.8,0-1.5-0.3-2.1-0.8
			c-0.7-0.7-1.1-1.7-1.1-3.1c0-1.1,0.3-1.9,0.8-2.6c0.6-0.7,1.4-1.1,2.5-1.1C111.1,138.7,111.8,139,112.3,139.5z"/>
		<path class="st1" d="M114.7,138.9h1v7.2h-1V138.9z"/>
		<path class="st1" d="M117.3,138.9h1.1l3.6,5.8v-5.8h0.9v7.2h-1.1l-3.6-5.8v5.8h-0.9V138.9z"/>
		<path class="st1" d="M129.7,138.9v0.9h-2.4v6.3h-1v-6.3h-2.4v-0.9H129.7z"/>
		<path class="st1" d="M130.8,141.2v-0.7c0.6-0.1,1.1-0.2,1.3-0.3c0.3-0.1,0.4-0.5,0.6-1h0.7v7h-0.9v-5H130.8z"/>
		<path class="st1" d="M140.1,140.2c0.3,0.6,0.5,1.4,0.5,2.4c0,1-0.1,1.7-0.4,2.4c-0.4,0.9-1.1,1.3-2,1.3c-0.8,0-1.5-0.4-1.9-1.1
			c-0.3-0.6-0.5-1.4-0.5-2.5c0-0.8,0.1-1.5,0.3-2c0.4-1.1,1.1-1.6,2.1-1.6C139,139.1,139.6,139.5,140.1,140.2z M139.2,144.9
			c0.3-0.4,0.4-1.2,0.4-2.3c0-0.8-0.1-1.4-0.3-2c-0.2-0.5-0.6-0.8-1.1-0.8c-0.5,0-0.9,0.2-1.1,0.7c-0.2,0.5-0.4,1.2-0.4,2.2
			c0,0.7,0.1,1.3,0.2,1.7c0.2,0.7,0.6,1,1.2,1C138.5,145.5,138.9,145.3,139.2,144.9z"/>
		<path class="st1" d="M143.2,138.9h0.7l-2.3,7.2h-0.7L143.2,138.9z"/>
		<path class="st1" d="M144.7,138.9h1v7.2h-1V138.9z"/>
		<path class="st1" d="M147.3,138.9h1.1l3.6,5.8v-5.8h0.9v7.2h-1.1l-3.6-5.8v5.8h-0.9V138.9z"/>
		<path class="st1" d="M159.7,138.9v0.9h-2.4v6.3h-1v-6.3h-2.4v-0.9H159.7z"/>
		<path class="st1" d="M164.5,140.2c0.3,0.6,0.5,1.4,0.5,2.4c0,1-0.1,1.7-0.4,2.4c-0.4,0.9-1.1,1.3-2,1.3c-0.8,0-1.5-0.4-1.9-1.1
			c-0.3-0.6-0.5-1.4-0.5-2.5c0-0.8,0.1-1.5,0.3-2c0.4-1.1,1.1-1.6,2.1-1.6C163.4,139.1,164.1,139.5,164.5,140.2z M163.6,144.9
			c0.3-0.4,0.4-1.2,0.4-2.3c0-0.8-0.1-1.4-0.3-2c-0.2-0.5-0.6-0.8-1.1-0.8c-0.5,0-0.9,0.2-1.1,0.7c-0.2,0.5-0.4,1.2-0.4,2.2
			c0,0.7,0.1,1.3,0.2,1.7c0.2,0.7,0.6,1,1.2,1C163,145.5,163.3,145.3,163.6,144.9z"/>
		<path class="st1" d="M167.7,138.9h0.7l-2.3,7.2h-0.7L167.7,138.9z"/>
		<path class="st1" d="M174.8,140c0.5,0.6,0.7,1.4,0.7,2.4c0,1.1-0.3,2-0.8,2.7c-0.6,0.8-1.5,1.2-2.7,1.2c-1.1,0-2-0.4-2.6-1.1
			c-0.6-0.7-0.8-1.6-0.8-2.7c0-1,0.2-1.8,0.7-2.5c0.6-0.9,1.5-1.3,2.7-1.3C173.3,138.7,174.2,139.1,174.8,140z M174,144.5
			c0.4-0.6,0.6-1.3,0.6-2.1c0-0.8-0.2-1.5-0.7-2c-0.4-0.5-1-0.8-1.8-0.8c-0.7,0-1.3,0.3-1.8,0.8s-0.7,1.3-0.7,2.3
			c0,0.8,0.2,1.5,0.6,2c0.4,0.5,1.1,0.8,2,0.8C173,145.5,173.6,145.1,174,144.5z"/>
		<path class="st1" d="M181.8,139.5c0.5,0.5,0.8,1,0.8,1.6h-0.9c-0.1-0.5-0.3-0.8-0.6-1.1c-0.3-0.3-0.8-0.4-1.3-0.4
			c-0.7,0-1.3,0.2-1.7,0.7c-0.4,0.5-0.6,1.3-0.6,2.3c0,0.8,0.2,1.5,0.6,2s1,0.8,1.7,0.8c0.7,0,1.2-0.3,1.6-0.8
			c0.2-0.3,0.3-0.7,0.4-1.1h0.9c-0.1,0.8-0.4,1.4-0.8,1.9c-0.6,0.6-1.3,0.9-2.3,0.9c-0.8,0-1.5-0.3-2.1-0.8
			c-0.7-0.7-1.1-1.7-1.1-3.1c0-1.1,0.3-1.9,0.8-2.6c0.6-0.7,1.4-1.1,2.5-1.1C180.6,138.7,181.3,139,181.8,139.5z"/>
		<path class="st1" d="M187.8,140.2c0.3,0.6,0.5,1.4,0.5,2.4c0,1-0.1,1.7-0.4,2.4c-0.4,0.9-1.1,1.3-2,1.3c-0.8,0-1.5-0.4-1.9-1.1
			c-0.3-0.6-0.5-1.4-0.5-2.5c0-0.8,0.1-1.5,0.3-2c0.4-1.1,1.1-1.6,2.1-1.6C186.8,139.1,187.4,139.5,187.8,140.2z M187,144.9
			c0.3-0.4,0.4-1.2,0.4-2.3c0-0.8-0.1-1.4-0.3-2c-0.2-0.5-0.6-0.8-1.1-0.8c-0.5,0-0.9,0.2-1.1,0.7c-0.2,0.5-0.4,1.2-0.4,2.2
			c0,0.7,0.1,1.3,0.2,1.7c0.2,0.7,0.6,1,1.2,1C186.3,145.5,186.7,145.3,187,144.9z"/>
		<path class="st1" d="M191.6,138.9h1.1l2.6,7.2h-1.1l-0.7-2.1h-2.8l-0.8,2.1h-1L191.6,138.9z M193.2,143.2l-1.1-3.2l-1.1,3.2H193.2
			z"/>
		<path class="st1" d="M197.7,138.9h0.7l-2.3,7.2h-0.7L197.7,138.9z"/>
		<path class="st1" d="M204,139.5c0.5,0.5,0.8,1,0.8,1.6h-0.9c-0.1-0.5-0.3-0.8-0.6-1.1c-0.3-0.3-0.8-0.4-1.3-0.4
			c-0.7,0-1.3,0.2-1.7,0.7c-0.4,0.5-0.6,1.3-0.6,2.3c0,0.8,0.2,1.5,0.6,2s1,0.8,1.7,0.8c0.7,0,1.2-0.3,1.6-0.8
			c0.2-0.3,0.3-0.7,0.4-1.1h0.9c-0.1,0.8-0.4,1.4-0.8,1.9c-0.6,0.6-1.3,0.9-2.3,0.9c-0.8,0-1.5-0.3-2.1-0.8
			c-0.7-0.7-1.1-1.7-1.1-3.1c0-1.1,0.3-1.9,0.8-2.6c0.6-0.7,1.4-1.1,2.5-1.1C202.8,138.7,203.5,139,204,139.5z"/>
		<path class="st1" d="M206.2,138.9h0.9v3.5l3.6-3.5h1.4l-3.1,2.9l3.1,4.3h-1.3l-2.6-3.6l-1.2,1.1v2.5h-0.9V138.9z"/>
		<path class="st1" d="M218.3,140c0.5,0.6,0.7,1.4,0.7,2.4c0,1.1-0.3,2-0.8,2.7c-0.6,0.8-1.5,1.2-2.7,1.2c-1.1,0-2-0.4-2.6-1.1
			c-0.6-0.7-0.8-1.6-0.8-2.7c0-1,0.2-1.8,0.7-2.5c0.6-0.9,1.5-1.3,2.7-1.3C216.7,138.7,217.6,139.1,218.3,140z M217.4,144.5
			c0.4-0.6,0.6-1.3,0.6-2.1c0-0.8-0.2-1.5-0.7-2c-0.4-0.5-1-0.8-1.8-0.8c-0.7,0-1.3,0.3-1.8,0.8s-0.7,1.3-0.7,2.3
			c0,0.8,0.2,1.5,0.6,2c0.4,0.5,1.1,0.8,2,0.8C216.4,145.5,217,145.1,217.4,144.5z"/>
		<path class="st1" d="M221.2,138.9v4.4c0,0.5,0.1,1,0.3,1.3c0.3,0.5,0.8,0.8,1.5,0.8c0.8,0,1.4-0.3,1.7-0.8
			c0.2-0.3,0.2-0.7,0.2-1.2v-4.4h1v4c0,0.9-0.1,1.6-0.4,2c-0.4,0.9-1.3,1.3-2.5,1.3c-1.2,0-2-0.4-2.5-1.3c-0.2-0.5-0.4-1.2-0.4-2v-4
			H221.2z"/>
		<path class="st1" d="M232.6,138.9v0.9h-2.4v6.3h-1v-6.3h-2.4v-0.9H232.6z"/>
		<path class="st1" d="M233,148.2c0.5-1,0.9-1.7,1-2.2c0.2-0.7,0.3-1.5,0.3-2.5s-0.1-1.8-0.4-2.6c-0.2-0.5-0.5-1.2-1-2.1h0.6
			c0.5,0.8,0.8,1.3,0.9,1.5c0.1,0.2,0.2,0.4,0.3,0.8c0.2,0.4,0.3,0.8,0.3,1.2c0.1,0.4,0.1,0.8,0.1,1.1c0,1-0.2,1.8-0.5,2.6
			c-0.2,0.5-0.6,1.2-1.2,2.1H233z"/>
		<path class="st1" d="M239.7,138.9h3.2c0.6,0,1.1,0.2,1.5,0.5c0.4,0.4,0.6,0.9,0.6,1.5c0,0.6-0.2,1-0.5,1.5s-0.9,0.6-1.6,0.6h-2.2
			v3h-1V138.9z M243.4,139.9c-0.2-0.1-0.5-0.2-0.9-0.2h-1.9v2.5h1.9c0.4,0,0.8-0.1,1.1-0.3c0.3-0.2,0.4-0.5,0.4-1
			C244,140.5,243.8,140.1,243.4,139.9z"/>
		<path class="st1" d="M246.2,138.9h3.1c0.8,0,1.4,0.3,1.8,0.8c0.2,0.3,0.3,0.6,0.3,1c0,0.5-0.1,0.8-0.4,1.1
			c-0.1,0.2-0.3,0.3-0.6,0.4c0.4,0.1,0.6,0.3,0.8,0.5c0.3,0.3,0.5,0.7,0.5,1.3c0,0.5-0.1,0.9-0.4,1.3c-0.4,0.6-1.1,0.8-2.1,0.8h-3.1
			V138.9z M248.9,142c0.4,0,0.7-0.1,1-0.2c0.4-0.2,0.5-0.5,0.5-1c0-0.5-0.2-0.8-0.6-0.9c-0.2-0.1-0.5-0.1-1-0.1h-1.8v2.2H248.9z
			 M249.3,145.3c0.6,0,1-0.2,1.3-0.5c0.2-0.2,0.2-0.5,0.2-0.8c0-0.5-0.2-0.9-0.7-1.1c-0.2-0.1-0.6-0.2-1-0.2h-1.9v2.5H249.3z"/>
		<path class="st1" d="M252.8,144.5c0.2-0.4,0.6-0.9,1.3-1.2l0.9-0.5c0.4-0.2,0.7-0.5,0.9-0.6c0.3-0.3,0.4-0.6,0.4-0.9
			c0-0.4-0.1-0.7-0.4-1s-0.6-0.4-1-0.4c-0.6,0-1,0.2-1.2,0.7c-0.1,0.2-0.2,0.6-0.2,1h-0.9c0-0.6,0.1-1.1,0.3-1.5c0.4-0.7,1.1-1,2-1
			c0.8,0,1.4,0.2,1.8,0.6c0.4,0.4,0.6,0.9,0.6,1.4c0,0.6-0.2,1-0.6,1.4c-0.2,0.2-0.6,0.5-1.2,0.8l-0.7,0.4c-0.3,0.2-0.6,0.3-0.8,0.5
			c-0.3,0.3-0.5,0.6-0.6,0.9h3.8v0.8h-4.8C252.5,145.5,252.6,145,252.8,144.5z"/>
	</g>
	<g>
		<path class="st1" d="M119,153.2c-0.5,1-0.8,1.7-1,2.2c-0.2,0.7-0.3,1.5-0.3,2.5c0,0.9,0.1,1.8,0.4,2.6c0.2,0.5,0.5,1.2,1,2.1h-0.6
			c-0.5-0.7-0.8-1.2-0.9-1.4s-0.2-0.5-0.4-0.8c-0.2-0.5-0.3-1-0.4-1.5c0-0.3-0.1-0.6-0.1-0.8c0-1,0.2-1.8,0.5-2.6
			c0.2-0.5,0.6-1.2,1.2-2.1H119z"/>
		<path class="st1" d="M120.3,153.3h3.2c0.6,0,1.1,0.2,1.5,0.5c0.4,0.4,0.6,0.9,0.6,1.5c0,0.6-0.2,1-0.5,1.5s-0.9,0.6-1.6,0.6h-2.2
			v3h-1V153.3z M124,154.3c-0.2-0.1-0.5-0.2-0.9-0.2h-1.9v2.5h1.9c0.4,0,0.8-0.1,1.1-0.3c0.3-0.2,0.4-0.5,0.4-1
			C124.6,154.9,124.4,154.5,124,154.3z"/>
		<path class="st1" d="M131.9,153.9c0.5,0.5,0.8,1,0.8,1.6h-0.9c-0.1-0.5-0.3-0.8-0.6-1.1c-0.3-0.3-0.8-0.4-1.3-0.4
			c-0.7,0-1.3,0.2-1.7,0.7c-0.4,0.5-0.6,1.3-0.6,2.3c0,0.8,0.2,1.5,0.6,2s1,0.8,1.7,0.8c0.7,0,1.2-0.3,1.6-0.8
			c0.2-0.3,0.3-0.7,0.4-1.1h0.9c-0.1,0.8-0.4,1.4-0.8,1.9c-0.6,0.6-1.3,0.9-2.3,0.9c-0.8,0-1.5-0.3-2.1-0.8
			c-0.7-0.7-1.1-1.7-1.1-3.1c0-1.1,0.3-1.9,0.8-2.6c0.6-0.7,1.4-1.1,2.5-1.1C130.7,153.1,131.4,153.4,131.9,153.9z"/>
		<path class="st1" d="M134.3,153.3h1v7.2h-1V153.3z"/>
		<path class="st1" d="M136.8,153.3h1.1l3.6,5.8v-5.8h0.9v7.2h-1.1l-3.6-5.8v5.8h-0.9V153.3z"/>
		<path class="st1" d="M149.3,153.3v0.9h-2.4v6.3h-1v-6.3h-2.4v-0.9H149.3z"/>
		<path class="st1" d="M154.6,153.6v0.8c-0.2,0.2-0.5,0.6-0.9,1.1c-0.4,0.5-0.7,1.1-1,1.7c-0.3,0.6-0.5,1.2-0.6,1.7
			c-0.1,0.3-0.2,0.8-0.4,1.6h-1c0.2-1.3,0.7-2.7,1.5-4c0.4-0.8,0.9-1.4,1.4-2h-3.9v-0.9H154.6z"/>
		<path class="st1" d="M157.3,153.3h0.7l-2.3,7.2H155L157.3,153.3z"/>
		<path class="st1" d="M158.7,153.3h1v7.2h-1V153.3z"/>
		<path class="st1" d="M166.4,153.9c0.5,0.5,0.8,1,0.8,1.6h-0.9c-0.1-0.5-0.3-0.8-0.6-1.1c-0.3-0.3-0.8-0.4-1.3-0.4
			c-0.7,0-1.3,0.2-1.7,0.7c-0.4,0.5-0.6,1.3-0.6,2.3c0,0.8,0.2,1.5,0.6,2s1,0.8,1.7,0.8c0.7,0,1.2-0.3,1.6-0.8
			c0.2-0.3,0.3-0.7,0.4-1.1h0.9c-0.1,0.8-0.4,1.4-0.8,1.9c-0.6,0.6-1.3,0.9-2.3,0.9c-0.8,0-1.5-0.3-2.1-0.8
			c-0.7-0.7-1.1-1.7-1.1-3.1c0-1.1,0.3-1.9,0.8-2.6c0.6-0.7,1.4-1.1,2.5-1.1C165.2,153.1,165.9,153.4,166.4,153.9z"/>
		<path class="st1" d="M168.6,153.3h3.2c0.6,0,1.1,0.2,1.5,0.5c0.4,0.4,0.6,0.9,0.6,1.5c0,0.6-0.2,1-0.5,1.5s-0.9,0.6-1.6,0.6h-2.2
			v3h-1V153.3z M172.4,154.3c-0.2-0.1-0.5-0.2-0.9-0.2h-1.9v2.5h1.9c0.4,0,0.8-0.1,1.1-0.3c0.3-0.2,0.4-0.5,0.4-1
			C173,154.9,172.8,154.5,172.4,154.3z"/>
		<path class="st1" d="M176.7,153.3h0.7l-2.3,7.2h-0.7L176.7,153.3z"/>
		<path class="st1" d="M183.9,154.4c0.5,0.6,0.7,1.4,0.7,2.4c0,1.1-0.3,2-0.8,2.7c-0.6,0.8-1.5,1.2-2.7,1.2c-1.1,0-2-0.4-2.6-1.1
			c-0.6-0.7-0.8-1.6-0.8-2.7c0-1,0.2-1.8,0.7-2.5c0.6-0.9,1.5-1.3,2.7-1.3C182.3,153.1,183.3,153.5,183.9,154.4z M183,158.9
			c0.4-0.6,0.6-1.3,0.6-2.1c0-0.8-0.2-1.5-0.7-2c-0.4-0.5-1-0.8-1.8-0.8c-0.7,0-1.3,0.3-1.8,0.8s-0.7,1.3-0.7,2.3
			c0,0.8,0.2,1.5,0.6,2c0.4,0.5,1.1,0.8,2,0.8C182,159.9,182.6,159.5,183,158.9z"/>
		<path class="st1" d="M190.8,153.9c0.5,0.5,0.8,1,0.8,1.6h-0.9c-0.1-0.5-0.3-0.8-0.6-1.1c-0.3-0.3-0.8-0.4-1.3-0.4
			c-0.7,0-1.3,0.2-1.7,0.7c-0.4,0.5-0.6,1.3-0.6,2.3c0,0.8,0.2,1.5,0.6,2s1,0.8,1.7,0.8c0.7,0,1.2-0.3,1.6-0.8
			c0.2-0.3,0.3-0.7,0.4-1.1h0.9c-0.1,0.8-0.4,1.4-0.8,1.9c-0.6,0.6-1.3,0.9-2.3,0.9c-0.8,0-1.5-0.3-2.1-0.8
			c-0.7-0.7-1.1-1.7-1.1-3.1c0-1.1,0.3-1.9,0.8-2.6c0.6-0.7,1.4-1.1,2.5-1.1C189.6,153.1,190.3,153.4,190.8,153.9z"/>
		<path class="st1" d="M196.9,154.6c0.3,0.6,0.5,1.4,0.5,2.4c0,1-0.1,1.7-0.4,2.4c-0.4,0.9-1.1,1.3-2,1.3c-0.8,0-1.5-0.4-1.9-1.1
			c-0.3-0.6-0.5-1.4-0.5-2.5c0-0.8,0.1-1.5,0.3-2c0.4-1.1,1.1-1.6,2.1-1.6C195.8,153.5,196.5,153.9,196.9,154.6z M196,159.3
			c0.3-0.4,0.4-1.2,0.4-2.3c0-0.8-0.1-1.4-0.3-2c-0.2-0.5-0.6-0.8-1.1-0.8c-0.5,0-0.9,0.2-1.1,0.7c-0.2,0.5-0.4,1.2-0.4,2.2
			c0,0.7,0.1,1.3,0.2,1.7c0.2,0.7,0.6,1,1.2,1C195.4,159.9,195.7,159.7,196,159.3z"/>
		<path class="st1" d="M198.5,153.3h3.1c0.8,0,1.4,0.3,1.8,0.8c0.2,0.3,0.3,0.6,0.3,1c0,0.5-0.1,0.8-0.4,1.1
			c-0.1,0.2-0.3,0.3-0.6,0.4c0.4,0.1,0.6,0.3,0.8,0.5c0.3,0.3,0.5,0.7,0.5,1.3c0,0.5-0.1,0.9-0.4,1.3c-0.4,0.6-1.1,0.8-2.1,0.8h-3.1
			V153.3z M201.2,156.4c0.4,0,0.7-0.1,1-0.2c0.4-0.2,0.5-0.5,0.5-1c0-0.5-0.2-0.8-0.6-0.9c-0.2-0.1-0.5-0.1-1-0.1h-1.8v2.2H201.2z
			 M201.6,159.7c0.6,0,1-0.2,1.3-0.5c0.2-0.2,0.2-0.5,0.2-0.8c0-0.5-0.2-0.9-0.7-1.1c-0.2-0.1-0.6-0.2-1-0.2h-1.9v2.5H201.6z"/>
		<path class="st1" d="M206.7,153.3h0.7l-2.3,7.2h-0.7L206.7,153.3z"/>
		<path class="st1" d="M210.1,153.3h1.1l2.6,7.2h-1.1l-0.7-2.1h-2.8l-0.8,2.1h-1L210.1,153.3z M211.7,157.6l-1.1-3.2l-1.1,3.2H211.7
			z"/>
		<path class="st1" d="M214.7,153.3h2.9c1,0,1.7,0.4,2.3,1c0.5,0.6,0.7,1.4,0.7,2.4c0,0.8-0.1,1.5-0.4,2.1c-0.5,1.1-1.4,1.6-2.6,1.6
			h-2.9V153.3z M217.4,159.7c0.3,0,0.6,0,0.8-0.1c0.4-0.1,0.7-0.4,0.9-0.7c0.2-0.3,0.3-0.7,0.4-1.1c0-0.3,0.1-0.5,0.1-0.8
			c0-0.9-0.2-1.6-0.5-2.1c-0.3-0.5-0.9-0.7-1.7-0.7h-1.7v5.5H217.4z"/>
		<path class="st1" d="M226.9,153.9c0.5,0.5,0.8,1,0.8,1.6h-0.9c-0.1-0.5-0.3-0.8-0.6-1.1c-0.3-0.3-0.8-0.4-1.3-0.4
			c-0.7,0-1.3,0.2-1.7,0.7c-0.4,0.5-0.6,1.3-0.6,2.3c0,0.8,0.2,1.5,0.6,2s1,0.8,1.7,0.8c0.7,0,1.2-0.3,1.6-0.8
			c0.2-0.3,0.3-0.7,0.4-1.1h0.9c-0.1,0.8-0.4,1.4-0.8,1.9c-0.6,0.6-1.3,0.9-2.3,0.9c-0.8,0-1.5-0.3-2.1-0.8
			c-0.7-0.7-1.1-1.7-1.1-3.1c0-1.1,0.3-1.9,0.8-2.6c0.6-0.7,1.4-1.1,2.5-1.1C225.7,153.1,226.4,153.4,226.9,153.9z"/>
		<path class="st1" d="M233.6,153.6v0.8c-0.2,0.2-0.5,0.6-0.9,1.1c-0.4,0.5-0.7,1.1-1,1.7c-0.3,0.6-0.5,1.2-0.6,1.7
			c-0.1,0.3-0.2,0.8-0.4,1.6h-1c0.2-1.3,0.7-2.7,1.5-4c0.4-0.8,0.9-1.4,1.4-2h-3.9v-0.9H233.6z"/>
		<path class="st1" d="M234.2,162.6c0.5-1,0.9-1.7,1-2.2c0.2-0.7,0.3-1.5,0.3-2.5s-0.1-1.8-0.4-2.6c-0.2-0.5-0.5-1.2-1-2.1h0.6
			c0.5,0.8,0.8,1.3,0.9,1.5c0.1,0.2,0.2,0.4,0.3,0.8c0.2,0.4,0.3,0.8,0.3,1.2c0.1,0.4,0.1,0.8,0.1,1.1c0,1-0.2,1.8-0.5,2.6
			c-0.2,0.5-0.6,1.2-1.2,2.1H234.2z"/>
		<path class="st1" d="M240.9,153.3h3.2c0.6,0,1.1,0.2,1.5,0.5c0.4,0.4,0.6,0.9,0.6,1.5c0,0.6-0.2,1-0.5,1.5s-0.9,0.6-1.6,0.6h-2.2
			v3h-1V153.3z M244.6,154.3c-0.2-0.1-0.5-0.2-0.9-0.2h-1.9v2.5h1.9c0.4,0,0.8-0.1,1.1-0.3c0.3-0.2,0.4-0.5,0.4-1
			C245.2,154.9,245,154.5,244.6,154.3z"/>
		<path class="st1" d="M248.3,153.3h1.1l2.6,7.2H251l-0.7-2.1h-2.8l-0.8,2.1h-1L248.3,153.3z M249.9,157.6l-1.1-3.2l-1.1,3.2H249.9z
			"/>
		<path class="st1" d="M257.4,153.6v0.8c-0.2,0.2-0.5,0.6-0.9,1.1c-0.4,0.5-0.7,1.1-1,1.7c-0.3,0.6-0.5,1.2-0.6,1.7
			c-0.1,0.3-0.2,0.8-0.4,1.6h-1c0.2-1.3,0.7-2.7,1.5-4c0.4-0.8,0.9-1.4,1.4-2h-3.9v-0.9H257.4z"/>
	</g>
	<g>
		<path class="st1" d="M74.4,167.6c-0.5,1-0.8,1.7-1,2.2c-0.2,0.7-0.3,1.5-0.3,2.5c0,0.9,0.1,1.8,0.4,2.6c0.2,0.5,0.5,1.2,1,2.1
			h-0.6c-0.5-0.7-0.8-1.2-0.9-1.4s-0.2-0.5-0.4-0.8c-0.2-0.5-0.3-1-0.4-1.5c0-0.3-0.1-0.6-0.1-0.8c0-1,0.2-1.8,0.5-2.6
			c0.2-0.5,0.6-1.2,1.2-2.1H74.4z"/>
		<path class="st1" d="M75.7,167.7h3.2c0.6,0,1.1,0.2,1.5,0.5c0.4,0.4,0.6,0.9,0.6,1.5c0,0.6-0.2,1-0.5,1.5s-0.9,0.6-1.6,0.6h-2.2v3
			h-1V167.7z M79.4,168.7c-0.2-0.1-0.5-0.2-0.9-0.2h-1.9v2.5h1.9c0.4,0,0.8-0.1,1.1-0.3c0.3-0.2,0.4-0.5,0.4-1
			C80,169.3,79.8,168.9,79.4,168.7z"/>
		<path class="st1" d="M87.3,168.3c0.5,0.5,0.8,1,0.8,1.6h-0.9c-0.1-0.5-0.3-0.8-0.6-1.1c-0.3-0.3-0.8-0.4-1.3-0.4
			c-0.7,0-1.3,0.2-1.7,0.7c-0.4,0.5-0.6,1.3-0.6,2.3c0,0.8,0.2,1.5,0.6,2s1,0.8,1.7,0.8c0.7,0,1.2-0.3,1.6-0.8
			c0.2-0.3,0.3-0.7,0.4-1.1h0.9c-0.1,0.8-0.4,1.4-0.8,1.9c-0.6,0.6-1.3,0.9-2.3,0.9c-0.8,0-1.5-0.3-2.1-0.8
			c-0.7-0.7-1.1-1.7-1.1-3.1c0-1.1,0.3-1.9,0.8-2.6c0.6-0.7,1.4-1.1,2.5-1.1C86.1,167.5,86.8,167.8,87.3,168.3z"/>
		<path class="st1" d="M89.7,167.7h1v7.2h-1V167.7z"/>
		<path class="st1" d="M92.2,167.7h1.1l3.6,5.8v-5.8h0.9v7.2h-1.1l-3.6-5.8v5.8h-0.9V167.7z"/>
		<path class="st1" d="M104.7,167.7v0.9h-2.4v6.3h-1v-6.3h-2.4v-0.9H104.7z"/>
		<path class="st1" d="M109.4,168.5c0.3,0.4,0.5,0.8,0.5,1.3H109c-0.1-0.3-0.1-0.5-0.2-0.6c-0.2-0.3-0.5-0.4-1-0.4
			c-0.5,0-0.9,0.2-1.2,0.7s-0.5,1.1-0.5,2c0.2-0.3,0.5-0.5,0.8-0.7c0.3-0.1,0.6-0.2,0.9-0.2c0.6,0,1.1,0.2,1.5,0.6
			c0.4,0.4,0.7,0.9,0.7,1.7c0,0.6-0.2,1.2-0.6,1.7c-0.4,0.5-1,0.7-1.8,0.7c-0.7,0-1.2-0.2-1.7-0.7s-0.7-1.3-0.7-2.5
			c0-0.9,0.1-1.6,0.3-2.2c0.4-1.2,1.2-1.7,2.2-1.7C108.5,167.9,109.1,168.1,109.4,168.5z M108.7,173.8c0.2-0.3,0.3-0.7,0.3-1.1
			c0-0.4-0.1-0.7-0.3-1c-0.2-0.3-0.6-0.5-1.1-0.5c-0.4,0-0.7,0.1-1,0.4c-0.3,0.3-0.4,0.6-0.4,1.1c0,0.4,0.1,0.8,0.4,1.1
			s0.6,0.5,1.1,0.5C108.1,174.3,108.5,174.2,108.7,173.8z"/>
		<path class="st1" d="M112.6,167.7h0.7l-2.3,7.2h-0.7L112.6,167.7z"/>
		<path class="st1" d="M119.8,168.8c0.5,0.6,0.7,1.4,0.7,2.4c0,1.1-0.3,2-0.8,2.7c-0.6,0.8-1.5,1.2-2.7,1.2c-1.1,0-2-0.4-2.6-1.1
			c-0.6-0.7-0.8-1.6-0.8-2.7c0-1,0.2-1.8,0.7-2.5c0.6-0.9,1.5-1.3,2.7-1.3C118.3,167.5,119.2,167.9,119.8,168.8z M119,173.3
			c0.4-0.6,0.6-1.3,0.6-2.1c0-0.8-0.2-1.5-0.7-2c-0.4-0.5-1-0.8-1.8-0.8c-0.7,0-1.3,0.3-1.8,0.8s-0.7,1.3-0.7,2.3
			c0,0.8,0.2,1.5,0.6,2c0.4,0.5,1.1,0.8,2,0.8C118,174.3,118.6,173.9,119,173.3z"/>
		<path class="st1" d="M126.8,168.3c0.5,0.5,0.8,1,0.8,1.6h-0.9c-0.1-0.5-0.3-0.8-0.6-1.1c-0.3-0.3-0.8-0.4-1.3-0.4
			c-0.7,0-1.3,0.2-1.7,0.7c-0.4,0.5-0.6,1.3-0.6,2.3c0,0.8,0.2,1.5,0.6,2s1,0.8,1.7,0.8c0.7,0,1.2-0.3,1.6-0.8
			c0.2-0.3,0.3-0.7,0.4-1.1h0.9c-0.1,0.8-0.4,1.4-0.8,1.9c-0.6,0.6-1.3,0.9-2.3,0.9c-0.8,0-1.5-0.3-2.1-0.8
			c-0.7-0.7-1.1-1.7-1.1-3.1c0-1.1,0.3-1.9,0.8-2.6c0.6-0.7,1.4-1.1,2.5-1.1C125.6,167.5,126.3,167.8,126.8,168.3z"/>
		<path class="st1" d="M129.1,170v-0.7c0.6-0.1,1.1-0.2,1.3-0.3c0.3-0.1,0.4-0.5,0.6-1h0.7v7h-0.9v-5H129.1z"/>
		<path class="st1" d="M136.6,167.7h1.1l2.6,7.2h-1.1l-0.7-2.1h-2.8l-0.8,2.1h-1L136.6,167.7z M138.2,172l-1.1-3.2l-1.1,3.2H138.2z"
			/>
		<path class="st1" d="M142.7,167.7h0.7l-2.3,7.2h-0.7L142.7,167.7z"/>
		<path class="st1" d="M144.5,172.6c0,0.4,0.1,0.7,0.3,1c0.3,0.5,0.9,0.7,1.6,0.7c0.4,0,0.7-0.1,1-0.2c0.6-0.2,0.8-0.6,0.8-1.1
			c0-0.4-0.1-0.7-0.4-0.8c-0.2-0.2-0.6-0.3-1.1-0.4l-0.9-0.2c-0.6-0.1-1-0.3-1.3-0.5c-0.4-0.3-0.7-0.7-0.7-1.3
			c0-0.6,0.2-1.2,0.7-1.6c0.4-0.4,1-0.6,1.8-0.6c0.7,0,1.4,0.2,1.9,0.5c0.5,0.4,0.8,0.9,0.8,1.7h-0.9c0-0.4-0.1-0.7-0.3-0.9
			c-0.3-0.4-0.8-0.6-1.4-0.6c-0.5,0-0.9,0.1-1.2,0.4c-0.2,0.2-0.4,0.5-0.4,0.8c0,0.4,0.1,0.6,0.4,0.8c0.2,0.1,0.6,0.2,1.3,0.4l1,0.2
			c0.5,0.1,0.8,0.3,1.1,0.5c0.4,0.3,0.7,0.8,0.7,1.5c0,0.8-0.3,1.4-0.8,1.7s-1.2,0.5-2,0.5c-0.9,0-1.6-0.2-2-0.7
			c-0.5-0.5-0.7-1.1-0.7-1.8H144.5z"/>
		<path class="st1" d="M150.6,167.7h2.9c1,0,1.7,0.4,2.3,1c0.5,0.6,0.7,1.4,0.7,2.4c0,0.8-0.1,1.5-0.4,2.1c-0.5,1.1-1.4,1.6-2.6,1.6
			h-2.9V167.7z M153.3,174.1c0.3,0,0.6,0,0.8-0.1c0.4-0.1,0.7-0.4,0.9-0.7c0.2-0.3,0.3-0.7,0.4-1.1c0-0.3,0.1-0.5,0.1-0.8
			c0-0.9-0.2-1.6-0.5-2.1c-0.3-0.5-0.9-0.7-1.7-0.7h-1.7v5.5H153.3z"/>
		<path class="st1" d="M159.5,167.7h1.1l2.6,7.2h-1.1l-0.7-2.1h-2.8l-0.8,2.1h-1L159.5,167.7z M161.1,172l-1.1-3.2l-1.1,3.2H161.1z"
			/>
		<path class="st1" d="M165.6,167.7h0.7l-2.3,7.2h-0.7L165.6,167.7z"/>
		<path class="st1" d="M166.8,167.7h1.4l2.1,6.1l2-6.1h1.4v7.2h-0.9v-4.2c0-0.1,0-0.4,0-0.7c0-0.3,0-0.7,0-1.1l-2,6h-1l-2.1-6v0.2
			c0,0.2,0,0.4,0,0.8c0,0.4,0,0.6,0,0.8v4.2h-0.9V167.7z"/>
		<path class="st1" d="M181.1,168.8c0.5,0.6,0.7,1.4,0.7,2.4c0,1.1-0.3,2-0.8,2.7c-0.6,0.8-1.5,1.2-2.7,1.2c-1.1,0-2-0.4-2.6-1.1
			c-0.6-0.7-0.8-1.6-0.8-2.7c0-1,0.2-1.8,0.7-2.5c0.6-0.9,1.5-1.3,2.7-1.3C179.6,167.5,180.5,167.9,181.1,168.8z M180.2,173.3
			c0.4-0.6,0.6-1.3,0.6-2.1c0-0.8-0.2-1.5-0.7-2c-0.4-0.5-1-0.8-1.8-0.8c-0.7,0-1.3,0.3-1.8,0.8s-0.7,1.3-0.7,2.3
			c0,0.8,0.2,1.5,0.6,2c0.4,0.5,1.1,0.8,2,0.8C179.2,174.3,179.9,173.9,180.2,173.3z"/>
		<path class="st1" d="M183.6,172.6c0,0.4,0.1,0.7,0.3,1c0.3,0.5,0.9,0.7,1.6,0.7c0.4,0,0.7-0.1,1-0.2c0.6-0.2,0.8-0.6,0.8-1.1
			c0-0.4-0.1-0.7-0.4-0.8c-0.2-0.2-0.6-0.3-1.1-0.4l-0.9-0.2c-0.6-0.1-1-0.3-1.3-0.5c-0.4-0.3-0.7-0.7-0.7-1.3
			c0-0.6,0.2-1.2,0.7-1.6c0.4-0.4,1-0.6,1.8-0.6c0.7,0,1.4,0.2,1.9,0.5c0.5,0.4,0.8,0.9,0.8,1.7h-0.9c0-0.4-0.1-0.7-0.3-0.9
			c-0.3-0.4-0.8-0.6-1.4-0.6c-0.5,0-0.9,0.1-1.2,0.4c-0.2,0.2-0.4,0.5-0.4,0.8c0,0.4,0.1,0.6,0.4,0.8c0.2,0.1,0.6,0.2,1.3,0.4l1,0.2
			c0.5,0.1,0.8,0.3,1.1,0.5c0.4,0.3,0.7,0.8,0.7,1.5c0,0.8-0.3,1.4-0.8,1.7s-1.2,0.5-2,0.5c-0.9,0-1.6-0.2-2-0.7
			c-0.5-0.5-0.7-1.1-0.7-1.8H183.6z"/>
		<path class="st1" d="M189.9,167.7h1v7.2h-1V167.7z"/>
		<path class="st1" d="M193.9,167.7h0.7l-2.3,7.2h-0.7L193.9,167.7z"/>
		<path class="st1" d="M195.2,167.7h2.9c1,0,1.7,0.4,2.3,1c0.5,0.6,0.7,1.4,0.7,2.4c0,0.8-0.1,1.5-0.4,2.1c-0.5,1.1-1.4,1.6-2.6,1.6
			h-2.9V167.7z M197.9,174.1c0.3,0,0.6,0,0.8-0.1c0.4-0.1,0.7-0.4,0.9-0.7c0.2-0.3,0.3-0.7,0.4-1.1c0-0.3,0.1-0.5,0.1-0.8
			c0-0.9-0.2-1.6-0.5-2.1c-0.3-0.5-0.9-0.7-1.7-0.7h-1.7v5.5H197.9z"/>
		<path class="st1" d="M202.6,167.7h1v7.2h-1V167.7z"/>
		<path class="st1" d="M206.7,167.7h0.7l-2.3,7.2h-0.7L206.7,167.7z"/>
		<path class="st1" d="M210.1,167.7h1.1l2.6,7.2h-1.1l-0.7-2.1h-2.8l-0.8,2.1h-1L210.1,167.7z M211.7,172l-1.1-3.2l-1.1,3.2H211.7z"
			/>
		<path class="st1" d="M214.7,167.7h2.9c1,0,1.7,0.4,2.3,1c0.5,0.6,0.7,1.4,0.7,2.4c0,0.8-0.1,1.5-0.4,2.1c-0.5,1.1-1.4,1.6-2.6,1.6
			h-2.9V167.7z M217.4,174.1c0.3,0,0.6,0,0.8-0.1c0.4-0.1,0.7-0.4,0.9-0.7c0.2-0.3,0.3-0.7,0.4-1.1c0-0.3,0.1-0.5,0.1-0.8
			c0-0.9-0.2-1.6-0.5-2.1c-0.3-0.5-0.9-0.7-1.7-0.7h-1.7v5.5H217.4z"/>
		<path class="st1" d="M226.9,168.3c0.5,0.5,0.8,1,0.8,1.6h-0.9c-0.1-0.5-0.3-0.8-0.6-1.1c-0.3-0.3-0.8-0.4-1.3-0.4
			c-0.7,0-1.3,0.2-1.7,0.7c-0.4,0.5-0.6,1.3-0.6,2.3c0,0.8,0.2,1.5,0.6,2s1,0.8,1.7,0.8c0.7,0,1.2-0.3,1.6-0.8
			c0.2-0.3,0.3-0.7,0.4-1.1h0.9c-0.1,0.8-0.4,1.4-0.8,1.9c-0.6,0.6-1.3,0.9-2.3,0.9c-0.8,0-1.5-0.3-2.1-0.8
			c-0.7-0.7-1.1-1.7-1.1-3.1c0-1.1,0.3-1.9,0.8-2.6c0.6-0.7,1.4-1.1,2.5-1.1C225.8,167.5,226.4,167.8,226.9,168.3z"/>
		<path class="st1" d="M232.9,168.5c0.3,0.4,0.5,0.8,0.5,1.3h-0.9c-0.1-0.3-0.1-0.5-0.2-0.6c-0.2-0.3-0.5-0.4-1-0.4
			c-0.5,0-0.9,0.2-1.2,0.7s-0.5,1.1-0.5,2c0.2-0.3,0.5-0.5,0.8-0.7c0.3-0.1,0.6-0.2,0.9-0.2c0.6,0,1.1,0.2,1.5,0.6
			c0.4,0.4,0.7,0.9,0.7,1.7c0,0.6-0.2,1.2-0.6,1.7c-0.4,0.5-1,0.7-1.8,0.7c-0.7,0-1.2-0.2-1.7-0.7s-0.7-1.3-0.7-2.5
			c0-0.9,0.1-1.6,0.3-2.2c0.4-1.2,1.2-1.7,2.2-1.7C232,167.9,232.6,168.1,232.9,168.5z M232.2,173.8c0.2-0.3,0.3-0.7,0.3-1.1
			c0-0.4-0.1-0.7-0.3-1c-0.2-0.3-0.6-0.5-1.1-0.5c-0.4,0-0.7,0.1-1,0.4c-0.3,0.3-0.4,0.6-0.4,1.1c0,0.4,0.1,0.8,0.4,1.1
			s0.6,0.5,1.1,0.5C231.7,174.3,232,174.2,232.2,173.8z"/>
		<path class="st1" d="M234.2,177c0.5-1,0.9-1.7,1-2.2c0.2-0.7,0.3-1.5,0.3-2.5s-0.1-1.8-0.4-2.6c-0.2-0.5-0.5-1.2-1-2.1h0.6
			c0.5,0.8,0.8,1.3,0.9,1.5c0.1,0.2,0.2,0.4,0.3,0.8c0.2,0.4,0.3,0.8,0.3,1.2c0.1,0.4,0.1,0.8,0.1,1.1c0,1-0.2,1.8-0.5,2.6
			c-0.2,0.5-0.6,1.2-1.2,2.1H234.2z"/>
		<path class="st1" d="M240.9,167.7h3.2c0.6,0,1.1,0.2,1.5,0.5c0.4,0.4,0.6,0.9,0.6,1.5c0,0.6-0.2,1-0.5,1.5s-0.9,0.6-1.6,0.6h-2.2
			v3h-1V167.7z M244.6,168.7c-0.2-0.1-0.5-0.2-0.9-0.2h-1.9v2.5h1.9c0.4,0,0.8-0.1,1.1-0.3c0.3-0.2,0.4-0.5,0.4-1
			C245.2,169.3,245,168.9,244.6,168.7z"/>
		<path class="st1" d="M248.3,167.7h1.1l2.6,7.2H251l-0.7-2.1h-2.8l-0.8,2.1h-1L248.3,167.7z M249.9,172l-1.1-3.2l-1.1,3.2H249.9z"
			/>
		<path class="st1" d="M256.7,168.5c0.3,0.4,0.5,0.8,0.5,1.3h-0.9c-0.1-0.3-0.1-0.5-0.2-0.6c-0.2-0.3-0.5-0.4-1-0.4
			c-0.5,0-0.9,0.2-1.2,0.7s-0.5,1.1-0.5,2c0.2-0.3,0.5-0.5,0.8-0.7c0.3-0.1,0.6-0.2,0.9-0.2c0.6,0,1.1,0.2,1.5,0.6
			c0.4,0.4,0.7,0.9,0.7,1.7c0,0.6-0.2,1.2-0.6,1.7c-0.4,0.5-1,0.7-1.8,0.7c-0.7,0-1.2-0.2-1.7-0.7s-0.7-1.3-0.7-2.5
			c0-0.9,0.1-1.6,0.3-2.2c0.4-1.2,1.2-1.7,2.2-1.7C255.9,167.9,256.4,168.1,256.7,168.5z M256.1,173.8c0.2-0.3,0.3-0.7,0.3-1.1
			c0-0.4-0.1-0.7-0.3-1c-0.2-0.3-0.6-0.5-1.1-0.5c-0.4,0-0.7,0.1-1,0.4c-0.3,0.3-0.4,0.6-0.4,1.1c0,0.4,0.1,0.8,0.4,1.1
			s0.6,0.5,1.1,0.5C255.5,174.3,255.8,174.2,256.1,173.8z"/>
	</g>
	<g>
		<path class="st1" d="M344.4,81.5c0.7,0.4,1.1,1,1.3,2h-1c-0.1-0.5-0.4-0.9-0.7-1.1c-0.4-0.2-0.8-0.4-1.4-0.4
			c-0.7,0-1.2,0.2-1.6,0.7c-0.4,0.5-0.7,1.2-0.7,2.2c0,0.9,0.2,1.5,0.6,2.1s1,0.8,1.8,0.8c0.6,0,1.2-0.2,1.6-0.6s0.6-1,0.6-1.8h-2.2
			v-0.8h3.2v3.8h-0.6l-0.2-0.9c-0.3,0.4-0.6,0.6-0.9,0.8c-0.4,0.2-1,0.4-1.6,0.4c-0.8,0-1.6-0.3-2.2-0.8c-0.7-0.7-1-1.6-1-2.8
			c0-1.2,0.3-2.2,1-2.9c0.6-0.7,1.4-1,2.4-1C343.4,81.1,343.9,81.3,344.4,81.5z"/>
		<path class="st1" d="M347.4,81.3h1.1l3.6,5.8v-5.8h0.9v7.2H352l-3.6-5.8v5.8h-0.9V81.3z"/>
		<path class="st1" d="M354.7,81.3h2.9c1,0,1.7,0.4,2.3,1c0.5,0.6,0.7,1.4,0.7,2.4c0,0.8-0.1,1.5-0.4,2.1c-0.5,1.1-1.4,1.6-2.6,1.6
			h-2.9V81.3z M357.4,87.7c0.3,0,0.6,0,0.8-0.1c0.4-0.1,0.7-0.4,0.9-0.7c0.2-0.3,0.3-0.7,0.4-1.1c0-0.3,0.1-0.5,0.1-0.8
			c0-0.9-0.2-1.6-0.5-2.1c-0.3-0.5-0.9-0.7-1.7-0.7h-1.7v5.5H357.4z"/>
	</g>
	<g>
		<path class="st1" d="M339.7,95.7h3.2c0.6,0,1.1,0.2,1.5,0.5c0.4,0.4,0.6,0.9,0.6,1.5c0,0.6-0.2,1-0.5,1.5s-0.9,0.6-1.6,0.6h-2.2v3
			h-1V95.7z M343.5,96.7c-0.2-0.1-0.5-0.2-0.9-0.2h-1.9v2.5h1.9c0.4,0,0.8-0.1,1.1-0.3c0.3-0.2,0.4-0.5,0.4-1
			C344.1,97.3,343.9,96.9,343.5,96.7z"/>
		<path class="st1" d="M347.2,95.7h1.1l2.6,7.2h-1.1l-0.7-2.1h-2.8l-0.8,2.1h-1L347.2,95.7z M348.8,100l-1.1-3.2l-1.1,3.2H348.8z"/>
		<path class="st1" d="M355.7,97c0.3,0.6,0.5,1.4,0.5,2.4c0,1-0.1,1.7-0.4,2.4c-0.4,0.9-1.1,1.3-2,1.3c-0.8,0-1.5-0.4-1.9-1.1
			c-0.3-0.6-0.5-1.4-0.5-2.5c0-0.8,0.1-1.5,0.3-2c0.4-1.1,1.1-1.6,2.1-1.6C354.6,95.9,355.3,96.3,355.7,97z M354.8,101.7
			c0.3-0.4,0.4-1.2,0.4-2.3c0-0.8-0.1-1.4-0.3-2c-0.2-0.5-0.6-0.8-1.1-0.8c-0.5,0-0.9,0.2-1.1,0.7c-0.2,0.5-0.4,1.2-0.4,2.2
			c0,0.7,0.1,1.3,0.2,1.7c0.2,0.7,0.6,1,1.2,1C354.2,102.3,354.5,102.1,354.8,101.7z"/>
		<path class="st1" d="M362.3,95.6c-0.5,1-0.8,1.7-1,2.2c-0.2,0.7-0.3,1.5-0.3,2.5c0,0.9,0.1,1.8,0.4,2.6c0.2,0.5,0.5,1.2,1,2.1
			h-0.6c-0.5-0.7-0.8-1.2-0.9-1.4c-0.1-0.2-0.2-0.5-0.4-0.8c-0.2-0.5-0.3-1-0.4-1.5c0-0.3-0.1-0.6-0.1-0.8c0-1,0.2-1.8,0.5-2.6
			c0.2-0.5,0.6-1.2,1.2-2.1H362.3z"/>
		<path class="st1" d="M365.6,95.7h1.1l2.6,7.2h-1.1l-0.7-2.1h-2.8l-0.8,2.1h-1L365.6,95.7z M367.2,100l-1.1-3.2l-1.1,3.2H367.2z"/>
		<path class="st1" d="M370.2,95.7h2.9c1,0,1.7,0.4,2.3,1c0.5,0.6,0.7,1.4,0.7,2.4c0,0.8-0.1,1.5-0.4,2.1c-0.5,1.1-1.4,1.6-2.6,1.6
			h-2.9V95.7z M372.9,102.1c0.3,0,0.6,0,0.8-0.1c0.4-0.1,0.7-0.4,0.9-0.7c0.2-0.3,0.3-0.7,0.4-1.1c0-0.3,0.1-0.5,0.1-0.8
			c0-0.9-0.2-1.6-0.5-2.1c-0.3-0.5-0.9-0.7-1.7-0.7h-1.7v5.5H372.9z"/>
		<path class="st1" d="M382.4,96.3c0.5,0.5,0.8,1,0.8,1.6h-0.9c-0.1-0.5-0.3-0.8-0.6-1.1c-0.3-0.3-0.8-0.4-1.3-0.4
			c-0.7,0-1.3,0.2-1.7,0.7c-0.4,0.5-0.6,1.3-0.6,2.3c0,0.8,0.2,1.5,0.6,2c0.4,0.5,1,0.8,1.7,0.8c0.7,0,1.2-0.3,1.6-0.8
			c0.2-0.3,0.3-0.7,0.4-1.1h0.9c-0.1,0.8-0.4,1.4-0.8,1.9c-0.6,0.6-1.3,0.9-2.3,0.9c-0.8,0-1.5-0.3-2.1-0.8
			c-0.7-0.7-1.1-1.7-1.1-3.1c0-1.1,0.3-1.9,0.8-2.6c0.6-0.7,1.4-1.1,2.5-1.1C381.2,95.5,381.9,95.8,382.4,96.3z"/>
		<path class="st1" d="M388.5,97c0.3,0.6,0.5,1.4,0.5,2.4c0,1-0.1,1.7-0.4,2.4c-0.4,0.9-1.1,1.3-2,1.3c-0.8,0-1.5-0.4-1.9-1.1
			c-0.3-0.6-0.5-1.4-0.5-2.5c0-0.8,0.1-1.5,0.3-2c0.4-1.1,1.1-1.6,2.1-1.6C387.4,95.9,388.1,96.3,388.5,97z M387.6,101.7
			c0.3-0.4,0.4-1.2,0.4-2.3c0-0.8-0.1-1.4-0.3-2s-0.6-0.8-1.1-0.8c-0.5,0-0.9,0.2-1.1,0.7c-0.2,0.5-0.4,1.2-0.4,2.2
			c0,0.7,0.1,1.3,0.2,1.7c0.2,0.7,0.6,1,1.2,1C387,102.3,387.3,102.1,387.6,101.7z"/>
		<path class="st1" d="M391.7,95.7h0.7l-2.3,7.2h-0.7L391.7,95.7z"/>
		<path class="st1" d="M395,95.7h1.1l2.6,7.2h-1.1l-0.7-2.1h-2.8l-0.8,2.1h-1L395,95.7z M396.6,100l-1.1-3.2l-1.1,3.2H396.6z"/>
		<path class="st1" d="M399.7,95.7h3.3c0.5,0,1,0.1,1.3,0.2c0.7,0.3,1,0.9,1,1.7c0,0.4-0.1,0.8-0.3,1.1s-0.4,0.5-0.7,0.7
			c0.3,0.1,0.5,0.3,0.6,0.4c0.1,0.2,0.2,0.5,0.2,0.9l0,1c0,0.3,0,0.5,0.1,0.6c0.1,0.2,0.2,0.4,0.3,0.4v0.2h-1.2
			c0-0.1-0.1-0.1-0.1-0.2s0-0.3,0-0.6l-0.1-1.2c0-0.5-0.2-0.8-0.5-0.9c-0.2-0.1-0.5-0.1-0.8-0.1h-2.2v3.1h-1V95.7z M402.9,99
			c0.4,0,0.8-0.1,1.1-0.3c0.3-0.2,0.4-0.5,0.4-1c0-0.5-0.2-0.9-0.5-1c-0.2-0.1-0.5-0.1-0.8-0.1h-2.3V99H402.9z"/>
		<path class="st1" d="M406.9,95.7h5.2v0.9h-4.3v2.2h3.9v0.8h-3.9v2.4h4.3v0.9h-5.3V95.7z"/>
		<path class="st1" d="M413.6,95.7h5v0.9h-4v2.2h3.5v0.9h-3.5v3.3h-1V95.7z"/>
		<path class="st1" d="M421.1,95.7h0.7l-2.3,7.2h-0.7L421.1,95.7z"/>
		<path class="st1" d="M422.5,95.7h3.2c0.6,0,1.1,0.2,1.5,0.5c0.4,0.4,0.6,0.9,0.6,1.5c0,0.6-0.2,1-0.5,1.5s-0.9,0.6-1.6,0.6h-2.2v3
			h-1V95.7z M426.2,96.7c-0.2-0.1-0.5-0.2-0.9-0.2h-1.9v2.5h1.9c0.4,0,0.8-0.1,1.1-0.3c0.3-0.2,0.4-0.5,0.4-1
			C426.8,97.3,426.6,96.9,426.2,96.7z"/>
		<path class="st1" d="M434.1,96.3c0.5,0.5,0.8,1,0.8,1.6H434c-0.1-0.5-0.3-0.8-0.6-1.1c-0.3-0.3-0.8-0.4-1.3-0.4
			c-0.7,0-1.3,0.2-1.7,0.7c-0.4,0.5-0.6,1.3-0.6,2.3c0,0.8,0.2,1.5,0.6,2c0.4,0.5,1,0.8,1.7,0.8c0.7,0,1.2-0.3,1.6-0.8
			c0.2-0.3,0.3-0.7,0.4-1.1h0.9c-0.1,0.8-0.4,1.4-0.8,1.9c-0.6,0.6-1.3,0.9-2.3,0.9c-0.8,0-1.5-0.3-2.1-0.8
			c-0.7-0.7-1.1-1.7-1.1-3.1c0-1.1,0.3-1.9,0.8-2.6c0.6-0.7,1.4-1.1,2.5-1.1C432.9,95.5,433.6,95.8,434.1,96.3z"/>
		<path class="st1" d="M436.5,95.7h1v7.2h-1V95.7z"/>
		<path class="st1" d="M439,95.7h1.1l3.6,5.8v-5.8h0.9v7.2h-1.1l-3.6-5.8v5.8H439V95.7z"/>
		<path class="st1" d="M451.5,95.7v0.9h-2.4v6.3h-1v-6.3h-2.4v-0.9H451.5z"/>
		<path class="st1" d="M456.3,97c0.3,0.6,0.5,1.4,0.5,2.4c0,1-0.1,1.7-0.4,2.4c-0.4,0.9-1.1,1.3-2,1.3c-0.8,0-1.5-0.4-1.9-1.1
			c-0.3-0.6-0.5-1.4-0.5-2.5c0-0.8,0.1-1.5,0.3-2c0.4-1.1,1.1-1.6,2.1-1.6C455.2,95.9,455.9,96.3,456.3,97z M455.4,101.7
			c0.3-0.4,0.4-1.2,0.4-2.3c0-0.8-0.1-1.4-0.3-2s-0.6-0.8-1.1-0.8c-0.5,0-0.9,0.2-1.1,0.7c-0.2,0.5-0.4,1.2-0.4,2.2
			c0,0.7,0.1,1.3,0.2,1.7c0.2,0.7,0.6,1,1.2,1C454.8,102.3,455.1,102.1,455.4,101.7z"/>
		<path class="st1" d="M457.5,104.9c0.5-1,0.9-1.7,1-2.2c0.2-0.7,0.3-1.5,0.3-2.5s-0.1-1.8-0.4-2.6c-0.2-0.5-0.5-1.2-1-2.1h0.6
			c0.5,0.8,0.8,1.3,0.9,1.5c0.1,0.2,0.2,0.4,0.3,0.8c0.2,0.4,0.3,0.8,0.3,1.2c0.1,0.4,0.1,0.8,0.1,1.1c0,1-0.2,1.8-0.5,2.6
			c-0.2,0.5-0.6,1.2-1.2,2.1H457.5z"/>
	</g>
	<g>
		<path class="st1" d="M339.7,110.1h3.2c0.6,0,1.1,0.2,1.5,0.5c0.4,0.4,0.6,0.9,0.6,1.5c0,0.6-0.2,1-0.5,1.5s-0.9,0.6-1.6,0.6h-2.2
			v3h-1V110.1z M343.5,111.1c-0.2-0.1-0.5-0.2-0.9-0.2h-1.9v2.5h1.9c0.4,0,0.8-0.1,1.1-0.3c0.3-0.2,0.4-0.5,0.4-1
			C344.1,111.7,343.9,111.3,343.5,111.1z"/>
		<path class="st1" d="M347.2,110.1h1.1l2.6,7.2h-1.1l-0.7-2.1h-2.8l-0.8,2.1h-1L347.2,110.1z M348.8,114.4l-1.1-3.2l-1.1,3.2H348.8
			z"/>
		<path class="st1" d="M352,112.4v-0.7c0.6-0.1,1.1-0.2,1.3-0.3c0.2-0.1,0.4-0.5,0.6-1h0.7v7h-0.9v-5H352z"/>
		<path class="st1" d="M362.3,110c-0.5,1-0.8,1.7-1,2.2c-0.2,0.7-0.3,1.5-0.3,2.5c0,0.9,0.1,1.8,0.4,2.6c0.2,0.5,0.5,1.2,1,2.1h-0.6
			c-0.5-0.7-0.8-1.2-0.9-1.4c-0.1-0.2-0.2-0.5-0.4-0.8c-0.2-0.5-0.3-1-0.4-1.5c0-0.3-0.1-0.6-0.1-0.8c0-1,0.2-1.8,0.5-2.6
			c0.2-0.5,0.6-1.2,1.2-2.1H362.3z"/>
		<path class="st1" d="M365.6,110.1h1.1l2.6,7.2h-1.1l-0.7-2.1h-2.8l-0.8,2.1h-1L365.6,110.1z M367.2,114.4l-1.1-3.2l-1.1,3.2H367.2
			z"/>
		<path class="st1" d="M370.2,110.1h2.9c1,0,1.7,0.4,2.3,1c0.5,0.6,0.7,1.4,0.7,2.4c0,0.8-0.1,1.5-0.4,2.1c-0.5,1.1-1.4,1.6-2.6,1.6
			h-2.9V110.1z M372.9,116.5c0.3,0,0.6,0,0.8-0.1c0.4-0.1,0.7-0.4,0.9-0.7c0.2-0.3,0.3-0.7,0.4-1.1c0-0.3,0.1-0.5,0.1-0.8
			c0-0.9-0.2-1.6-0.5-2.1c-0.3-0.5-0.9-0.7-1.7-0.7h-1.7v5.5H372.9z"/>
		<path class="st1" d="M382.4,110.7c0.5,0.5,0.8,1,0.8,1.6h-0.9c-0.1-0.5-0.3-0.8-0.6-1.1c-0.3-0.3-0.8-0.4-1.3-0.4
			c-0.7,0-1.3,0.2-1.7,0.7c-0.4,0.5-0.6,1.3-0.6,2.3c0,0.8,0.2,1.5,0.6,2c0.4,0.5,1,0.8,1.7,0.8c0.7,0,1.2-0.3,1.6-0.8
			c0.2-0.3,0.3-0.7,0.4-1.1h0.9c-0.1,0.8-0.4,1.4-0.8,1.9c-0.6,0.6-1.3,0.9-2.3,0.9c-0.8,0-1.5-0.3-2.1-0.8
			c-0.7-0.7-1.1-1.7-1.1-3.1c0-1.1,0.3-1.9,0.8-2.6c0.6-0.7,1.4-1.1,2.5-1.1C381.2,109.9,381.9,110.2,382.4,110.7z"/>
		<path class="st1" d="M384.8,112.4v-0.7c0.6-0.1,1.1-0.2,1.3-0.3c0.3-0.1,0.4-0.5,0.6-1h0.7v7h-0.9v-5H384.8z"/>
		<path class="st1" d="M391.7,110.1h0.7l-2.3,7.2h-0.7L391.7,110.1z"/>
		<path class="st1" d="M395,110.1h1.1l2.6,7.2h-1.1l-0.7-2.1h-2.8l-0.8,2.1h-1L395,110.1z M396.6,114.4l-1.1-3.2l-1.1,3.2H396.6z"/>
		<path class="st1" d="M399.8,110.1h1v7.2h-1V110.1z"/>
		<path class="st1" d="M402.4,110.1h1.1l3.6,5.8v-5.8h0.9v7.2h-1.1l-3.6-5.8v5.8h-0.9V110.1z"/>
		<path class="st1" d="M413.5,111.4c0.3,0.6,0.5,1.4,0.5,2.4c0,1-0.1,1.7-0.4,2.4c-0.4,0.9-1.1,1.3-2,1.3c-0.8,0-1.5-0.4-1.9-1.1
			c-0.3-0.6-0.5-1.4-0.5-2.5c0-0.8,0.1-1.5,0.3-2c0.4-1.1,1.1-1.6,2.1-1.6C412.4,110.3,413.1,110.7,413.5,111.4z M412.6,116.1
			c0.3-0.4,0.4-1.2,0.4-2.3c0-0.8-0.1-1.4-0.3-2c-0.2-0.5-0.6-0.8-1.1-0.8c-0.5,0-0.9,0.2-1.1,0.7c-0.2,0.5-0.4,1.2-0.4,2.2
			c0,0.7,0.1,1.3,0.2,1.7c0.2,0.7,0.6,1,1.2,1C412,116.7,412.3,116.5,412.6,116.1z"/>
		<path class="st1" d="M416.7,110.1h0.7l-2.3,7.2h-0.7L416.7,110.1z"/>
		<path class="st1" d="M418,110.1h3.2c0.6,0,1.1,0.2,1.5,0.5c0.4,0.4,0.6,0.9,0.6,1.5c0,0.6-0.2,1-0.5,1.5c-0.3,0.4-0.9,0.6-1.6,0.6
			H419v3h-1V110.1z M421.8,111.1c-0.2-0.1-0.5-0.2-0.9-0.2H419v2.5h1.9c0.4,0,0.8-0.1,1.1-0.3s0.4-0.5,0.4-1
			C422.4,111.7,422.2,111.3,421.8,111.1z"/>
		<path class="st1" d="M429.7,110.7c0.5,0.5,0.8,1,0.8,1.6h-0.9c-0.1-0.5-0.3-0.8-0.6-1.1c-0.3-0.3-0.8-0.4-1.3-0.4
			c-0.7,0-1.3,0.2-1.7,0.7c-0.4,0.5-0.6,1.3-0.6,2.3c0,0.8,0.2,1.5,0.6,2c0.4,0.5,1,0.8,1.7,0.8c0.7,0,1.2-0.3,1.6-0.8
			c0.2-0.3,0.3-0.7,0.4-1.1h0.9c-0.1,0.8-0.4,1.4-0.8,1.9c-0.6,0.6-1.3,0.9-2.3,0.9c-0.8,0-1.5-0.3-2.1-0.8
			c-0.7-0.7-1.1-1.7-1.1-3.1c0-1.1,0.3-1.9,0.8-2.6c0.6-0.7,1.4-1.1,2.5-1.1C428.5,109.9,429.2,110.2,429.7,110.7z"/>
		<path class="st1" d="M432,110.1h1v7.2h-1V110.1z"/>
		<path class="st1" d="M434.6,110.1h1.1l3.6,5.8v-5.8h0.9v7.2h-1.1l-3.6-5.8v5.8h-0.9V110.1z"/>
		<path class="st1" d="M447,110.1v0.9h-2.4v6.3h-1V111h-2.4v-0.9H447z"/>
		<path class="st1" d="M448.1,112.4v-0.7c0.6-0.1,1.1-0.2,1.3-0.3c0.2-0.1,0.4-0.5,0.6-1h0.7v7h-0.9v-5H448.1z"/>
		<path class="st1" d="M453.1,119.3c0.5-1,0.9-1.7,1-2.2c0.2-0.7,0.3-1.5,0.3-2.5s-0.1-1.8-0.4-2.6c-0.2-0.5-0.5-1.2-1-2.1h0.6
			c0.5,0.8,0.8,1.3,0.9,1.5c0.1,0.2,0.2,0.4,0.3,0.8c0.2,0.4,0.3,0.8,0.3,1.2c0.1,0.4,0.1,0.8,0.1,1.1c0,1-0.2,1.8-0.5,2.6
			c-0.2,0.5-0.6,1.2-1.2,2.1H453.1z"/>
	</g>
	<g>
		<path class="st1" d="M339.7,124.5h3.2c0.6,0,1.1,0.2,1.5,0.5c0.4,0.4,0.6,0.9,0.6,1.5c0,0.6-0.2,1-0.5,1.5s-0.9,0.6-1.6,0.6h-2.2
			v3h-1V124.5z M343.5,125.5c-0.2-0.1-0.5-0.2-0.9-0.2h-1.9v2.5h1.9c0.4,0,0.8-0.1,1.1-0.3c0.3-0.2,0.4-0.5,0.4-1
			C344.1,126.1,343.9,125.7,343.5,125.5z"/>
		<path class="st1" d="M347.2,124.5h1.1l2.6,7.2h-1.1l-0.7-2.1h-2.8l-0.8,2.1h-1L347.2,124.5z M348.8,128.8l-1.1-3.2l-1.1,3.2H348.8
			z"/>
		<path class="st1" d="M351.7,130.1c0.2-0.4,0.6-0.9,1.3-1.2l0.9-0.5c0.4-0.2,0.7-0.5,0.9-0.6c0.3-0.3,0.4-0.6,0.4-0.9
			c0-0.4-0.1-0.7-0.4-1s-0.6-0.4-1-0.4c-0.6,0-1,0.2-1.2,0.7c-0.1,0.2-0.2,0.6-0.2,1h-0.9c0-0.6,0.1-1.1,0.3-1.5c0.4-0.7,1.1-1,2-1
			c0.8,0,1.4,0.2,1.8,0.6c0.4,0.4,0.6,0.9,0.6,1.4c0,0.6-0.2,1-0.6,1.4c-0.2,0.2-0.6,0.5-1.2,0.8l-0.7,0.4c-0.3,0.2-0.6,0.3-0.8,0.5
			c-0.3,0.3-0.5,0.6-0.6,0.9h3.8v0.8h-4.8C351.4,131.1,351.5,130.6,351.7,130.1z"/>
		<path class="st1" d="M362.3,124.4c-0.5,1-0.8,1.7-1,2.2c-0.2,0.7-0.3,1.5-0.3,2.5c0,0.9,0.1,1.8,0.4,2.6c0.2,0.5,0.5,1.2,1,2.1
			h-0.6c-0.5-0.7-0.8-1.2-0.9-1.4c-0.1-0.2-0.2-0.5-0.4-0.8c-0.2-0.5-0.3-1-0.4-1.5c0-0.3-0.1-0.6-0.1-0.8c0-1,0.2-1.8,0.5-2.6
			c0.2-0.5,0.6-1.2,1.2-2.1H362.3z"/>
		<path class="st1" d="M365.6,124.5h1.1l2.6,7.2h-1.1l-0.7-2.1h-2.8l-0.8,2.1h-1L365.6,124.5z M367.2,128.8l-1.1-3.2l-1.1,3.2H367.2
			z"/>
		<path class="st1" d="M370.2,124.5h2.9c1,0,1.7,0.4,2.3,1c0.5,0.6,0.7,1.4,0.7,2.4c0,0.8-0.1,1.5-0.4,2.1c-0.5,1.1-1.4,1.6-2.6,1.6
			h-2.9V124.5z M372.9,130.9c0.3,0,0.6,0,0.8-0.1c0.4-0.1,0.7-0.4,0.9-0.7c0.2-0.3,0.3-0.7,0.4-1.1c0-0.3,0.1-0.5,0.1-0.8
			c0-0.9-0.2-1.6-0.5-2.1c-0.3-0.5-0.9-0.7-1.7-0.7h-1.7v5.5H372.9z"/>
		<path class="st1" d="M382.4,125.1c0.5,0.5,0.8,1,0.8,1.6h-0.9c-0.1-0.5-0.3-0.8-0.6-1.1c-0.3-0.3-0.8-0.4-1.3-0.4
			c-0.7,0-1.3,0.2-1.7,0.7c-0.4,0.5-0.6,1.3-0.6,2.3c0,0.8,0.2,1.5,0.6,2c0.4,0.5,1,0.8,1.7,0.8c0.7,0,1.2-0.3,1.6-0.8
			c0.2-0.3,0.3-0.7,0.4-1.1h0.9c-0.1,0.8-0.4,1.4-0.8,1.9c-0.6,0.6-1.3,0.9-2.3,0.9c-0.8,0-1.5-0.3-2.1-0.8
			c-0.7-0.7-1.1-1.7-1.1-3.1c0-1.1,0.3-1.9,0.8-2.6c0.6-0.7,1.4-1.1,2.5-1.1C381.2,124.3,381.9,124.6,382.4,125.1z"/>
		<path class="st1" d="M384.5,130.1c0.2-0.4,0.6-0.9,1.3-1.2l0.9-0.5c0.4-0.2,0.7-0.5,0.9-0.6c0.3-0.3,0.4-0.6,0.4-0.9
			c0-0.4-0.1-0.7-0.4-1s-0.6-0.4-1-0.4c-0.6,0-1,0.2-1.2,0.7c-0.1,0.2-0.2,0.6-0.2,1h-0.9c0-0.6,0.1-1.1,0.3-1.5c0.4-0.7,1.1-1,2-1
			c0.8,0,1.4,0.2,1.8,0.6c0.4,0.4,0.6,0.9,0.6,1.4c0,0.6-0.2,1-0.6,1.4c-0.2,0.2-0.6,0.5-1.2,0.8l-0.7,0.4c-0.3,0.2-0.6,0.3-0.8,0.5
			c-0.3,0.3-0.5,0.6-0.6,0.9h3.8v0.8h-4.8C384.2,131.1,384.3,130.6,384.5,130.1z"/>
		<path class="st1" d="M391.7,124.5h0.7l-2.3,7.2h-0.7L391.7,124.5z"/>
		<path class="st1" d="M395,124.5h1.1l2.6,7.2h-1.1l-0.7-2.1h-2.8l-0.8,2.1h-1L395,124.5z M396.6,128.8l-1.1-3.2l-1.1,3.2H396.6z"/>
		<path class="st1" d="M399.8,124.5h1v7.2h-1V124.5z"/>
		<path class="st1" d="M402.4,124.5h1.1l3.6,5.8v-5.8h0.9v7.2h-1.1l-3.6-5.8v5.8h-0.9V124.5z"/>
		<path class="st1" d="M409.8,126.8v-0.7c0.6-0.1,1.1-0.2,1.3-0.3c0.2-0.1,0.4-0.5,0.6-1h0.7v7h-0.9v-5H409.8z"/>
		<path class="st1" d="M416.7,124.5h0.7l-2.3,7.2h-0.7L416.7,124.5z"/>
		<path class="st1" d="M418,124.5h3.2c0.6,0,1.1,0.2,1.5,0.5c0.4,0.4,0.6,0.9,0.6,1.5c0,0.6-0.2,1-0.5,1.5c-0.3,0.4-0.9,0.6-1.6,0.6
			H419v3h-1V124.5z M421.8,125.5c-0.2-0.1-0.5-0.2-0.9-0.2H419v2.5h1.9c0.4,0,0.8-0.1,1.1-0.3s0.4-0.5,0.4-1
			C422.4,126.1,422.2,125.7,421.8,125.5z"/>
		<path class="st1" d="M429.7,125.1c0.5,0.5,0.8,1,0.8,1.6h-0.9c-0.1-0.5-0.3-0.8-0.6-1.1c-0.3-0.3-0.8-0.4-1.3-0.4
			c-0.7,0-1.3,0.2-1.7,0.7c-0.4,0.5-0.6,1.3-0.6,2.3c0,0.8,0.2,1.5,0.6,2c0.4,0.5,1,0.8,1.7,0.8c0.7,0,1.2-0.3,1.6-0.8
			c0.2-0.3,0.3-0.7,0.4-1.1h0.9c-0.1,0.8-0.4,1.4-0.8,1.9c-0.6,0.6-1.3,0.9-2.3,0.9c-0.8,0-1.5-0.3-2.1-0.8
			c-0.7-0.7-1.1-1.7-1.1-3.1c0-1.1,0.3-1.9,0.8-2.6c0.6-0.7,1.4-1.1,2.5-1.1C428.5,124.3,429.2,124.6,429.7,125.1z"/>
		<path class="st1" d="M432,124.5h1v7.2h-1V124.5z"/>
		<path class="st1" d="M434.6,124.5h1.1l3.6,5.8v-5.8h0.9v7.2h-1.1l-3.6-5.8v5.8h-0.9V124.5z"/>
		<path class="st1" d="M447,124.5v0.9h-2.4v6.3h-1v-6.3h-2.4v-0.9H447z"/>
		<path class="st1" d="M447.9,130.1c0.2-0.4,0.6-0.9,1.3-1.2l0.9-0.5c0.4-0.2,0.7-0.5,0.9-0.6c0.3-0.3,0.4-0.6,0.4-0.9
			c0-0.4-0.1-0.7-0.4-1s-0.6-0.4-1-0.4c-0.6,0-1,0.2-1.2,0.7c-0.1,0.2-0.2,0.6-0.2,1h-0.9c0-0.6,0.1-1.1,0.3-1.5c0.4-0.7,1.1-1,2-1
			c0.8,0,1.4,0.2,1.8,0.6c0.4,0.4,0.6,0.9,0.6,1.4c0,0.6-0.2,1-0.6,1.4c-0.2,0.2-0.6,0.5-1.2,0.8l-0.7,0.4c-0.3,0.2-0.6,0.3-0.8,0.5
			c-0.3,0.3-0.5,0.6-0.6,0.9h3.8v0.8h-4.8C447.5,131.1,447.6,130.6,447.9,130.1z"/>
		<path class="st1" d="M453.1,133.7c0.5-1,0.9-1.7,1-2.2c0.2-0.7,0.3-1.5,0.3-2.5s-0.1-1.8-0.4-2.6c-0.2-0.5-0.5-1.2-1-2.1h0.6
			c0.5,0.8,0.8,1.3,0.9,1.5c0.1,0.2,0.2,0.4,0.3,0.8c0.2,0.4,0.3,0.8,0.3,1.2c0.1,0.4,0.1,0.8,0.1,1.1c0,1-0.2,1.8-0.5,2.6
			c-0.2,0.5-0.6,1.2-1.2,2.1H453.1z"/>
	</g>
	<g>
		<path class="st1" d="M339.7,138.9h3.2c0.6,0,1.1,0.2,1.5,0.5c0.4,0.4,0.6,0.9,0.6,1.5c0,0.6-0.2,1-0.5,1.5s-0.9,0.6-1.6,0.6h-2.2
			v3h-1V138.9z M343.5,139.9c-0.2-0.1-0.5-0.2-0.9-0.2h-1.9v2.5h1.9c0.4,0,0.8-0.1,1.1-0.3c0.3-0.2,0.4-0.5,0.4-1
			C344.1,140.5,343.9,140.1,343.5,139.9z"/>
		<path class="st1" d="M347.2,138.9h1.1l2.6,7.2h-1.1l-0.7-2.1h-2.8l-0.8,2.1h-1L347.2,138.9z M348.8,143.2l-1.1-3.2l-1.1,3.2H348.8
			z"/>
		<path class="st1" d="M351.8,145.6c-0.4-0.5-0.6-1-0.6-1.7h0.9c0,0.5,0.1,0.8,0.3,1c0.2,0.4,0.6,0.6,1.2,0.6c0.5,0,0.8-0.1,1.1-0.4
			c0.3-0.2,0.4-0.6,0.4-1c0-0.5-0.1-0.8-0.4-1c-0.3-0.2-0.7-0.3-1.2-0.3c-0.1,0-0.1,0-0.2,0c-0.1,0-0.1,0-0.2,0v-0.8
			c0.1,0,0.2,0,0.2,0c0.1,0,0.1,0,0.2,0c0.3,0,0.6-0.1,0.8-0.2c0.4-0.2,0.6-0.5,0.6-1c0-0.3-0.1-0.6-0.4-0.8
			c-0.2-0.2-0.5-0.3-0.9-0.3c-0.6,0-1,0.2-1.2,0.6c-0.1,0.2-0.2,0.5-0.2,0.9h-0.9c0-0.5,0.1-1,0.3-1.3c0.4-0.7,1-1,1.9-1
			c0.7,0,1.3,0.2,1.7,0.5s0.6,0.8,0.6,1.4c0,0.4-0.1,0.8-0.3,1c-0.1,0.2-0.3,0.3-0.6,0.4c0.4,0.1,0.7,0.3,0.9,0.6s0.3,0.6,0.3,1.1
			c0,0.7-0.2,1.2-0.7,1.6s-1.1,0.6-1.9,0.6C352.8,146.3,352.2,146.1,351.8,145.6z"/>
		<path class="st1" d="M362.3,138.8c-0.5,1-0.8,1.7-1,2.2c-0.2,0.7-0.3,1.5-0.3,2.5c0,0.9,0.1,1.8,0.4,2.6c0.2,0.5,0.5,1.2,1,2.1
			h-0.6c-0.5-0.7-0.8-1.2-0.9-1.4c-0.1-0.2-0.2-0.5-0.4-0.8c-0.2-0.5-0.3-1-0.4-1.5c0-0.3-0.1-0.6-0.1-0.8c0-1,0.2-1.8,0.5-2.6
			c0.2-0.5,0.6-1.2,1.2-2.1H362.3z"/>
		<path class="st1" d="M365.6,138.9h1.1l2.6,7.2h-1.1l-0.7-2.1h-2.8l-0.8,2.1h-1L365.6,138.9z M367.2,143.2l-1.1-3.2l-1.1,3.2H367.2
			z"/>
		<path class="st1" d="M370.2,138.9h2.9c1,0,1.7,0.4,2.3,1c0.5,0.6,0.7,1.4,0.7,2.4c0,0.8-0.1,1.5-0.4,2.1c-0.5,1.1-1.4,1.6-2.6,1.6
			h-2.9V138.9z M372.9,145.3c0.3,0,0.6,0,0.8-0.1c0.4-0.1,0.7-0.4,0.9-0.7c0.2-0.3,0.3-0.7,0.4-1.1c0-0.3,0.1-0.5,0.1-0.8
			c0-0.9-0.2-1.6-0.5-2.1c-0.3-0.5-0.9-0.7-1.7-0.7h-1.7v5.5H372.9z"/>
		<path class="st1" d="M382.4,139.5c0.5,0.5,0.8,1,0.8,1.6h-0.9c-0.1-0.5-0.3-0.8-0.6-1.1c-0.3-0.3-0.8-0.4-1.3-0.4
			c-0.7,0-1.3,0.2-1.7,0.7c-0.4,0.5-0.6,1.3-0.6,2.3c0,0.8,0.2,1.5,0.6,2c0.4,0.5,1,0.8,1.7,0.8c0.7,0,1.2-0.3,1.6-0.8
			c0.2-0.3,0.3-0.7,0.4-1.1h0.9c-0.1,0.8-0.4,1.4-0.8,1.9c-0.6,0.6-1.3,0.9-2.3,0.9c-0.8,0-1.5-0.3-2.1-0.8
			c-0.7-0.7-1.1-1.7-1.1-3.1c0-1.1,0.3-1.9,0.8-2.6c0.6-0.7,1.4-1.1,2.5-1.1C381.2,138.7,381.9,139,382.4,139.5z"/>
		<path class="st1" d="M384.6,145.6c-0.4-0.5-0.6-1-0.6-1.7h0.9c0,0.5,0.1,0.8,0.3,1c0.2,0.4,0.6,0.6,1.2,0.6c0.5,0,0.8-0.1,1.1-0.4
			c0.3-0.2,0.4-0.6,0.4-1c0-0.5-0.1-0.8-0.4-1c-0.3-0.2-0.7-0.3-1.2-0.3c-0.1,0-0.1,0-0.2,0c-0.1,0-0.1,0-0.2,0v-0.8
			c0.1,0,0.2,0,0.2,0c0.1,0,0.1,0,0.2,0c0.3,0,0.6-0.1,0.8-0.2c0.4-0.2,0.6-0.5,0.6-1c0-0.3-0.1-0.6-0.4-0.8
			c-0.2-0.2-0.5-0.3-0.9-0.3c-0.6,0-1,0.2-1.2,0.6c-0.1,0.2-0.2,0.5-0.2,0.9h-0.9c0-0.5,0.1-1,0.3-1.3c0.4-0.7,1-1,1.9-1
			c0.7,0,1.3,0.2,1.7,0.5s0.6,0.8,0.6,1.4c0,0.4-0.1,0.8-0.3,1c-0.1,0.2-0.3,0.3-0.6,0.4c0.4,0.1,0.7,0.3,0.9,0.6
			c0.2,0.3,0.3,0.6,0.3,1.1c0,0.7-0.2,1.2-0.7,1.6s-1.1,0.6-1.9,0.6C385.6,146.3,385,146.1,384.6,145.6z"/>
		<path class="st1" d="M391.7,138.9h0.7l-2.3,7.2h-0.7L391.7,138.9z"/>
		<path class="st1" d="M398.1,138.9v0.9h-2.4v6.3h-1v-6.3h-2.4v-0.9H398.1z"/>
		<path class="st1" d="M402.9,140.2c0.3,0.6,0.5,1.4,0.5,2.4c0,1-0.1,1.7-0.4,2.4c-0.4,0.9-1.1,1.3-2,1.3c-0.8,0-1.5-0.4-1.9-1.1
			c-0.3-0.6-0.5-1.4-0.5-2.5c0-0.8,0.1-1.5,0.3-2c0.4-1.1,1.1-1.6,2.1-1.6C401.9,139.1,402.5,139.5,402.9,140.2z M402,144.9
			c0.3-0.4,0.4-1.2,0.4-2.3c0-0.8-0.1-1.4-0.3-2s-0.6-0.8-1.1-0.8c-0.5,0-0.9,0.2-1.1,0.7c-0.2,0.5-0.4,1.2-0.4,2.2
			c0,0.7,0.1,1.3,0.2,1.7c0.2,0.7,0.6,1,1.2,1C401.4,145.5,401.8,145.3,402,144.9z"/>
		<path class="st1" d="M406.1,138.9h0.7l-2.3,7.2h-0.7L406.1,138.9z"/>
		<path class="st1" d="M407.5,138.9h3.2c0.6,0,1.1,0.2,1.5,0.5c0.4,0.4,0.6,0.9,0.6,1.5c0,0.6-0.2,1-0.5,1.5
			c-0.3,0.4-0.9,0.6-1.6,0.6h-2.2v3h-1V138.9z M411.2,139.9c-0.2-0.1-0.5-0.2-0.9-0.2h-1.9v2.5h1.9c0.4,0,0.8-0.1,1.1-0.3
			s0.4-0.5,0.4-1C411.8,140.5,411.6,140.1,411.2,139.9z"/>
		<path class="st1" d="M419.1,139.5c0.5,0.5,0.8,1,0.8,1.6H419c-0.1-0.5-0.3-0.8-0.6-1.1c-0.3-0.3-0.8-0.4-1.3-0.4
			c-0.7,0-1.3,0.2-1.7,0.7c-0.4,0.5-0.6,1.3-0.6,2.3c0,0.8,0.2,1.5,0.6,2c0.4,0.5,1,0.8,1.7,0.8c0.7,0,1.2-0.3,1.6-0.8
			c0.2-0.3,0.3-0.7,0.4-1.1h0.9c-0.1,0.8-0.4,1.4-0.8,1.9c-0.6,0.6-1.3,0.9-2.3,0.9c-0.8,0-1.5-0.3-2.1-0.8
			c-0.7-0.7-1.1-1.7-1.1-3.1c0-1.1,0.3-1.9,0.8-2.6c0.6-0.7,1.4-1.1,2.5-1.1C417.9,138.7,418.6,139,419.1,139.5z"/>
		<path class="st1" d="M421.5,138.9h1v7.2h-1V138.9z"/>
		<path class="st1" d="M424,138.9h1.1l3.6,5.8v-5.8h0.9v7.2h-1.1l-3.6-5.8v5.8H424V138.9z"/>
		<path class="st1" d="M436.5,138.9v0.9h-2.4v6.3h-1v-6.3h-2.4v-0.9H436.5z"/>
		<path class="st1" d="M437.4,145.6c-0.4-0.5-0.6-1-0.6-1.7h0.9c0,0.5,0.1,0.8,0.3,1c0.2,0.4,0.6,0.6,1.2,0.6c0.5,0,0.8-0.1,1.1-0.4
			c0.3-0.2,0.4-0.6,0.4-1c0-0.5-0.1-0.8-0.4-1c-0.3-0.2-0.7-0.3-1.2-0.3c-0.1,0-0.1,0-0.2,0c-0.1,0-0.1,0-0.2,0v-0.8
			c0.1,0,0.2,0,0.2,0c0.1,0,0.1,0,0.2,0c0.3,0,0.6-0.1,0.8-0.2c0.4-0.2,0.6-0.5,0.6-1c0-0.3-0.1-0.6-0.4-0.8
			c-0.2-0.2-0.5-0.3-0.9-0.3c-0.6,0-1,0.2-1.2,0.6c-0.1,0.2-0.2,0.5-0.2,0.9H437c0-0.5,0.1-1,0.3-1.3c0.4-0.7,1-1,1.9-1
			c0.7,0,1.3,0.2,1.7,0.5s0.6,0.8,0.6,1.4c0,0.4-0.1,0.8-0.3,1c-0.1,0.2-0.3,0.3-0.6,0.4c0.4,0.1,0.7,0.3,0.9,0.6s0.3,0.6,0.3,1.1
			c0,0.7-0.2,1.2-0.7,1.6s-1.1,0.6-1.9,0.6C438.4,146.3,437.8,146.1,437.4,145.6z"/>
		<path class="st1" d="M442.5,148.2c0.5-1,0.9-1.7,1-2.2c0.2-0.7,0.3-1.5,0.3-2.5s-0.1-1.8-0.4-2.6c-0.2-0.5-0.5-1.2-1-2.1h0.6
			c0.5,0.8,0.8,1.3,0.9,1.5c0.1,0.2,0.2,0.4,0.3,0.8c0.2,0.4,0.3,0.8,0.3,1.2c0.1,0.4,0.1,0.8,0.1,1.1c0,1-0.2,1.8-0.5,2.6
			c-0.2,0.5-0.6,1.2-1.2,2.1H442.5z"/>
	</g>
	<g>
		<path class="st1" d="M339.7,153.3h3.2c0.6,0,1.1,0.2,1.5,0.5c0.4,0.4,0.6,0.9,0.6,1.5c0,0.6-0.2,1-0.5,1.5s-0.9,0.6-1.6,0.6h-2.2
			v3h-1V153.3z M343.5,154.3c-0.2-0.1-0.5-0.2-0.9-0.2h-1.9v2.5h1.9c0.4,0,0.8-0.1,1.1-0.3c0.3-0.2,0.4-0.5,0.4-1
			C344.1,154.9,343.9,154.5,343.5,154.3z"/>
		<path class="st1" d="M347.2,153.3h1.1l2.6,7.2h-1.1l-0.7-2.1h-2.8l-0.8,2.1h-1L347.2,153.3z M348.8,157.6l-1.1-3.2l-1.1,3.2H348.8
			z"/>
		<path class="st1" d="M354.4,160.5v-1.7h-3.1v-0.9l3.2-4.4h0.7v4.5h1v0.8h-1v1.7H354.4z M354.3,158v-3.2l-2.2,3.2H354.3z"/>
		<path class="st1" d="M362.3,153.2c-0.5,1-0.8,1.7-1,2.2c-0.2,0.7-0.3,1.5-0.3,2.5c0,0.9,0.1,1.8,0.4,2.6c0.2,0.5,0.5,1.2,1,2.1
			h-0.6c-0.5-0.7-0.8-1.2-0.9-1.4c-0.1-0.2-0.2-0.5-0.4-0.8c-0.2-0.5-0.3-1-0.4-1.5c0-0.3-0.1-0.6-0.1-0.8c0-1,0.2-1.8,0.5-2.6
			c0.2-0.5,0.6-1.2,1.2-2.1H362.3z"/>
		<path class="st1" d="M365.6,153.3h1.1l2.6,7.2h-1.1l-0.7-2.1h-2.8l-0.8,2.1h-1L365.6,153.3z M367.2,157.6l-1.1-3.2l-1.1,3.2H367.2
			z"/>
		<path class="st1" d="M370.2,153.3h2.9c1,0,1.7,0.4,2.3,1c0.5,0.6,0.7,1.4,0.7,2.4c0,0.8-0.1,1.5-0.4,2.1c-0.5,1.1-1.4,1.6-2.6,1.6
			h-2.9V153.3z M372.9,159.7c0.3,0,0.6,0,0.8-0.1c0.4-0.1,0.7-0.4,0.9-0.7c0.2-0.3,0.3-0.7,0.4-1.1c0-0.3,0.1-0.5,0.1-0.8
			c0-0.9-0.2-1.6-0.5-2.1c-0.3-0.5-0.9-0.7-1.7-0.7h-1.7v5.5H372.9z"/>
		<path class="st1" d="M382.4,153.9c0.5,0.5,0.8,1,0.8,1.6h-0.9c-0.1-0.5-0.3-0.8-0.6-1.1c-0.3-0.3-0.8-0.4-1.3-0.4
			c-0.7,0-1.3,0.2-1.7,0.7c-0.4,0.5-0.6,1.3-0.6,2.3c0,0.8,0.2,1.5,0.6,2c0.4,0.5,1,0.8,1.7,0.8c0.7,0,1.2-0.3,1.6-0.8
			c0.2-0.3,0.3-0.7,0.4-1.1h0.9c-0.1,0.8-0.4,1.4-0.8,1.9c-0.6,0.6-1.3,0.9-2.3,0.9c-0.8,0-1.5-0.3-2.1-0.8
			c-0.7-0.7-1.1-1.7-1.1-3.1c0-1.1,0.3-1.9,0.8-2.6c0.6-0.7,1.4-1.1,2.5-1.1C381.2,153.1,381.9,153.4,382.4,153.9z"/>
		<path class="st1" d="M387.1,160.5v-1.7h-3.1v-0.9l3.2-4.4h0.7v4.5h1v0.8h-1v1.7H387.1z M387.1,158v-3.2l-2.2,3.2H387.1z"/>
		<path class="st1" d="M391.7,153.3h0.7l-2.3,7.2h-0.7L391.7,153.3z"/>
		<path class="st1" d="M394,153.3v4.4c0,0.5,0.1,1,0.3,1.3c0.3,0.5,0.8,0.8,1.5,0.8c0.8,0,1.4-0.3,1.7-0.8c0.2-0.3,0.2-0.7,0.2-1.2
			v-4.4h1v4c0,0.9-0.1,1.6-0.4,2c-0.4,0.9-1.3,1.3-2.5,1.3s-2-0.4-2.5-1.3c-0.2-0.5-0.4-1.2-0.4-2v-4H394z"/>
		<path class="st1" d="M400.8,158.2c0,0.4,0.1,0.7,0.3,1c0.3,0.5,0.9,0.7,1.6,0.7c0.4,0,0.7-0.1,1-0.2c0.6-0.2,0.8-0.6,0.8-1.1
			c0-0.4-0.1-0.7-0.4-0.8c-0.2-0.2-0.6-0.3-1.1-0.4l-0.9-0.2c-0.6-0.1-1.1-0.3-1.3-0.5c-0.4-0.3-0.7-0.7-0.7-1.3
			c0-0.6,0.2-1.2,0.7-1.6c0.4-0.4,1-0.6,1.8-0.6c0.7,0,1.4,0.2,1.9,0.5c0.5,0.4,0.8,0.9,0.8,1.7h-0.9c0-0.4-0.1-0.7-0.3-0.9
			c-0.3-0.4-0.8-0.6-1.4-0.6c-0.5,0-0.9,0.1-1.2,0.4c-0.2,0.2-0.4,0.5-0.4,0.8c0,0.4,0.1,0.6,0.4,0.8c0.2,0.1,0.6,0.2,1.3,0.4l1,0.2
			c0.5,0.1,0.8,0.3,1.1,0.5c0.4,0.3,0.7,0.8,0.7,1.5c0,0.8-0.3,1.4-0.8,1.7c-0.6,0.3-1.2,0.5-2,0.5c-0.9,0-1.6-0.2-2-0.7
			c-0.5-0.5-0.7-1.1-0.7-1.8H400.8z"/>
		<path class="st1" d="M411.9,153.9c0.5,0.5,0.8,1,0.8,1.6h-0.9c-0.1-0.5-0.3-0.8-0.6-1.1c-0.3-0.3-0.8-0.4-1.3-0.4
			c-0.7,0-1.3,0.2-1.7,0.7c-0.4,0.5-0.6,1.3-0.6,2.3c0,0.8,0.2,1.5,0.6,2c0.4,0.5,1,0.8,1.7,0.8c0.7,0,1.2-0.3,1.6-0.8
			c0.2-0.3,0.3-0.7,0.4-1.1h0.9c-0.1,0.8-0.4,1.4-0.8,1.9c-0.6,0.6-1.3,0.9-2.3,0.9c-0.8,0-1.5-0.3-2.1-0.8
			c-0.7-0.7-1.1-1.7-1.1-3.1c0-1.1,0.3-1.9,0.8-2.6c0.6-0.7,1.4-1.1,2.5-1.1C410.7,153.1,411.4,153.4,411.9,153.9z"/>
		<path class="st1" d="M414,153.3h0.9v3.5l3.6-3.5h1.4l-3.1,2.9l3.1,4.3h-1.3l-2.6-3.6L415,158v2.5H414V153.3z"/>
		<path class="st1" d="M422.2,153.3h0.7l-2.3,7.2h-0.7L422.2,153.3z"/>
		<path class="st1" d="M424.1,158.2c0,0.4,0.1,0.7,0.3,1c0.3,0.5,0.9,0.7,1.6,0.7c0.4,0,0.7-0.1,1-0.2c0.6-0.2,0.8-0.6,0.8-1.1
			c0-0.4-0.1-0.7-0.4-0.8c-0.2-0.2-0.6-0.3-1.1-0.4l-0.9-0.2c-0.6-0.1-1-0.3-1.3-0.5c-0.4-0.3-0.7-0.7-0.7-1.3
			c0-0.6,0.2-1.2,0.7-1.6c0.4-0.4,1-0.6,1.8-0.6c0.7,0,1.4,0.2,1.9,0.5c0.5,0.4,0.8,0.9,0.8,1.7h-0.9c0-0.4-0.1-0.7-0.3-0.9
			c-0.3-0.4-0.8-0.6-1.4-0.6c-0.5,0-0.9,0.1-1.2,0.4c-0.2,0.2-0.4,0.5-0.4,0.8c0,0.4,0.1,0.6,0.4,0.8c0.2,0.1,0.6,0.2,1.3,0.4l1,0.2
			c0.5,0.1,0.8,0.3,1.1,0.5c0.4,0.3,0.7,0.8,0.7,1.5c0,0.8-0.3,1.4-0.8,1.7c-0.6,0.3-1.2,0.5-2,0.5c-0.9,0-1.6-0.2-2-0.7
			c-0.5-0.5-0.7-1.1-0.7-1.8H424.1z"/>
		<path class="st1" d="M435.2,153.9c0.5,0.5,0.8,1,0.8,1.6h-0.9c-0.1-0.5-0.3-0.8-0.6-1.1c-0.3-0.3-0.8-0.4-1.3-0.4
			c-0.7,0-1.3,0.2-1.7,0.7c-0.4,0.5-0.6,1.3-0.6,2.3c0,0.8,0.2,1.5,0.6,2c0.4,0.5,1,0.8,1.7,0.8c0.7,0,1.2-0.3,1.6-0.8
			c0.2-0.3,0.3-0.7,0.4-1.1h0.9c-0.1,0.8-0.4,1.4-0.8,1.9c-0.6,0.6-1.3,0.9-2.3,0.9c-0.8,0-1.5-0.3-2.1-0.8
			c-0.7-0.7-1.1-1.7-1.1-3.1c0-1.1,0.3-1.9,0.8-2.6c0.6-0.7,1.4-1.1,2.5-1.1C434,153.1,434.7,153.4,435.2,153.9z"/>
		<path class="st1" d="M437.4,153.3h1v6.3h3.6v0.9h-4.6V153.3z"/>
		<path class="st1" d="M444.5,153.3h0.7l-2.3,7.2h-0.7L444.5,153.3z"/>
		<path class="st1" d="M450.9,153.3v0.9h-2.4v6.3h-1v-6.3h-2.4v-0.9H450.9z"/>
		<path class="st1" d="M452,155.6v-0.7c0.6-0.1,1.1-0.2,1.3-0.3c0.3-0.1,0.4-0.5,0.6-1h0.7v7h-0.9v-5H452z"/>
		<path class="st1" d="M458.9,153.3h0.7l-2.3,7.2h-0.7L458.9,153.3z"/>
		<path class="st1" d="M460.3,153.3h3.2c0.6,0,1.1,0.2,1.5,0.5c0.4,0.4,0.6,0.9,0.6,1.5c0,0.6-0.2,1-0.5,1.5
			c-0.3,0.4-0.9,0.6-1.6,0.6h-2.2v3h-1V153.3z M464,154.3c-0.2-0.1-0.5-0.2-0.9-0.2h-1.9v2.5h1.9c0.4,0,0.8-0.1,1.1-0.3
			s0.4-0.5,0.4-1C464.6,154.9,464.4,154.5,464,154.3z"/>
		<path class="st1" d="M471.9,153.9c0.5,0.5,0.8,1,0.8,1.6h-0.9c-0.1-0.5-0.3-0.8-0.6-1.1c-0.3-0.3-0.8-0.4-1.3-0.4
			c-0.7,0-1.3,0.2-1.7,0.7c-0.4,0.5-0.6,1.3-0.6,2.3c0,0.8,0.2,1.5,0.6,2c0.4,0.5,1,0.8,1.7,0.8c0.7,0,1.2-0.3,1.6-0.8
			c0.2-0.3,0.3-0.7,0.4-1.1h0.9c-0.1,0.8-0.4,1.4-0.8,1.9c-0.6,0.6-1.3,0.9-2.3,0.9c-0.8,0-1.5-0.3-2.1-0.8
			c-0.7-0.7-1.1-1.7-1.1-3.1c0-1.1,0.3-1.9,0.8-2.6c0.6-0.7,1.4-1.1,2.5-1.1C470.7,153.1,471.4,153.4,471.9,153.9z"/>
		<path class="st1" d="M474.3,153.3h1v7.2h-1V153.3z"/>
		<path class="st1" d="M476.8,153.3h1.1l3.6,5.8v-5.8h0.9v7.2h-1.1l-3.6-5.8v5.8h-0.9V153.3z"/>
		<path class="st1" d="M489.3,153.3v0.9h-2.4v6.3h-1v-6.3h-2.4v-0.9H489.3z"/>
		<path class="st1" d="M492.7,160.5v-1.7h-3.1v-0.9l3.2-4.4h0.7v4.5h1v0.8h-1v1.7H492.7z M492.7,158v-3.2l-2.2,3.2H492.7z"/>
		<path class="st1" d="M495.3,162.6c0.5-1,0.9-1.7,1-2.2c0.2-0.7,0.3-1.5,0.3-2.5s-0.1-1.8-0.4-2.6c-0.2-0.5-0.5-1.2-1-2.1h0.6
			c0.5,0.8,0.8,1.3,0.9,1.5c0.1,0.2,0.2,0.4,0.3,0.8c0.2,0.4,0.3,0.8,0.3,1.2c0.1,0.4,0.1,0.8,0.1,1.1c0,1-0.2,1.8-0.5,2.6
			c-0.2,0.5-0.6,1.2-1.2,2.1H495.3z"/>
	</g>
	<g>
		<path class="st1" d="M339.7,167.7h3.2c0.6,0,1.1,0.2,1.5,0.5c0.4,0.4,0.6,0.9,0.6,1.5c0,0.6-0.2,1-0.5,1.5s-0.9,0.6-1.6,0.6h-2.2
			v3h-1V167.7z M343.5,168.7c-0.2-0.1-0.5-0.2-0.9-0.2h-1.9v2.5h1.9c0.4,0,0.8-0.1,1.1-0.3c0.3-0.2,0.4-0.5,0.4-1
			C344.1,169.3,343.9,168.9,343.5,168.7z"/>
		<path class="st1" d="M347.2,167.7h1.1l2.6,7.2h-1.1l-0.7-2.1h-2.8l-0.8,2.1h-1L347.2,167.7z M348.8,172l-1.1-3.2l-1.1,3.2H348.8z"
			/>
		<path class="st1" d="M352.3,173.1c0.1,0.5,0.3,0.8,0.7,1c0.2,0.1,0.4,0.1,0.7,0.1c0.5,0,0.9-0.2,1.2-0.5c0.3-0.3,0.4-0.7,0.4-1.1
			c0-0.5-0.1-0.9-0.4-1.1c-0.3-0.3-0.7-0.4-1.1-0.4c-0.3,0-0.6,0.1-0.8,0.2c-0.2,0.1-0.4,0.3-0.6,0.5l-0.8,0l0.5-3.8h3.6v0.9h-3
			l-0.3,1.9c0.2-0.1,0.3-0.2,0.5-0.3c0.3-0.1,0.6-0.2,0.9-0.2c0.6,0,1.2,0.2,1.6,0.6c0.4,0.4,0.7,0.9,0.7,1.6c0,0.7-0.2,1.2-0.6,1.7
			s-1.1,0.8-2,0.8c-0.6,0-1.1-0.2-1.5-0.5s-0.7-0.8-0.7-1.5H352.3z"/>
		<path class="st1" d="M362.3,167.6c-0.5,1-0.8,1.7-1,2.2c-0.2,0.7-0.3,1.5-0.3,2.5c0,0.9,0.1,1.8,0.4,2.6c0.2,0.5,0.5,1.2,1,2.1
			h-0.6c-0.5-0.7-0.8-1.2-0.9-1.4c-0.1-0.2-0.2-0.5-0.4-0.8c-0.2-0.5-0.3-1-0.4-1.5c0-0.3-0.1-0.6-0.1-0.8c0-1,0.2-1.8,0.5-2.6
			c0.2-0.5,0.6-1.2,1.2-2.1H362.3z"/>
		<path class="st1" d="M365.6,167.7h1.1l2.6,7.2h-1.1l-0.7-2.1h-2.8l-0.8,2.1h-1L365.6,167.7z M367.2,172l-1.1-3.2l-1.1,3.2H367.2z"
			/>
		<path class="st1" d="M370.2,167.7h2.9c1,0,1.7,0.4,2.3,1c0.5,0.6,0.7,1.4,0.7,2.4c0,0.8-0.1,1.5-0.4,2.1c-0.5,1.1-1.4,1.6-2.6,1.6
			h-2.9V167.7z M372.9,174.1c0.3,0,0.6,0,0.8-0.1c0.4-0.1,0.7-0.4,0.9-0.7c0.2-0.3,0.3-0.7,0.4-1.1c0-0.3,0.1-0.5,0.1-0.8
			c0-0.9-0.2-1.6-0.5-2.1c-0.3-0.5-0.9-0.7-1.7-0.7h-1.7v5.5H372.9z"/>
		<path class="st1" d="M382.4,168.3c0.5,0.5,0.8,1,0.8,1.6h-0.9c-0.1-0.5-0.3-0.8-0.6-1.1c-0.3-0.3-0.8-0.4-1.3-0.4
			c-0.7,0-1.3,0.2-1.7,0.7c-0.4,0.5-0.6,1.3-0.6,2.3c0,0.8,0.2,1.5,0.6,2c0.4,0.5,1,0.8,1.7,0.8c0.7,0,1.2-0.3,1.6-0.8
			c0.2-0.3,0.3-0.7,0.4-1.1h0.9c-0.1,0.8-0.4,1.4-0.8,1.9c-0.6,0.6-1.3,0.9-2.3,0.9c-0.8,0-1.5-0.3-2.1-0.8
			c-0.7-0.7-1.1-1.7-1.1-3.1c0-1.1,0.3-1.9,0.8-2.6c0.6-0.7,1.4-1.1,2.5-1.1C381.2,167.5,381.9,167.8,382.4,168.3z"/>
		<path class="st1" d="M385.1,173.1c0.1,0.5,0.3,0.8,0.7,1c0.2,0.1,0.4,0.1,0.7,0.1c0.5,0,0.9-0.2,1.2-0.5c0.2-0.3,0.4-0.7,0.4-1.1
			c0-0.5-0.1-0.9-0.4-1.1c-0.3-0.3-0.7-0.4-1.1-0.4c-0.3,0-0.6,0.1-0.8,0.2s-0.4,0.3-0.6,0.5l-0.8,0l0.5-3.8h3.6v0.9h-3l-0.3,1.9
			c0.2-0.1,0.3-0.2,0.5-0.3c0.3-0.1,0.6-0.2,0.9-0.2c0.6,0,1.2,0.2,1.6,0.6c0.4,0.4,0.7,0.9,0.7,1.6c0,0.7-0.2,1.2-0.6,1.7
			c-0.4,0.5-1.1,0.8-2,0.8c-0.6,0-1.1-0.2-1.5-0.5c-0.4-0.3-0.7-0.8-0.7-1.5H385.1z"/>
		<path class="st1" d="M391.7,167.7h0.7l-2.3,7.2h-0.7L391.7,167.7z"/>
		<path class="st1" d="M393,167.7h2.9c1,0,1.7,0.4,2.3,1c0.5,0.6,0.7,1.4,0.7,2.4c0,0.8-0.1,1.5-0.4,2.1c-0.5,1.1-1.4,1.6-2.6,1.6
			H393V167.7z M395.6,174.1c0.3,0,0.6,0,0.8-0.1c0.4-0.1,0.7-0.4,0.9-0.7c0.2-0.3,0.3-0.7,0.4-1.1c0-0.3,0.1-0.5,0.1-0.8
			c0-0.9-0.2-1.6-0.5-2.1c-0.3-0.5-0.9-0.7-1.7-0.7h-1.7v5.5H395.6z"/>
		<path class="st1" d="M406,168.8c0.5,0.6,0.7,1.4,0.7,2.4c0,1.1-0.3,2-0.8,2.7c-0.6,0.8-1.5,1.2-2.7,1.2c-1.1,0-2-0.4-2.6-1.1
			c-0.6-0.7-0.8-1.6-0.8-2.7c0-1,0.2-1.8,0.7-2.5c0.6-0.9,1.5-1.3,2.7-1.3C404.5,167.5,405.4,167.9,406,168.8z M405.2,173.3
			c0.4-0.6,0.6-1.3,0.6-2.1c0-0.8-0.2-1.5-0.7-2c-0.4-0.5-1-0.8-1.8-0.8c-0.7,0-1.3,0.3-1.8,0.8s-0.7,1.3-0.7,2.3
			c0,0.8,0.2,1.5,0.6,2c0.4,0.5,1.1,0.8,2,0.8C404.2,174.3,404.8,173.9,405.2,173.3z"/>
		<path class="st1" d="M409.4,167.7h0.7l-2.3,7.2h-0.7L409.4,167.7z"/>
		<path class="st1" d="M410.7,167.7h1.4l2.1,6.1l2-6.1h1.4v7.2h-0.9v-4.2c0-0.1,0-0.4,0-0.7c0-0.3,0-0.7,0-1.1l-2,6h-1l-2.1-6v0.2
			c0,0.2,0,0.4,0,0.8c0,0.4,0,0.6,0,0.8v4.2h-0.9V167.7z"/>
		<path class="st1" d="M419.2,167.7h1v7.2h-1V167.7z"/>
		<path class="st1" d="M422.4,172.6c0,0.4,0.1,0.7,0.3,1c0.3,0.5,0.9,0.7,1.6,0.7c0.4,0,0.7-0.1,1-0.2c0.6-0.2,0.8-0.6,0.8-1.1
			c0-0.4-0.1-0.7-0.4-0.8c-0.2-0.2-0.6-0.3-1.1-0.4l-0.9-0.2c-0.6-0.1-1.1-0.3-1.3-0.5c-0.4-0.3-0.7-0.7-0.7-1.3
			c0-0.6,0.2-1.2,0.7-1.6c0.4-0.4,1-0.6,1.8-0.6c0.7,0,1.4,0.2,1.9,0.5c0.5,0.4,0.8,0.9,0.8,1.7H426c0-0.4-0.1-0.7-0.3-0.9
			c-0.3-0.4-0.8-0.6-1.4-0.6c-0.5,0-0.9,0.1-1.2,0.4c-0.2,0.2-0.4,0.5-0.4,0.8c0,0.4,0.1,0.6,0.4,0.8c0.2,0.1,0.6,0.2,1.3,0.4l1,0.2
			c0.5,0.1,0.8,0.3,1.1,0.5c0.4,0.3,0.7,0.8,0.7,1.5c0,0.8-0.3,1.4-0.8,1.7c-0.6,0.3-1.2,0.5-2,0.5c-0.9,0-1.6-0.2-2-0.7
			c-0.5-0.5-0.7-1.1-0.7-1.8H422.4z"/>
		<path class="st1" d="M434.4,168.8c0.5,0.6,0.7,1.4,0.7,2.4c0,1.1-0.3,2-0.8,2.7c-0.6,0.8-1.5,1.2-2.7,1.2c-1.1,0-2-0.4-2.6-1.1
			c-0.6-0.7-0.8-1.6-0.8-2.7c0-1,0.2-1.8,0.7-2.5c0.6-0.9,1.5-1.3,2.7-1.3C432.8,167.5,433.8,167.9,434.4,168.8z M433.5,173.3
			c0.4-0.6,0.6-1.3,0.6-2.1c0-0.8-0.2-1.5-0.7-2c-0.4-0.5-1-0.8-1.8-0.8c-0.7,0-1.3,0.3-1.8,0.8s-0.7,1.3-0.7,2.3
			c0,0.8,0.2,1.5,0.6,2c0.4,0.5,1.1,0.8,2,0.8C432.5,174.3,433.1,173.9,433.5,173.3z"/>
		<path class="st1" d="M437.8,167.7h0.7l-2.3,7.2h-0.7L437.8,167.7z"/>
		<path class="st1" d="M444.9,168.8c0.5,0.6,0.7,1.4,0.7,2.4c0,1.1-0.3,2-0.8,2.7c-0.6,0.8-1.5,1.2-2.7,1.2c-1.1,0-2-0.4-2.6-1.1
			c-0.6-0.7-0.8-1.6-0.8-2.7c0-1,0.2-1.8,0.7-2.5c0.6-0.9,1.5-1.3,2.7-1.3C443.4,167.5,444.3,167.9,444.9,168.8z M444.1,173.3
			c0.4-0.6,0.6-1.3,0.6-2.1c0-0.8-0.2-1.5-0.7-2c-0.4-0.5-1-0.8-1.8-0.8c-0.7,0-1.3,0.3-1.8,0.8s-0.7,1.3-0.7,2.3
			c0,0.8,0.2,1.5,0.6,2c0.4,0.5,1.1,0.8,2,0.8C443.1,174.3,443.7,173.9,444.1,173.3z"/>
		<path class="st1" d="M451.9,168.3c0.5,0.5,0.8,1,0.8,1.6h-0.9c-0.1-0.5-0.3-0.8-0.6-1.1c-0.3-0.3-0.8-0.4-1.3-0.4
			c-0.7,0-1.3,0.2-1.7,0.7c-0.4,0.5-0.6,1.3-0.6,2.3c0,0.8,0.2,1.5,0.6,2c0.4,0.5,1,0.8,1.7,0.8c0.7,0,1.2-0.3,1.6-0.8
			c0.2-0.3,0.3-0.7,0.4-1.1h0.9c-0.1,0.8-0.4,1.4-0.8,1.9c-0.6,0.6-1.3,0.9-2.3,0.9c-0.8,0-1.5-0.3-2.1-0.8
			c-0.7-0.7-1.1-1.7-1.1-3.1c0-1.1,0.3-1.9,0.8-2.6c0.6-0.7,1.4-1.1,2.5-1.1C450.7,167.5,451.4,167.8,451.9,168.3z"/>
		<path class="st1" d="M454.2,170v-0.7c0.6-0.1,1.1-0.2,1.3-0.3c0.2-0.1,0.4-0.5,0.6-1h0.7v7h-0.9v-5H454.2z"/>
		<path class="st1" d="M459.6,167.7h3.1c0.8,0,1.4,0.3,1.8,0.8c0.2,0.3,0.3,0.6,0.3,1c0,0.5-0.1,0.8-0.4,1.1
			c-0.1,0.2-0.3,0.3-0.6,0.4c0.4,0.1,0.6,0.3,0.8,0.5c0.3,0.3,0.5,0.7,0.5,1.3c0,0.5-0.1,0.9-0.4,1.3c-0.4,0.6-1.1,0.8-2.1,0.8h-3.1
			V167.7z M462.3,170.8c0.4,0,0.7-0.1,1-0.2c0.4-0.2,0.5-0.5,0.5-1c0-0.5-0.2-0.8-0.6-0.9c-0.2-0.1-0.5-0.1-1-0.1h-1.8v2.2H462.3z
			 M462.6,174.1c0.6,0,1-0.2,1.3-0.5c0.2-0.2,0.2-0.5,0.2-0.8c0-0.5-0.2-0.9-0.7-1.1c-0.2-0.1-0.6-0.2-1-0.2h-1.9v2.5H462.6z"/>
		<path class="st1" d="M467.8,167.7h0.7l-2.3,7.2h-0.7L467.8,167.7z"/>
		<path class="st1" d="M469.1,167.7h3.2c0.6,0,1.1,0.2,1.5,0.5c0.4,0.4,0.6,0.9,0.6,1.5c0,0.6-0.2,1-0.5,1.5
			c-0.3,0.4-0.9,0.6-1.6,0.6h-2.2v3h-1V167.7z M472.9,168.7c-0.2-0.1-0.5-0.2-0.9-0.2h-1.9v2.5h1.9c0.4,0,0.8-0.1,1.1-0.3
			s0.4-0.5,0.4-1C473.5,169.3,473.3,168.9,472.9,168.7z"/>
		<path class="st1" d="M480.8,168.3c0.5,0.5,0.8,1,0.8,1.6h-0.9c-0.1-0.5-0.3-0.8-0.6-1.1c-0.3-0.3-0.8-0.4-1.3-0.4
			c-0.7,0-1.3,0.2-1.7,0.7c-0.4,0.5-0.6,1.3-0.6,2.3c0,0.8,0.2,1.5,0.6,2c0.4,0.5,1,0.8,1.7,0.8c0.7,0,1.2-0.3,1.6-0.8
			c0.2-0.3,0.3-0.7,0.4-1.1h0.9c-0.1,0.8-0.4,1.4-0.8,1.9c-0.6,0.6-1.3,0.9-2.3,0.9c-0.8,0-1.5-0.3-2.1-0.8
			c-0.7-0.7-1.1-1.7-1.1-3.1c0-1.1,0.3-1.9,0.8-2.6c0.6-0.7,1.4-1.1,2.5-1.1C479.6,167.5,480.3,167.8,480.8,168.3z"/>
		<path class="st1" d="M483.2,167.7h1v7.2h-1V167.7z"/>
		<path class="st1" d="M485.7,167.7h1.1l3.6,5.8v-5.8h0.9v7.2h-1.1l-3.6-5.8v5.8h-0.9V167.7z"/>
		<path class="st1" d="M498.2,167.7v0.9h-2.4v6.3h-1v-6.3h-2.4v-0.9H498.2z"/>
		<path class="st1" d="M499.5,173.1c0.1,0.5,0.3,0.8,0.7,1c0.2,0.1,0.4,0.1,0.7,0.1c0.5,0,0.9-0.2,1.2-0.5c0.3-0.3,0.4-0.7,0.4-1.1
			c0-0.5-0.1-0.9-0.4-1.1c-0.3-0.3-0.7-0.4-1.1-0.4c-0.3,0-0.6,0.1-0.8,0.2c-0.2,0.1-0.4,0.3-0.6,0.5l-0.8,0l0.5-3.8h3.6v0.9h-3
			l-0.3,1.9c0.2-0.1,0.3-0.2,0.5-0.3c0.3-0.1,0.6-0.2,0.9-0.2c0.6,0,1.2,0.2,1.6,0.6c0.4,0.4,0.7,0.9,0.7,1.6c0,0.7-0.2,1.2-0.6,1.7
			s-1.1,0.8-2,0.8c-0.6,0-1.1-0.2-1.5-0.5s-0.7-0.8-0.7-1.5H499.5z"/>
		<path class="st1" d="M504.2,177c0.5-1,0.9-1.7,1-2.2c0.2-0.7,0.3-1.5,0.3-2.5s-0.1-1.8-0.4-2.6c-0.2-0.5-0.5-1.2-1-2.1h0.6
			c0.5,0.8,0.8,1.3,0.9,1.5c0.1,0.2,0.2,0.4,0.3,0.8c0.2,0.4,0.3,0.8,0.3,1.2c0.1,0.4,0.1,0.8,0.1,1.1c0,1-0.2,1.8-0.5,2.6
			c-0.2,0.5-0.6,1.2-1.2,2.1H504.2z"/>
	</g>
	<g>
		<polyline class="st1" points="327.1,180.5 327.6,180.5 327.6,72.4 269,72.4 269,181 327.6,181 327.6,180.5 327.1,180.5 327.1,180 
			270,180 270,73.4 326.6,73.4 326.6,180.5 327.1,180.5 327.1,180 327.1,180.5 		"/>
	</g>
	<g>
		<path class="st1" d="M290.8,72.9c0,4.1,3.3,7.4,7.4,7.4c4.1,0,7.5-3.3,7.5-7.4h-0.5c0,1.9-0.8,3.7-2,4.9c-1.3,1.3-3,2-4.9,2
			c-1.9,0-3.7-0.8-4.9-2c-1.3-1.3-2-3-2-4.9H290.8"/>
	</g>
	<g>
		<rect x="181.5" y="122.1" class="st1" width="34" height="0.5"/>
	</g>
	<g>
		<polyline class="st1" points="269.5,160.2 269.7,160.2 269.7,152.7 262,152.7 262,160.4 269.7,160.4 269.7,160.2 269.5,160.2 
			269.5,159.9 262.5,159.9 262.5,153.2 269.2,153.2 269.2,160.2 269.5,160.2 269.5,159.9 269.5,160.2 		"/>
	</g>
	<g>
		<polyline class="st1" points="269.5,145.8 269.7,145.8 269.7,138.4 262,138.4 262,146.1 269.7,146.1 269.7,145.8 269.5,145.8 
			269.5,145.6 262.5,145.6 262.5,138.9 269.2,138.9 269.2,145.8 269.5,145.8 269.5,145.6 269.5,145.8 		"/>
	</g>
	<g>
		<polyline class="st1" points="269.5,174.5 269.7,174.5 269.7,167.1 262,167.1 262,174.8 269.7,174.8 269.7,174.5 269.5,174.5 
			269.5,174.3 262.5,174.3 262.5,167.6 269.2,167.6 269.2,174.5 269.5,174.5 269.5,174.3 269.5,174.5 		"/>
	</g>
	<g>
		<polyline class="st1" points="334.3,160.2 334.5,160.2 334.5,152.7 326.8,152.7 326.8,160.4 334.5,160.4 334.5,160.2 334.3,160.2 
			334.3,159.9 327.3,159.9 327.3,153.2 334,153.2 334,160.2 334.3,160.2 334.3,159.9 334.3,160.2 		"/>
	</g>
	<g>
		<polyline class="st1" points="334.3,145.8 334.5,145.8 334.5,138.4 326.8,138.4 326.8,146.1 334.5,146.1 334.5,145.8 334.3,145.8 
			334.3,145.6 327.3,145.6 327.3,138.9 334,138.9 334,145.8 334.3,145.8 334.3,145.6 334.3,145.8 		"/>
	</g>
	<g>
		<polyline class="st1" points="334.3,174.5 334.5,174.5 334.5,167.1 326.8,167.1 326.8,174.8 334.5,174.8 334.5,174.5 334.3,174.5 
			334.3,174.3 327.3,174.3 327.3,167.6 334,167.6 334,174.5 334.3,174.5 334.3,174.3 334.3,174.5 		"/>
	</g>
	<g>
		<path class="st1" d="M274.7,53.4c-0.5,0.4-1.2,0.6-2.2,0.6h-1.8v3.1H269v-8.6h3.7c0.9,0,1.5,0.2,2,0.7s0.8,1.1,0.8,2.1
			C275.5,52.2,275.2,53,274.7,53.4z M273.4,50.3c-0.2-0.2-0.5-0.3-1-0.3h-1.6v2.5h1.6c0.4,0,0.7-0.1,1-0.3s0.3-0.5,0.3-1
			C273.7,50.8,273.6,50.5,273.4,50.3z"/>
		<path class="st1" d="M282,48.7c0.6,0.2,1.1,0.6,1.5,1.1c0.3,0.4,0.5,0.9,0.6,1.4c0.1,0.5,0.2,1,0.2,1.4c0,1.1-0.2,2.1-0.7,2.9
			c-0.6,1.1-1.6,1.6-2.9,1.6h-3.7v-8.6h3.7C281.2,48.5,281.7,48.5,282,48.7z M278.7,50v5.6h1.7c0.9,0,1.4-0.4,1.8-1.3
			c0.2-0.5,0.3-1,0.3-1.6c0-0.9-0.1-1.6-0.4-2c-0.3-0.5-0.8-0.7-1.6-0.7H278.7z"/>
		<path class="st1" d="M287.3,57.1h-1.8v-8.6h1.8V57.1z"/>
		<path class="st1" d="M294.7,53.4c-0.5,0.4-1.2,0.6-2.2,0.6h-1.8v3.1H289v-8.6h3.7c0.9,0,1.5,0.2,2,0.7s0.8,1.1,0.8,2.1
			C295.5,52.2,295.3,53,294.7,53.4z M293.4,50.3c-0.2-0.2-0.5-0.3-1-0.3h-1.6v2.5h1.6c0.4,0,0.7-0.1,1-0.3s0.3-0.5,0.3-1
			C293.7,50.8,293.6,50.5,293.4,50.3z"/>
		<path class="st1" d="M298.7,48.2h1.4l-3.4,8.9h-1.4L298.7,48.2z"/>
	</g>
	<g>
		<path class="st1" d="M301.6,54.4c0.1,0.4,0.2,0.7,0.3,0.9c0.3,0.4,0.8,0.5,1.5,0.5c0.4,0,0.8,0,1.1-0.1c0.5-0.2,0.8-0.5,0.8-1
			c0-0.3-0.1-0.5-0.4-0.7c-0.3-0.2-0.7-0.3-1.2-0.4l-0.9-0.2c-0.9-0.2-1.6-0.4-1.9-0.7c-0.6-0.4-0.9-1-0.9-1.9
			c0-0.8,0.3-1.4,0.9-1.9c0.6-0.5,1.4-0.8,2.5-0.8c0.9,0,1.7,0.2,2.4,0.7s1,1.2,1,2.1H305c0-0.5-0.3-0.9-0.7-1.1
			c-0.3-0.1-0.6-0.2-1.1-0.2c-0.5,0-0.9,0.1-1.1,0.3c-0.3,0.2-0.4,0.4-0.4,0.8c0,0.3,0.1,0.5,0.4,0.7c0.2,0.1,0.6,0.2,1.1,0.4
			l1.5,0.4c0.7,0.2,1.2,0.4,1.5,0.6c0.5,0.4,0.8,1,0.8,1.8c0,0.8-0.3,1.4-0.9,2c-0.6,0.5-1.5,0.8-2.6,0.8c-1.1,0-2-0.3-2.7-0.8
			c-0.7-0.5-1-1.2-1-2.1H301.6z"/>
	</g>
	<g>
		<path class="st1" d="M314.9,56.3c-0.7,0.7-1.6,1-2.8,1s-2.2-0.3-2.8-1c-0.9-0.8-1.3-2-1.3-3.6c0-1.6,0.4-2.8,1.3-3.6
			c0.7-0.7,1.6-1,2.8-1s2.2,0.3,2.8,1c0.9,0.8,1.3,2,1.3,3.6C316.3,54.3,315.8,55.5,314.9,56.3z M313.8,55c0.4-0.5,0.6-1.3,0.6-2.2
			c0-1-0.2-1.7-0.6-2.2c-0.4-0.5-1-0.8-1.7-0.8s-1.3,0.3-1.7,0.8s-0.6,1.3-0.6,2.3s0.2,1.7,0.6,2.2s1,0.8,1.7,0.8
			S313.4,55.6,313.8,55z"/>
		<path class="st1" d="M319.3,57.1h-1.8v-8.6h1.8V57.1z"/>
		<path class="st1" d="M321.8,49.4c0.7-0.7,1.6-1.1,2.7-1.1c1.4,0,2.5,0.5,3.2,1.4c0.4,0.5,0.6,1.1,0.6,1.6h-1.8
			c-0.1-0.4-0.3-0.7-0.4-0.9c-0.3-0.4-0.8-0.6-1.4-0.6c-0.6,0-1.2,0.3-1.5,0.8c-0.4,0.5-0.6,1.3-0.6,2.2s0.2,1.7,0.6,2.2
			c0.4,0.5,0.9,0.7,1.5,0.7c0.6,0,1.1-0.2,1.4-0.6c0.2-0.2,0.3-0.6,0.4-1h1.8c-0.2,0.9-0.6,1.7-1.2,2.3c-0.6,0.6-1.5,0.9-2.4,0.9
			c-1.2,0-2.2-0.4-2.9-1.2c-0.7-0.8-1.1-1.9-1.1-3.3C320.6,51.4,321,50.2,321.8,49.4z"/>
	</g>
	<g>
		<path class="st2" d="M283.7,223.6l-0.8-1.7h-4.6l-0.8,1.7H275l4.4-9.1h2.5l4.4,9.1H283.7z M280.6,216.7l-1.6,3.5h3.2L280.6,216.7z
			"/>
		<path class="st2" d="M290.7,216.2v7.4h-2.3v-7.4h-3.4v-1.7h9v1.7H290.7z"/>
		<path class="st2" d="M300.1,216.2v7.4h-2.3v-7.4h-3.4v-1.7h9v1.7H300.1z"/>
		<path class="st2" d="M304.6,223.6v-9.1h2.3v9.1H304.6z"/>
		<path class="st2" d="M316.7,223.6l-5.6-6.4v6.4h-2.2v-9.1h2.3l5.6,6.3v-6.3h2.2v9.1H316.7z"/>
		<path class="st2" d="M326.5,220.2v3.4h-2.3v-3.4l-4.3-5.7h2.8l2.7,3.8l2.7-3.8h2.8L326.5,220.2z"/>
		<path class="st2" d="M343.3,221.9v1.7h-2.1v-1.7h-4.9v-1.5l4.7-5.1h2.2v5.1h1.4v1.5H343.3z M340.7,217.8l-2.3,2.6h2.8l0-2.3
			c0-0.3,0-0.7,0.1-1C341.1,217.3,340.9,217.6,340.7,217.8z"/>
		<path class="st2" d="M352.9,221.9v1.7h-2.1v-1.7h-4.9v-1.5l4.7-5.1h2.2v5.1h1.4v1.5H352.9z M350.3,217.8l-2.3,2.6h2.8l0-2.3
			c0-0.3,0-0.7,0.1-1C350.7,217.3,350.5,217.6,350.3,217.8z"/>
	</g>
</g>
</svg>
