<?xml version="1.0" encoding="utf-8"?>
<!-- Generator: Adobe Illustrator 20.1.0, SVG Export Plug-In . SVG Version: 6.00 Build 0)  -->
<svg version="1.1" id="Layer_1" xmlns="http://www.w3.org/2000/svg" xmlns:xlink="http://www.w3.org/1999/xlink" x="0px" y="0px"
	 viewBox="0 0 338.7 338.7" style="enable-background:new 0 0 338.7 338.7;" xml:space="preserve">
<style type="text/css">
	.st0{fill:none;stroke:#000000;}
	.st1{fill:#285149;}
</style>
<path class="st0" d="M220.7,326.1"/>
<g>
	<path class="st1" d="M128.8,300.9v-40.4c1.5-0.6,2.9-1.2,4.2-2c19.3-11.4,21.3-43.6,4.5-72s-46-42.3-65.2-30.9
		C53,167,51,199.2,67.8,227.6c2.7,4.6,5.7,8.8,9,12.6v30l-41.5-23.8V97.7l-14.5-9.6C7.5,112.2,0,139.9,0,169.4
		C0,261,72.7,335.6,163.6,338.6v-17.5L128.8,300.9z"/>
	<path class="st1" d="M80.6,64.6l25.4,15c-0.5,4.2-0.5,8.8-0.5,10.3c0.2,22.4,30.5,39.3,63.5,39s56.5-20.3,56.3-40
		c-0.2-22.4-21.7-39.8-54.7-40.8c-11.2-0.3-21.9,1.9-26.8,2.8l-18.5-11.8l44-25.1L299,89.4l14.9-8.2c-14.3-23.5-34.6-43.9-60.1-58.6
		C174.4-23.1,73.5,2.7,25.5,80l14.8,9.3L80.6,64.6z"/>
	<path class="st1" d="M303.4,146.5l-27.6,14.4c-1-0.2-7.1-5.9-8.5-6.7c-19.5-10.9-48.3,3.5-64.3,32.3c-16.1,28.8-14.7,61.8,4.8,72.7
		c19.5,10.9,48.6-2.2,64.7-31c2.6-4.7,6-15.4,7.7-20.2l23.5-13.6l-0.1,51.6l-129.4,75.5l0.1,17c27.5-0.8,55.3-8.3,80.7-23.2
		c79.1-46.3,106.7-146.7,63.4-226.6l-15,8.3V146.5z"/>
</g>
</svg>
