G75*
%MOIN*%
%OFA0B0*%
%FSLAX25Y25*%
%IPPOS*%
%LPD*%
%AMOC8*
5,1,8,0,0,1.08239X$1,22.5*
%
%ADD10C,0.00000*%
%ADD11R,0.06299X0.07087*%
%ADD12R,0.07087X0.06299*%
%ADD13R,0.06299X0.03150*%
%ADD14R,0.02400X0.08700*%
%ADD15R,0.21000X0.07600*%
%ADD16R,0.06299X0.07098*%
%ADD17R,0.07098X0.06299*%
%ADD18R,0.04400X0.06300*%
%ADD19R,0.10000X0.05000*%
%ADD20R,0.01378X0.09843*%
%ADD21R,0.07874X0.09843*%
%ADD22C,0.01600*%
D10*
X0001800Y0001000D02*
X0001800Y0315961D01*
X0395501Y0315961D01*
X0395501Y0001000D01*
X0001800Y0001000D01*
D11*
X0021288Y0121000D03*
X0032312Y0121000D03*
X0153788Y0118500D03*
X0164812Y0118500D03*
D12*
X0021800Y0130488D03*
X0021800Y0141512D03*
X0016800Y0111512D03*
X0016800Y0100488D03*
D13*
X0127607Y0103500D03*
X0140993Y0103500D03*
X0150107Y0091000D03*
X0163493Y0091000D03*
D14*
X0079300Y0118250D03*
X0074300Y0118250D03*
X0069300Y0118250D03*
X0064300Y0118250D03*
X0059300Y0118250D03*
X0054300Y0118250D03*
X0049300Y0118250D03*
X0049300Y0138750D03*
X0054300Y0138750D03*
X0059300Y0138750D03*
X0064300Y0138750D03*
X0069300Y0138750D03*
X0074300Y0138750D03*
X0079300Y0138750D03*
D15*
X0093300Y0078500D03*
X0055300Y0078500D03*
D16*
X0051202Y0056000D03*
X0062398Y0056000D03*
X0118702Y0078500D03*
X0129898Y0078500D03*
X0079898Y0153500D03*
X0068702Y0153500D03*
X0064898Y0163500D03*
X0053702Y0163500D03*
D17*
X0034300Y0106598D03*
X0034300Y0095402D03*
D18*
X0066200Y0103500D03*
X0072400Y0103500D03*
X0129700Y0151500D03*
X0135900Y0151500D03*
D19*
X0135796Y0138500D03*
X0135796Y0128500D03*
X0135796Y0118500D03*
X0114300Y0118500D03*
X0114300Y0128500D03*
X0114300Y0138500D03*
D20*
X0120501Y0043343D03*
X0123650Y0043343D03*
X0126800Y0043343D03*
X0129950Y0043343D03*
X0133099Y0043343D03*
D21*
X0144517Y0043343D03*
X0144517Y0021689D03*
X0109083Y0021689D03*
X0109083Y0043343D03*
D22*
X0099300Y0043500D02*
X0099300Y0048500D01*
X0106800Y0056000D01*
X0119300Y0056000D01*
X0120300Y0055000D01*
X0120300Y0043543D01*
X0120501Y0043343D01*
X0120501Y0037299D01*
X0126800Y0031000D01*
X0149300Y0031000D01*
X0174300Y0056000D01*
X0174300Y0101000D01*
X0164812Y0110488D01*
X0164812Y0118500D01*
X0153788Y0118500D02*
X0153788Y0108205D01*
X0163493Y0091000D01*
X0133099Y0056492D01*
X0133099Y0043343D01*
X0126800Y0043343D02*
X0126800Y0061000D01*
X0129300Y0063500D01*
X0129300Y0078500D01*
X0129898Y0078500D01*
X0139300Y0078500D01*
X0141800Y0081000D01*
X0141800Y0090193D01*
X0150107Y0091000D01*
X0140993Y0103500D02*
X0140993Y0105705D01*
X0153788Y0118500D01*
X0151800Y0120488D01*
X0151800Y0148500D01*
X0129300Y0171000D01*
X0059300Y0171000D01*
X0059300Y0156000D01*
X0049300Y0146000D01*
X0049300Y0138750D01*
X0024562Y0138750D01*
X0021800Y0141512D01*
X0017312Y0141512D01*
X0014300Y0138500D01*
X0014300Y0127988D01*
X0021288Y0121000D01*
X0016800Y0121000D01*
X0014300Y0118500D01*
X0014300Y0114012D01*
X0016800Y0111512D01*
X0006800Y0106000D02*
X0034300Y0106000D01*
X0031800Y0103500D01*
X0031800Y0104098D01*
X0034300Y0106598D01*
X0034300Y0106000D02*
X0036800Y0106000D01*
X0041800Y0110750D02*
X0049300Y0118250D01*
X0054300Y0118250D02*
X0054300Y0098500D01*
X0055300Y0097500D01*
X0055300Y0078500D01*
X0066800Y0086000D02*
X0089300Y0086000D01*
X0091800Y0083500D01*
X0091800Y0080000D01*
X0093300Y0078500D01*
X0101800Y0093500D02*
X0109300Y0086000D01*
X0109300Y0068500D01*
X0099300Y0058500D01*
X0064898Y0058500D01*
X0062398Y0056000D01*
X0051202Y0056000D02*
X0051202Y0046598D01*
X0056800Y0041000D01*
X0096800Y0041000D01*
X0099300Y0043500D01*
X0123650Y0043343D02*
X0123650Y0110350D01*
X0124300Y0103500D01*
X0127607Y0103500D01*
X0127607Y0121807D01*
X0129300Y0123500D01*
X0144300Y0123500D01*
X0144300Y0131000D01*
X0141800Y0133500D01*
X0131800Y0133500D01*
X0119300Y0146000D01*
X0091202Y0146000D01*
X0079898Y0153500D01*
X0079898Y0157902D01*
X0074300Y0163500D01*
X0064898Y0163500D01*
X0061800Y0153500D02*
X0054300Y0146000D01*
X0054300Y0138750D01*
X0054300Y0131000D02*
X0022312Y0131000D01*
X0021800Y0130488D01*
X0032312Y0121000D02*
X0044300Y0121000D01*
X0049300Y0126000D01*
X0054300Y0126000D01*
X0054300Y0118250D01*
X0059300Y0118250D02*
X0059300Y0093500D01*
X0066800Y0086000D01*
X0071800Y0093500D02*
X0101800Y0093500D01*
X0114300Y0103500D02*
X0114300Y0118500D01*
X0109300Y0123500D02*
X0099300Y0113500D01*
X0086800Y0113500D01*
X0084300Y0111000D01*
X0076800Y0111000D01*
X0074300Y0113500D01*
X0074300Y0118250D01*
X0069300Y0118250D01*
X0064300Y0118250D02*
X0064300Y0105400D01*
X0066200Y0103500D01*
X0066200Y0099100D01*
X0071800Y0093500D01*
X0072400Y0103500D02*
X0072400Y0106000D01*
X0069300Y0109100D01*
X0069300Y0111000D01*
X0066800Y0113500D01*
X0066800Y0131000D01*
X0069300Y0133500D01*
X0069300Y0138750D01*
X0069300Y0141000D01*
X0074300Y0138750D02*
X0074300Y0133500D01*
X0079300Y0128500D01*
X0114300Y0128500D01*
X0109300Y0123500D02*
X0124300Y0123500D01*
X0124300Y0116000D01*
X0118702Y0110402D01*
X0118702Y0078500D01*
X0114300Y0103500D02*
X0072400Y0103500D01*
X0072400Y0106000D02*
X0072400Y0107900D01*
X0079300Y0118250D02*
X0094550Y0133500D01*
X0126800Y0133500D01*
X0129300Y0131000D01*
X0129300Y0128500D01*
X0135796Y0128500D01*
X0135796Y0118500D02*
X0134300Y0118500D01*
X0135796Y0118500D02*
X0153788Y0118500D01*
X0139300Y0118500D02*
X0135796Y0118500D01*
X0135796Y0138500D02*
X0135796Y0152496D01*
X0136800Y0153500D01*
X0136800Y0152400D01*
X0135900Y0151500D01*
X0114300Y0138500D02*
X0079550Y0138500D01*
X0079300Y0138750D01*
X0068702Y0153500D02*
X0061800Y0153500D01*
X0053702Y0163500D02*
X0026800Y0163500D01*
X0006800Y0143500D01*
X0006800Y0106000D01*
X0016800Y0100488D02*
X0022312Y0100488D01*
X0024300Y0098500D01*
X0024300Y0096000D01*
X0033702Y0096000D01*
X0034300Y0095402D01*
X0038702Y0095402D01*
X0041800Y0098500D01*
X0041800Y0110750D01*
X0059300Y0118250D02*
X0059300Y0126000D01*
X0054300Y0131000D01*
X0016800Y0100488D02*
X0021800Y0073500D01*
X0039300Y0056000D01*
X0051202Y0056000D01*
M02*
