G75*
%MOIN*%
%OFA0B0*%
%FSLAX25Y25*%
%IPPOS*%
%LPD*%
%AMOC8*
5,1,8,0,0,1.08239X$1,22.5*
%
%ADD10R,0.06299X0.07087*%
%ADD11R,0.07087X0.06299*%
%ADD12R,0.06299X0.03150*%
%ADD13R,0.02400X0.08700*%
%ADD14R,0.21000X0.07600*%
%ADD15R,0.06299X0.07098*%
%ADD16R,0.07098X0.06299*%
%ADD17R,0.04400X0.06300*%
%ADD18R,0.10000X0.05000*%
%ADD19R,0.01378X0.09843*%
%ADD20R,0.07874X0.09843*%
D10*
X0021288Y0121000D03*
X0032312Y0121000D03*
X0153788Y0118500D03*
X0164812Y0118500D03*
D11*
X0021800Y0130488D03*
X0021800Y0141512D03*
X0016800Y0111512D03*
X0016800Y0100488D03*
D12*
X0127607Y0103500D03*
X0140993Y0103500D03*
X0150107Y0091000D03*
X0163493Y0091000D03*
D13*
X0079300Y0118250D03*
X0074300Y0118250D03*
X0069300Y0118250D03*
X0064300Y0118250D03*
X0059300Y0118250D03*
X0054300Y0118250D03*
X0049300Y0118250D03*
X0049300Y0138750D03*
X0054300Y0138750D03*
X0059300Y0138750D03*
X0064300Y0138750D03*
X0069300Y0138750D03*
X0074300Y0138750D03*
X0079300Y0138750D03*
D14*
X0093300Y0078500D03*
X0055300Y0078500D03*
D15*
X0051202Y0056000D03*
X0062398Y0056000D03*
X0118702Y0078500D03*
X0129898Y0078500D03*
X0079898Y0153500D03*
X0068702Y0153500D03*
X0064898Y0163500D03*
X0053702Y0163500D03*
D16*
X0034300Y0106598D03*
X0034300Y0095402D03*
D17*
X0066200Y0103500D03*
X0072400Y0103500D03*
X0129700Y0151500D03*
X0135900Y0151500D03*
D18*
X0135796Y0138500D03*
X0135796Y0128500D03*
X0135796Y0118500D03*
X0114300Y0118500D03*
X0114300Y0128500D03*
X0114300Y0138500D03*
D19*
X0120501Y0043343D03*
X0123650Y0043343D03*
X0126800Y0043343D03*
X0129950Y0043343D03*
X0133099Y0043343D03*
D20*
X0144517Y0043343D03*
X0144517Y0021689D03*
X0109083Y0021689D03*
X0109083Y0043343D03*
M02*
