<?xml version="1.0" encoding="utf-8"?>
<!-- Generator: Adobe Illustrator 17.0.0, SVG Export Plug-In . SVG Version: 6.00 Build 0)  -->
<!DOCTYPE svg PUBLIC "-//W3C//DTD SVG 1.1//EN" "http://www.w3.org/Graphics/SVG/1.1/DTD/svg11.dtd">
<svg version="1.1" id="Camada_1" xmlns="http://www.w3.org/2000/svg" xmlns:xlink="http://www.w3.org/1999/xlink" x="0px" y="0px"
	 width="137.5px" height="49.667px" viewBox="0 0 137.5 49.667" enable-background="new 0 0 137.5 49.667" xml:space="preserve">
<path d="M134.009,6.809c-0.058-1.56-1.609-3.019-3.33-3.018C98.113,3.815,65.546,3.813,32.98,3.795
	c-1.667-0.001-3.136,1.384-3.125,2.987c0.005,0.671-0.37,1.099-1.022,1.237c-0.185,0.039-0.381,0.036-0.572,0.036
	C20.186,8.057,12.11,8.057,4.034,8.057c-0.596,0-0.597,0-0.597,0.588c0,10.787,0,21.575,0,32.362c0,0.617,0,0.618,0.603,0.618
	c8.184,0,16.367,0,24.551,0c0.801,0,1.256,0.445,1.267,1.26c0.011,0.799,0.337,1.462,0.872,2.026c0.687,0.725,1.576,0.96,2.54,0.96
	c16.187,0.002,32.374,0.001,48.561,0.001c16.127,0,32.254,0,48.381,0c0.144,0,0.288,0.006,0.432-0.001
	c1.12-0.054,2.064-0.471,2.749-1.38c0.528-0.701,0.663-1.527,0.664-2.375c0.004-11.375,0.003-22.751,0.001-34.126
	C134.061,7.596,134.023,7.202,134.009,6.809z M45.018,43.17c-1.512-0.008-3.023-0.007-4.535-0.001
	c-0.261,0.001-0.374-0.094-0.363-0.359c0.012-0.275-0.016-0.553,0.006-0.827c0.026-0.326-0.114-0.412-0.419-0.405
	c-0.719,0.017-1.44,0.017-2.159,0c-0.318-0.008-0.466,0.082-0.438,0.424c0.024,0.286,0,0.575,0.005,0.863
	c0.003,0.213-0.096,0.303-0.306,0.303c-1.572-0.002-3.143-0.003-4.715,0.001c-0.228,0.001-0.325-0.093-0.324-0.323
	c0.004-1.176,0.006-2.351-0.002-3.527c-0.002-0.276,0.126-0.349,0.376-0.347c0.768,0.008,1.536,0.003,2.303,0.003
	c0.756,0,1.512,0.009,2.267-0.005c0.29-0.005,0.422,0.088,0.405,0.392c-0.017,0.287,0.001,0.576-0.002,0.864
	c-0.003,0.223,0.096,0.331,0.324,0.331c0.792-0.003,1.583-0.002,2.375-0.001c0.21,0,0.305-0.105,0.304-0.311
	c-0.001-0.3,0.011-0.6,0-0.9c-0.009-0.253,0.076-0.374,0.349-0.373c1.524,0.007,3.047,0.007,4.571,0
	c0.266-0.001,0.359,0.105,0.358,0.365c-0.007,1.152-0.009,2.303,0.001,3.455C45.401,43.072,45.297,43.172,45.018,43.17z
	 M55.914,34.481c0.001,0.415-0.106,0.728-0.414,1.014c-0.57,0.531-1.112,1.094-1.658,1.651c-0.18,0.183-0.381,0.264-0.64,0.264
	c-5.232-0.004-10.464-0.004-15.696,0c-0.274,0-0.482-0.089-0.668-0.284c-0.323-0.338-0.641-0.686-0.996-0.989
	c-0.372-0.317-0.51-0.684-0.481-1.168c0.035-0.584,0.008-0.586-0.579-0.587c-0.624,0-1.248,0.005-1.872-0.003
	c-0.194-0.002-0.344,0.054-0.479,0.195c-0.266,0.277-0.549,0.537-0.812,0.817c-0.195,0.208-0.417,0.293-0.702,0.29
	c-1.236-0.01-2.472-0.004-3.708-0.004c-0.607,0-0.607,0.001-0.608,0.625c0,0.216-0.005,0.432,0,0.648
	c0.004,0.207-0.083,0.317-0.298,0.31c-0.084-0.003-0.168,0.001-0.252,0.001c-6.696,0-13.392,0-20.087,0
	c-0.546,0-0.547-0.001-0.547-0.53c0-1.056-0.001-2.112,0-3.168c0-0.493,0.001-0.495,0.51-0.495c3.372,0,6.744,0,10.116,0
	c3.348,0,6.696,0,10.044,0c0.514,0,0.514,0.001,0.515,0.526c0.002,0.986,0.002,0.986,0.981,0.986c0.96,0,1.92-0.008,2.88,0.005
	c0.271,0.003,0.461-0.091,0.67-0.264c0.49-0.405,0.707-0.869,0.652-1.524c-0.063-0.751-0.005-1.511-0.019-2.267
	c-0.006-0.316,0.119-0.42,0.427-0.418c1.512,0.009,3.024,0.01,4.536-0.001c0.305-0.002,0.393,0.119,0.391,0.407
	c-0.01,1.152-0.01,2.304,0,3.456c0.003,0.285-0.079,0.437-0.386,0.41c-0.176-0.015-0.256,0.07-0.266,0.254
	c-0.02,0.37,0.054,0.662,0.325,0.97c0.476,0.541,0.997,0.722,1.718,0.716c4.74-0.033,9.48-0.019,14.22-0.011
	c0.311,0,0.546-0.075,0.759-0.308c0.332-0.363,0.682-0.71,1.043-1.044c0.257-0.238,0.356-0.505,0.356-0.857
	c-0.008-5.412,0.006-10.824-0.021-16.235c-0.003-0.659,0.173-1.13,0.659-1.566c0.669-0.599,1.277-1.268,1.92-1.897
	c0.176-0.172,0.251-0.354,0.248-0.602c-0.011-1.068,0.006-2.136-0.01-3.204c-0.005-0.334,0.111-0.439,0.439-0.434
	c1.032,0.016,2.064-0.006,3.096,0.013c0.328,0.006,0.587-0.071,0.782-0.334c0.284-0.383,0.661-0.475,1.131-0.474
	c12.312,0.011,24.623,0.012,36.935-0.001c0.487,0,0.84,0.134,1.164,0.491c0.459,0.506,0.966,0.968,1.443,1.458
	c0.153,0.157,0.317,0.227,0.539,0.225c1.02-0.009,2.04-0.01,3.06,0c0.273,0.003,0.391-0.091,0.469-0.364
	c0.289-1.005,0.948-1.631,1.99-1.84c0.273-0.055,0.383,0.021,0.383,0.296c-0.003,1.536-0.006,3.072,0.002,4.608
	c0.002,0.384-0.253,0.381-0.487,0.322c-0.797-0.201-1.42-0.666-1.741-1.425c-0.16-0.377-0.328-0.529-0.748-0.515
	c-1.055,0.033-2.112,0-3.167,0.017c-0.341,0.005-0.591-0.104-0.824-0.348c-0.514-0.537-1.053-1.051-1.573-1.584
	c-0.162-0.166-0.334-0.238-0.57-0.238c-10.476,0.005-20.952,0.005-31.427-0.003c-0.357,0-0.466,0.125-0.438,0.46
	c0.022,0.262,0.005,0.528,0.004,0.792c-0.001,0.284-0.032,0.559,0.247,0.776c0.152,0.119,0.189,0.347,0.188,0.563
	c-0.006,1.248,0.001,2.496-0.005,3.744c-0.003,0.555-0.378,0.929-0.923,0.942c-0.488,0.011-0.945-0.376-0.953-0.883
	c-0.021-1.284-0.007-2.568-0.007-3.852c0-0.138,0.041-0.28,0.133-0.365c0.359-0.33,0.297-0.755,0.297-1.17
	c-0.001-1.001,0-1.001-1.002-1.001c-0.948,0-1.896,0.009-2.844-0.005c-0.287-0.005-0.481,0.104-0.7,0.279
	c-0.55,0.442-0.768,0.964-0.71,1.681c0.068,0.834,0.017,1.679,0.016,2.519c0,0.493-0.002,0.494-0.51,0.494
	c-0.996,0.001-1.992,0.009-2.988-0.005c-0.286-0.004-0.499,0.073-0.698,0.282c-0.48,0.504-0.971,0.998-1.477,1.476
	c-0.229,0.216-0.309,0.448-0.309,0.759C55.909,23.465,55.903,28.973,55.914,34.481z M33.353,21.216
	c-0.031-0.306,0.116-0.404,0.405-0.389c0.311,0.016,0.625-0.016,0.935,0.009c0.306,0.025,0.516-0.096,0.723-0.307
	c0.755-0.772,1.532-1.523,2.283-2.299c0.243-0.251,0.492-0.36,0.848-0.359c3.216,0.013,6.434,0.079,9.647-0.024
	c1.467-0.047,2.934-0.089,4.402-0.111c0.501-0.007,0.503,0,0.503,0.5c0,1.464-0.009,2.928,0.007,4.392
	c0.004,0.345-0.102,0.463-0.453,0.458c-1.104-0.018-2.208-0.016-3.312-0.001c-0.327,0.004-0.446-0.097-0.441-0.432
	c0.016-1.092,0.007-2.184,0.005-3.276c-0.001-0.443-0.029-0.472-0.471-0.472c-3.192-0.002-6.384,0.001-9.576-0.004
	c-0.218,0-0.386,0.056-0.543,0.215c-0.835,0.845-1.676,1.685-2.52,2.52c-0.193,0.191-0.271,0.405-0.268,0.675
	c0.01,0.864-0.007,1.728,0.009,2.592c0.006,0.317-0.11,0.427-0.421,0.414c-0.467-0.018-0.936-0.013-1.404-0.002
	c-0.265,0.007-0.365-0.101-0.36-0.363c0.01-0.552-0.006-1.104,0.006-1.656c0.005-0.257-0.079-0.364-0.35-0.363
	c-2.016,0.007-4.032,0.008-6.048-0.001c-0.298-0.001-0.385,0.128-0.356,0.389c0.036,0.319-0.112,0.412-0.419,0.411
	c-5.82-0.006-11.64-0.007-17.46,0.001c-0.335,0-0.443-0.112-0.433-0.44c0.02-0.623,0.022-1.248-0.001-1.872
	c-0.013-0.351,0.111-0.454,0.457-0.453c2.904,0.011,5.808,0.006,8.712,0.006c2.868,0,5.736,0,8.604,0c0.511,0,0.522,0,0.535,0.502
	c0.007,0.261,0.113,0.363,0.37,0.363c2.016-0.004,4.032-0.005,6.048,0.001c0.246,0.001,0.358-0.087,0.337-0.336
	C33.346,21.409,33.362,21.311,33.353,21.216z M48.594,28.55c-1.656,0.005-3.312,0.005-4.968,0c-0.229-0.001-0.327,0.084-0.32,0.317
	c0.01,0.312,0.01,0.624,0,0.936c-0.007,0.232,0.091,0.321,0.32,0.317c0.468-0.008,0.936,0.007,1.404-0.004
	c0.257-0.006,0.37,0.086,0.368,0.355c-0.008,1.188-0.008,2.376,0,3.564c0.002,0.272-0.117,0.352-0.371,0.351
	c-1.512-0.006-3.024-0.008-4.536,0.001c-0.288,0.002-0.374-0.117-0.372-0.388c0.009-1.164,0.011-2.328-0.001-3.492
	c-0.003-0.304,0.115-0.402,0.406-0.392c0.455,0.015,0.912-0.003,1.368,0.005c0.229,0.004,0.327-0.085,0.32-0.317
	c-0.01-0.324-0.007-0.648-0.002-0.972c0.003-0.198-0.087-0.286-0.282-0.278c-0.096,0.004-0.192-0.002-0.288-0.002
	c-4.824,0-9.648,0-14.472,0c-0.572,0-0.587-0.021-0.564,0.538c0.009,0.226-0.088,0.338-0.319,0.326c-0.084-0.004-0.168,0-0.252,0
	c-5.724,0-11.448,0-17.172,0c-0.561,0-0.562-0.001-0.562-0.551c0-0.576-0.001-1.152,0-1.728c0.001-0.468,0.006-0.473,0.495-0.473
	c2.892,0,5.784,0,8.676,0c2.88,0,5.76,0.006,8.64-0.007c0.369-0.002,0.548,0.091,0.497,0.482c-0.03,0.23,0.083,0.333,0.313,0.316
	c0.083-0.006,0.168,0,0.252,0c4.824,0,9.648,0,14.472,0c0.565,0,0.566-0.001,0.566-0.572c0-0.42-0.002-0.84-0.001-1.26
	c0.001-0.172-0.024-0.312-0.246-0.312c-0.205,0-0.257-0.133-0.257-0.313c0.002-1.284,0.003-2.568-0.001-3.852
	c-0.001-0.234,0.107-0.319,0.33-0.317c0.504,0.006,1.008,0.008,1.512-0.001c0.25-0.004,0.338,0.106,0.337,0.348
	c-0.005,1.26-0.005,2.52,0,3.78c0.001,0.235-0.072,0.37-0.327,0.358c-0.188-0.009-0.25,0.096-0.249,0.269
	c0.003,0.528,0.005,1.056-0.002,1.584c-0.003,0.224,0.109,0.287,0.312,0.287c1.656-0.003,3.312-0.004,4.968,0.001
	c0.228,0.001,0.325-0.084,0.321-0.316c-0.009-0.456,0.01-0.912-0.005-1.368c-0.009-0.286,0.081-0.413,0.388-0.409
	c1.14,0.012,2.28,0.012,3.42,0c0.303-0.003,0.394,0.115,0.393,0.405c-0.009,1.488-0.011,2.976,0.001,4.464
	c0.003,0.318-0.113,0.417-0.422,0.413c-1.128-0.013-2.256-0.012-3.384,0c-0.3,0.003-0.406-0.107-0.396-0.402
	c0.016-0.456-0.003-0.912,0.005-1.368C48.911,28.648,48.829,28.549,48.594,28.55z M114.997,13.544
	c-0.1-0.085-0.203-0.175-0.277-0.281c-0.395-0.568-0.945-0.704-1.598-0.63c-0.219,0.025-0.341,0.081-0.42,0.299
	c-0.291,0.806-0.862,1.336-1.674,1.598c-0.506,0.163-0.632,0.066-0.633-0.452c-0.001-1.44-0.001-2.879,0-4.319
	c0-0.455,0.026-0.478,0.473-0.384c1.015,0.213,1.64,0.852,1.899,1.833c0.074,0.279,0.196,0.336,0.442,0.338
	c1.56,0.015,1.195-0.24,2.34,1.02c0.698,0.768,1.426,1.133,2.463,1.01c0.686-0.082,1.39-0.005,2.086-0.02
	c0.298-0.006,0.401,0.104,0.398,0.4c-0.011,1.128-0.013,2.256,0.001,3.383c0.004,0.312-0.101,0.423-0.416,0.419
	c-1.068-0.014-2.136,0.002-3.203-0.01c-0.262-0.003-0.479,0.052-0.628,0.266c-0.452,0.646-1.066,0.789-1.834,0.765
	c-1.762-0.055-3.527-0.018-5.291-0.017c-0.493,0-0.51,0.018-0.512,0.504c-0.002,0.775,0.067,0.72-0.718,0.72
	c-3.059,0-6.119,0-9.178,0c-0.48,0-0.488-0.008-0.489-0.479c-0.001-0.84-0.001-1.68,0-2.52c0.001-0.468,0.006-0.473,0.495-0.473
	c1.572-0.001,3.144,0,4.715,0c1.56,0,3.119,0,4.679,0c0.488,0,0.491,0.006,0.495,0.473c0.007,0.742-0.077,0.676,0.676,0.677
	c1.812,0.003,3.623,0.002,5.435,0c0.473,0,0.494-0.022,0.495-0.484c0.002-1.032-0.004-2.064,0.005-3.095
	C115.224,13.86,115.165,13.687,114.997,13.544z M124.941,17.747c-0.479,0.017-0.96-0.004-1.439,0.007
	c-0.258,0.006-0.368-0.089-0.366-0.356c0.008-1.164,0.008-2.328,0-3.491c-0.002-0.272,0.118-0.352,0.372-0.351
	c1.536,0.006,3.071,0.008,4.607-0.001c0.287-0.002,0.374,0.116,0.372,0.388c-0.009,1.14-0.011,2.28,0.001,3.419
	c0.003,0.302-0.113,0.402-0.404,0.393c-0.479-0.015-0.96,0.003-1.44-0.005c-0.227-0.004-0.357,0.085-0.315,0.314
	c0.11,0.599-0.198,0.984-0.609,1.356c-0.471,0.425-0.917,0.881-1.349,1.348c-0.259,0.28-0.547,0.374-0.922,0.373
	c-3.287-0.011-6.575-0.007-9.862-0.006c-0.684,0-1.375,0.698-1.375,1.39c0,1.356-0.005,2.711,0.004,4.067
	c0.002,0.248-0.073,0.43-0.25,0.602c-0.644,0.629-1.28,1.265-1.909,1.908c-0.237,0.242-0.477,0.381-0.83,0.261
	c-0.141-0.048-0.309-0.02-0.465-0.02c-3.623-0.001-7.247-0.004-10.87,0.005c-0.351,0.001-0.614-0.098-0.858-0.352
	c-0.598-0.623-1.215-1.228-1.831-1.834c-0.291-0.286-0.728-0.282-1.029,0.003c-0.112,0.106-0.243,0.088-0.372,0.088
	c-3.191,0.001-6.383-0.002-9.574,0.005c-0.29,0.001-0.405-0.089-0.406-0.392c-0.003-0.836-0.014-0.836-0.837-0.836
	c-2.448,0-4.895-0.005-7.343,0.005c-0.45,0.002-0.798-0.141-1.116-0.465c-1.125-1.148-2.266-2.281-3.408-3.413
	c-0.271-0.268-0.412-0.553-0.403-0.951c0.024-1.091,0.006-2.183,0.01-3.275c0-0.184-0.025-0.336-0.17-0.482
	c-0.189-0.19-0.266-0.444-0.265-0.723c0.005-1.2-0.002-2.4,0.004-3.599c0.003-0.531,0.362-0.952,0.904-0.978
	c0.507-0.024,0.818,0.154,0.984,0.747c0.069,0.247,0.072,0.495,0.072,0.747c-0.002,0.924,0.001,1.848-0.002,2.772
	c-0.001,0.388-0.051,0.765-0.33,1.068c-0.099,0.108-0.101,0.238-0.101,0.37c0,1.056,0.003,2.112-0.003,3.167
	c-0.001,0.181,0.056,0.32,0.183,0.447c1.097,1.092,2.192,2.186,3.282,3.284c0.139,0.14,0.292,0.184,0.483,0.184
	c2.556-0.004,5.111-0.006,7.667,0.002c0.29,0.001,0.399-0.087,0.4-0.388c0.004-0.84,0.015-0.84,0.843-0.84c3.011,0,6.023,0,9.034,0
	c0.5,0,0.5,0.002,0.501,0.503c0.001,0.504,0.009,1.008-0.002,1.512c-0.006,0.256,0.078,0.397,0.348,0.358
	c0.538-0.078,0.917,0.132,1.271,0.545c0.475,0.554,1.031,1.037,1.539,1.565c0.19,0.197,0.39,0.276,0.664,0.275
	c1.788-0.01,3.575-0.005,5.363-0.005c1.776,0,3.551-0.006,5.327,0.006c0.288,0.002,0.496-0.083,0.694-0.29
	c0.489-0.511,0.991-1.011,1.501-1.502c0.196-0.189,0.279-0.388,0.277-0.663c-0.012-1.356,0-2.711-0.01-4.067
	c-0.002-0.26,0.07-0.456,0.261-0.634c0.333-0.31,0.657-0.633,0.967-0.967c0.213-0.229,0.455-0.312,0.766-0.312
	c3.323,0.007,6.646,0.001,9.969,0.01c0.31,0.001,0.545-0.075,0.76-0.307c0.382-0.414,0.792-0.803,1.191-1.201
	c0.112-0.112,0.199-0.225,0.205-0.401C125.312,17.869,125.238,17.736,124.941,17.747z M125.3,26.92
	c0.003-0.274-0.102-0.394-0.381-0.388c-0.479,0.01-0.96-0.004-1.439,0.004c-0.245,0.004-0.345-0.095-0.344-0.341
	c0.006-1.175,0.005-2.351,0.001-3.526c-0.001-0.225,0.087-0.328,0.319-0.328c1.571,0.004,3.143,0.004,4.714,0
	c0.235,0,0.315,0.111,0.314,0.333c-0.004,1.175-0.005,2.351,0.001,3.526c0.001,0.251-0.107,0.341-0.348,0.336
	c-0.468-0.008-0.936,0.007-1.403-0.005c-0.285-0.007-0.417,0.091-0.413,0.393c0.011,0.839,0.009,1.679,0.001,2.519
	c-0.003,0.274,0.101,0.394,0.381,0.388c0.479-0.01,0.96,0.004,1.439-0.004c0.245-0.004,0.345,0.095,0.343,0.341
	c-0.006,1.14-0.008,2.279,0.002,3.418c0.003,0.293-0.127,0.37-0.394,0.366c-0.768-0.01-1.535-0.003-2.303-0.003
	c-0.744,0-1.487-0.01-2.231,0.005c-0.304,0.006-0.43-0.086-0.426-0.409c0.014-1.103,0.014-2.207,0-3.31
	c-0.004-0.32,0.117-0.423,0.424-0.411c0.443,0.018,0.888-0.005,1.331,0.007c0.285,0.008,0.417-0.091,0.413-0.393
	C125.29,28.6,125.292,27.76,125.3,26.92z M118.706,29.83c0.48-0.006,0.96,0.006,1.44-0.002c0.242-0.004,0.349,0.088,0.347,0.338
	c-0.006,1.152-0.006,2.304,0,3.456c0.001,0.255-0.117,0.332-0.354,0.331c-1.524-0.005-3.048-0.006-4.572,0.001
	c-0.271,0.001-0.353-0.117-0.352-0.371c0.007-1.128,0.009-2.256-0.001-3.384c-0.003-0.288,0.115-0.38,0.388-0.372
	c0.456,0.013,0.912-0.006,1.368,0.005c0.248,0.006,0.34-0.089,0.338-0.337c-0.009-0.876-0.009-1.752,0-2.628
	c0.003-0.251-0.097-0.34-0.341-0.334c-0.468,0.01-0.936-0.004-1.404,0.004c-0.242,0.004-0.349-0.088-0.347-0.338
	c0.006-1.176,0.006-2.352,0-3.528c-0.001-0.255,0.117-0.333,0.354-0.331c0.768,0.007,1.536,0.003,2.304,0.003
	c0.732,0,1.464,0.01,2.196-0.005c0.304-0.006,0.431,0.086,0.427,0.409c-0.014,1.128-0.014,2.256,0,3.384
	c0.004,0.322-0.12,0.421-0.426,0.409c-0.455-0.017-0.912,0.002-1.368-0.005c-0.214-0.003-0.301,0.085-0.3,0.299
	c0.005,0.9,0.005,1.8,0,2.7C118.402,29.751,118.495,29.833,118.706,29.83z M75.421,19.939c0.003,0.399,0.632,1.032,1.031,1.033
	c1.728,0.004,3.456,0,5.183,0.004c0.18,0,0.322-0.049,0.449-0.178c0.514-0.521,1.031-1.039,1.553-1.552
	c0.139-0.137,0.194-0.286,0.192-0.48c-0.008-0.588-0.003-1.176-0.002-1.764c0.001-0.491,0.002-0.492,0.512-0.492
	c1.56,0,3.12,0,4.679,0c1.572,0,3.144-0.001,4.715,0c0.47,0,0.477,0.008,0.477,0.491c0.001,0.852-0.012,1.704,0.006,2.555
	c0.007,0.337-0.116,0.432-0.441,0.431c-2.951-0.009-5.903-0.001-8.854-0.012c-0.328-0.001-0.564,0.092-0.787,0.329
	c-0.452,0.481-0.934,0.932-1.393,1.406c-0.242,0.249-0.529,0.359-0.868,0.359c-1.884,0-3.768-0.002-5.651,0.002
	c-0.306,0.001-0.527-0.138-0.768-0.32c-0.926-0.695-1.336-1.575-1.138-2.733c0.044-0.256,0-0.527,0.008-0.791
	c0.011-0.35,0.017-0.683-0.272-0.961c-0.133-0.128-0.165-0.335-0.164-0.537c0.006-1.176-0.004-2.352,0.005-3.528
	c0.006-0.778,0.617-1.236,1.325-0.995c0.491,0.167,0.609,0.612,0.62,1.043c0.03,1.151,0.019,2.304,0.003,3.455
	c-0.004,0.271-0.071,0.55-0.292,0.751c-0.12,0.109-0.13,0.247-0.13,0.395C75.42,18.547,75.416,19.243,75.421,19.939z M97.083,21.934
	c0.512,0.489,1.013,0.99,1.501,1.502c0.199,0.209,0.414,0.28,0.698,0.279c2.94-0.008,5.88-0.005,8.819-0.005
	c0.507,0,0.508,0.001,0.508,0.496c0.001,0.876-0.009,1.752,0.005,2.628c0.005,0.305-0.087,0.426-0.409,0.426
	c-3.18-0.009-6.36-0.008-9.54-0.001c-0.323,0.001-0.455-0.102-0.446-0.436c0.018-0.611-0.005-1.224,0.01-1.836
	c0.006-0.249-0.076-0.43-0.251-0.601c-0.66-0.647-1.303-1.31-1.966-1.954c-0.224-0.218-0.314-0.454-0.313-0.766
	c0.009-2.148,0.001-4.296,0.009-6.444c0.001-0.259-0.064-0.457-0.257-0.635c-0.422-0.391-0.767-0.927-1.259-1.163
	c-0.481-0.232-1.108-0.062-1.671-0.064c-1.884-0.006-3.768-0.002-5.652-0.002c-2.316,0-4.632-0.001-6.948,0.001
	c-0.471,0-0.473,0.003-0.474,0.484c-0.002,0.9,0.001,1.8-0.002,2.7c-0.001,0.29-0.038,0.577-0.219,0.817
	c-0.235,0.312-0.657,0.461-0.988,0.366c-0.416-0.12-0.74-0.499-0.746-0.956c-0.015-1.224-0.017-2.448,0-3.672
	c0.008-0.534,0.443-1.089,1.211-0.911c0.235,0.055,0.47,0.076,0.711,0.076c4.884-0.002,9.767,0.002,14.651-0.009
	c0.393-0.001,0.682,0.113,0.948,0.399c0.449,0.483,0.917,0.95,1.4,1.4c0.288,0.268,0.391,0.572,0.389,0.957
	c-0.01,2.076,0,4.152-0.01,6.228C96.796,21.525,96.876,21.736,97.083,21.934z M57.686,18.126c-0.006-0.299,0.106-0.4,0.401-0.397
	c1.127,0.011,2.255,0.013,3.382-0.001c0.312-0.004,0.423,0.101,0.419,0.416c-0.014,1.031,0.005,2.063-0.01,3.094
	c-0.005,0.343,0.116,0.463,0.46,0.46c1.463-0.013,2.927,0.001,4.39-0.01c0.309-0.002,0.546,0.085,0.767,0.307
	c2.514,2.524,5.034,5.042,7.555,7.559c0.252,0.252,0.383,0.532,0.373,0.895c-0.016,0.587-0.007,1.175-0.003,1.763
	c0.003,0.53-0.08,1.069,0.293,1.543c0.133,0.169,0.14,0.425,0.139,0.657c-0.003,1.055,0.003,2.111-0.003,3.166
	c-0.002,0.421-0.092,0.81-0.494,1.05c-0.625,0.374-1.434-0.018-1.453-0.749c-0.032-1.258-0.012-2.518-0.005-3.778
	c0.001-0.192,0.054-0.4,0.19-0.531c0.226-0.218,0.242-0.472,0.238-0.755c-0.009-0.696-0.011-1.392,0.001-2.087
	c0.004-0.235-0.074-0.406-0.238-0.57c-2.387-2.38-4.77-4.763-7.15-7.149c-0.155-0.156-0.317-0.225-0.539-0.224
	c-1.367,0.008-2.735,0.003-4.102,0.004c-0.176,0-0.355-0.029-0.456,0.19c-0.057,0.124-0.208,0.096-0.326,0.096
	c-1.152,0.001-2.303-0.005-3.454,0.005c-0.286,0.002-0.378-0.112-0.374-0.386c0.011-0.768,0.004-1.535,0.004-2.303
	C57.69,19.638,57.7,18.882,57.686,18.126z M62.39,28.551c-0.505,0.001-0.506,0.002-0.507,0.523
	c-0.001,0.408-0.007,0.816,0.002,1.224c0.005,0.246-0.096,0.344-0.342,0.343c-1.176-0.006-2.351-0.005-3.527-0.001
	c-0.226,0.001-0.327-0.09-0.327-0.32c0.004-1.548,0.004-3.095,0-4.643c0-0.237,0.115-0.313,0.335-0.312
	c1.176,0.004,2.351,0.005,3.527-0.001c0.253-0.001,0.338,0.113,0.333,0.352c-0.008,0.444,0.014,0.888-0.007,1.331
	c-0.015,0.316,0.099,0.414,0.413,0.412c1.812-0.012,3.623,0.001,5.435-0.011c0.324-0.002,0.562,0.084,0.792,0.319
	c0.981,1.004,1.976,1.994,2.976,2.979c0.231,0.228,0.337,0.482,0.328,0.8c-0.009,0.288-0.002,0.576-0.001,0.864
	c0.001,0.45-0.05,0.898,0.273,1.296c0.144,0.177,0.159,0.445,0.159,0.689c-0.001,1.068,0.003,2.135-0.003,3.203
	c-0.002,0.41-0.098,0.786-0.478,1.024c-0.628,0.394-1.455-0.013-1.471-0.76c-0.027-1.271-0.007-2.543-0.007-3.815
	c0-0.177,0.066-0.35,0.182-0.459c0.251-0.236,0.215-0.526,0.257-0.822c0.135-0.928-0.183-1.616-0.907-2.211
	c-0.637-0.523-1.187-1.153-1.764-1.746c-0.18-0.185-0.369-0.27-0.632-0.265c-0.851,0.015-1.703,0.005-2.555,0.005
	C64.046,28.551,63.218,28.55,62.39,28.551z M93.77,34.455c-2.579-0.001-5.158-0.004-7.737,0.002
	c-0.946,0.002-0.813-0.126-0.82,0.818c-0.008,0.911-0.005,1.823,0.001,2.735c0.002,0.205-0.056,0.364-0.203,0.513
	c-1.201,1.216-2.399,2.436-3.59,3.663c-0.275,0.284-0.573,0.419-0.982,0.414c-1.667-0.02-3.334-0.008-5.002-0.008
	c-1.703,0-3.407-0.004-5.11,0.004c-0.26,0.001-0.452-0.073-0.635-0.26c-0.764-0.78-1.536-1.552-2.315-2.316
	c-0.187-0.183-0.273-0.374-0.259-0.635c0.02-0.368,0.041-0.73-0.269-1.034c-0.146-0.143-0.162-0.39-0.161-0.612
	c0.004-1.188-0.001-2.375,0.003-3.563c0.002-0.57,0.433-1.029,0.952-1.006c0.528,0.022,0.965,0.5,0.948,1.014
	c-0.041,1.21-0.017,2.423-0.01,3.634c0.002,0.266-0.059,0.485-0.25,0.683c-0.281,0.29-0.267,0.696,0.02,0.986
	c0.598,0.606,1.207,1.202,1.803,1.81c0.147,0.15,0.308,0.2,0.513,0.2c3.191-0.004,6.381-0.004,9.572,0
	c0.208,0,0.363-0.063,0.508-0.209c1.073-1.081,2.151-2.158,3.231-3.232c0.147-0.146,0.212-0.3,0.21-0.508
	c-0.008-0.899-0.002-1.799-0.004-2.699c0-0.175,0.035-0.361-0.224-0.417c-0.136-0.03-0.134-0.181-0.134-0.304
	c0-0.96,0.008-1.919-0.004-2.879c-0.004-0.349,0.211-0.34,0.453-0.34c2.951,0.002,5.902,0.001,8.853,0.001
	c0.252,0,0.504,0.006,0.756-0.001c0.226-0.006,0.329,0.088,0.328,0.319c-0.005,0.971-0.006,1.943,0,2.915
	C94.214,34.477,93.992,34.455,93.77,34.455z M132.088,35.418c0,0.276-0.088,0.471-0.281,0.662c-0.991,0.977-1.964,1.973-2.961,2.945
	c-0.26,0.253-0.383,0.509-0.371,0.879c0.026,0.827-0.001,1.656,0.013,2.484c0.005,0.306-0.089,0.427-0.41,0.425
	c-1.512-0.012-3.024-0.012-4.536,0c-0.324,0.003-0.425-0.124-0.407-0.427c0.017-0.287-0.004-0.576,0.004-0.864
	c0.006-0.216-0.088-0.3-0.301-0.298c-0.672,0.006-1.344,0.004-2.016,0.001c-0.224-0.001-0.331,0.099-0.329,0.325
	c0.003,0.312-0.007,0.624-0.001,0.936c0.005,0.23-0.097,0.323-0.325,0.322c-1.536-0.004-3.072-0.005-4.608,0.002
	c-0.278,0.001-0.346-0.132-0.343-0.379c0.007-0.864-0.004-1.728,0.006-2.592c0.003-0.244-0.06-0.431-0.237-0.607
	c-1.566-1.556-3.128-3.117-4.683-4.685c-0.188-0.19-0.389-0.258-0.642-0.237c-3.587,0.289-7.18,0.083-10.77,0.144
	c-0.108,0.002-0.216-0.006-0.324,0.001c-0.246,0.015-0.346-0.096-0.343-0.341c0.008-0.564-0.011-1.128,0.007-1.692
	c0.01-0.305-0.08-0.465-0.404-0.414c-0.536,0.085-0.917-0.127-1.275-0.53c-0.54-0.609-1.149-1.158-1.719-1.742
	c-0.171-0.174-0.351-0.254-0.6-0.254c-3.552,0.007-7.105-0.04-10.655,0.034c-0.961,0.02-1.93,0.099-2.897,0.115
	c-0.164,0.003-0.266,0.093-0.368,0.195c-0.365,0.365-0.725,0.735-1.097,1.092c-0.152,0.146-0.205,0.308-0.2,0.513
	c0.01,0.372,0.01,0.744,0,1.116c-0.011,0.41-0.012,0.8,0.287,1.145c0.144,0.166,0.149,0.422,0.148,0.653
	c-0.002,1.104,0.003,2.208-0.002,3.312c-0.003,0.676-0.416,1.129-1.001,1.117c-0.578-0.012-0.956-0.448-0.957-1.112
	c-0.002-1.116,0.002-2.232-0.002-3.348c-0.001-0.337,0.068-0.644,0.314-0.888c0.116-0.115,0.119-0.254,0.119-0.399
	c0-0.648,0.01-1.296-0.004-1.944c-0.006-0.298,0.083-0.528,0.298-0.735c0.518-0.5,1.026-1.01,1.528-1.527
	c0.198-0.204,0.416-0.296,0.702-0.29c4.677,0.107,9.355,0.07,14.032,0.074c0.269,0,0.471,0.096,0.662,0.293
	c0.693,0.715,1.4,1.417,2.108,2.117c0.275,0.272,0.742,0.267,1.005-0.002c0.098-0.101,0.211-0.101,0.33-0.101
	c3.216,0,6.432,0.002,9.648-0.004c0.276,0,0.392,0.091,0.385,0.375c-0.013,0.516,0.01,1.032-0.008,1.548
	c-0.01,0.303,0.109,0.404,0.4,0.388c0.311-0.018,0.625,0.014,0.935-0.008c0.419-0.029,0.73,0.137,1.018,0.428
	c1.538,1.551,3.089,3.088,4.626,4.64c0.236,0.238,0.473,0.35,0.817,0.344c1.212-0.021,2.424,0.002,3.636-0.014
	c0.343-0.005,0.489,0.097,0.457,0.451c-0.022,0.25,0.002,0.504-0.004,0.756c-0.005,0.203,0.063,0.313,0.287,0.311
	c0.696-0.006,1.392-0.005,2.088-0.001c0.204,0.001,0.274-0.099,0.271-0.289c-0.004-0.276,0.014-0.553-0.002-0.828
	c-0.018-0.299,0.104-0.4,0.399-0.398c1.284,0.01,2.568-0.003,3.852,0.01c0.275,0.003,0.472-0.084,0.663-0.277
	c0.909-0.923,1.826-1.839,2.749-2.749c0.184-0.181,0.265-0.369,0.265-0.632c-0.006-8.148-0.006-16.296-0.001-24.444
	c0-0.248-0.073-0.43-0.249-0.602c-0.668-0.655-1.336-1.312-1.983-1.988c-0.235-0.246-0.481-0.336-0.82-0.336
	C116.25,7.6,104.49,7.599,92.73,7.599c-11.724,0-23.448,0.002-35.172-0.009c-0.431,0-0.735,0.123-1.034,0.433
	c-1.034,1.07-2.094,2.115-3.152,3.16c-0.193,0.19-0.282,0.386-0.279,0.662c0.014,1.056-0.004,2.112,0.011,3.168
	c0.005,0.328-0.099,0.444-0.434,0.439c-1.116-0.016-2.232-0.014-3.348-0.001c-0.309,0.004-0.44-0.094-0.421-0.413
	c0.019-0.335-0.001-0.672,0.004-1.008c0.003-0.203-0.063-0.312-0.287-0.312c-1.488,0.004-2.976,0.004-4.464,0.001
	c-0.204,0-0.273,0.099-0.271,0.289c0.003,0.432-0.009,0.864,0.002,1.296c0.007,0.264-0.1,0.366-0.362,0.36
	c-0.492-0.011-0.984-0.009-1.476-0.001c-0.246,0.004-0.348-0.096-0.343-0.342c0.009-0.408-0.004-0.816,0.003-1.224
	c0.005-0.248-0.078-0.381-0.35-0.38c-1.824,0.004-3.648,0.004-5.472,0c-0.267-0.001-0.36,0.124-0.355,0.376
	c0.008,0.396-0.009,0.792,0.004,1.188c0.01,0.276-0.095,0.366-0.375,0.388c-2.678,0.208-5.361,0.122-8.042,0.137
	c-0.512,0.003-0.512,0.002-0.514,0.516c-0.004,0.996-0.004,0.996-1.017,0.996c-6.54,0-13.08,0-19.62,0
	c-0.546,0-0.547-0.001-0.547-0.529c0-1.068,0.01-2.136-0.006-3.204c-0.005-0.334,0.084-0.466,0.444-0.466
	c6.768,0.009,13.536,0.009,20.304,0c0.354,0,0.476,0.119,0.447,0.461c-0.022,0.262,0.006,0.528-0.006,0.791
	c-0.011,0.245,0.084,0.344,0.335,0.34c0.588-0.01,1.176-0.002,1.764-0.002c1.404,0,2.808-0.01,4.212,0.007
	c0.347,0.004,0.457-0.107,0.449-0.451c-0.02-0.888,0.003-1.776-0.011-2.664c-0.005-0.306,0.089-0.438,0.411-0.424
	c0.455,0.02,0.912,0.02,1.368,0c0.325-0.014,0.429,0.124,0.406,0.427c-0.016,0.215,0.011,0.433-0.005,0.648
	c-0.021,0.284,0.096,0.378,0.375,0.374c0.864-0.012,1.728-0.004,2.592-0.004c0.936,0,1.872-0.012,2.808,0.006
	c0.322,0.006,0.431-0.11,0.406-0.419c-0.019-0.238,0.001-0.48-0.004-0.72c-0.004-0.21,0.088-0.309,0.302-0.307
	c0.528,0.004,1.056,0.003,1.584,0c0.219-0.001,0.295,0.114,0.292,0.317c-0.004,0.264,0.007,0.528-0.001,0.792
	c-0.007,0.219,0.063,0.332,0.305,0.331c1.476-0.006,2.952-0.005,4.428-0.001c0.221,0.001,0.292-0.102,0.291-0.308
	c-0.005-0.588,0.009-1.176-0.004-1.764c-0.006-0.281,0.102-0.382,0.381-0.379c1.08,0.009,2.16-0.004,3.24,0.009
	c0.263,0.003,0.45-0.08,0.632-0.264c1.012-1.024,2.039-2.034,3.048-3.061c0.245-0.25,0.503-0.358,0.856-0.357
	c23.784,0.006,47.568,0.006,71.352,0c0.339,0,0.589,0.103,0.825,0.344c0.847,0.867,1.706,1.722,2.571,2.571
	c0.194,0.19,0.281,0.386,0.281,0.662C132.082,18.522,132.082,26.97,132.088,35.418z"/>
</svg>
